<?xml version="1.0" standalone="no"?>
<!DOCTYPE svg PUBLIC "-//W3C//DTD SVG 1.1//EN" "http://www.w3.org/Graphics/SVG/1.1/DTD/svg11.dtd" >
<svg xmlns="http://www.w3.org/2000/svg" xmlns:xlink="http://www.w3.org/1999/xlink" version="1.1">
<metadata>
Created by FontForge 20170812 at Thu Mar 24 05:59:37 2022
 By www-data
</metadata>
<defs>
<font id="HelloHandmadeRegular" horiz-adv-x="0" >
  <font-face 
    font-family="Hello Handmade"
    font-weight="400"
    font-stretch="normal"
    units-per-em="1000"
    panose-1="0 0 0 0 0 0 0 0 0 0"
    ascent="800"
    descent="-200"
    x-height="429.062"
    cap-height="709.02"
    bbox="-144.999 -384.724 1154 885.731"
    underline-thickness="50"
    underline-position="-100"
    unicode-range="U+000A-20AC"
  />
<missing-glyph horiz-adv-x="527" 
d="M50 700h427v-700h-427v700zM78 680l185 -309l186 309h-371zM251 350l-180 300v-601zM264 329l-185 -308h370zM276 350l181 -303v605z" />
    <glyph glyph-name=".notdef" horiz-adv-x="527" 
d="M50 700h427v-700h-427v700zM78 680l185 -309l186 309h-371zM251 350l-180 300v-601zM264 329l-185 -308h370zM276 350l181 -303v605z" />
    <glyph glyph-name=".null" 
 />
    <glyph glyph-name=".null" 
 />
    <glyph glyph-name="LF" unicode="&#xa;" 
 />
    <glyph glyph-name="controlCR" unicode="&#xd;" 
 />
    <glyph glyph-name="space" unicode=" " horiz-adv-x="329" 
 />
    <glyph glyph-name="exclam" unicode="!" horiz-adv-x="204" 
d="M102.551 56.292c-21.0537 -2.21094 -50.8105 10.6289 -51.5059 35.2236c-2.68652 95.1826 0.499023 190.555 1.91113 285.748c0.692383 46.8164 1.23633 93.6328 1.79785 140.453c0.286133 23.9023 -0.257812 47.7842 -0.240234 71.6797
c0.00683594 12.5156 -0.148438 25.0869 0.0820312 37.5957c0.216797 11.71 3.20996 21.0742 5.94434 32.2783c4.04688 16.5703 28.7344 18.2305 36.3838 3.82324c6.21289 -11.7031 10.9697 -20.4961 13.7803 -33.625c2.60742 -12.165 4.8252 -24.5713 6.60547 -36.8877
c3.23047 -22.3662 4.97363 -45.0596 6.90234 -67.5635c3.97461 -46.3584 5.77246 -92.9375 8.29688 -139.393c5.14258 -94.6348 12.0547 -189.38 13.1016 -284.17c0.275391 -24.7705 -18.7539 -42.6074 -43.0596 -45.1631zM153.356 -101.22
c6.69922 -36.832 -60.7363 -44.209 -67.1113 -7.05371c-3.7959 22.0977 -6.98828 44.1855 -7.99707 66.5967c-1.00586 22.2734 -2.20117 45.0811 23.3994 52.9922c12.8291 3.96777 28.8135 0.499023 34.9678 -12.5615c6.5166 -13.832 6.34766 -31.9307 8.52441 -46.8994
c2.58301 -17.7305 5.01074 -35.4404 8.2168 -53.0742z" />
    <glyph glyph-name="quotedbl" unicode="&#x22;" horiz-adv-x="251" 
d="M57.4297 545.215c6.54395 34.6484 72.4658 26.9883 62.502 -7.88379c-4.04688 -14.1729 -6.92285 -28.4004 -9.72949 -42.8486c-2.7627 -14.2246 -4.41211 -28.9971 -15.0205 -39.584c-9.25488 -9.24023 -24.8154 -9.33008 -33.8633 0.148438
c-19.749 20.6895 -8.6377 65.0156 -3.88867 90.168zM135.958 535.354c6.64355 35.2197 73.5254 28.0176 63.9297 -8.06348c-6.5166 -24.4912 -6.64355 -52.5645 -18.0332 -75.3477c-8.49316 -16.9902 -35.21 -15.3408 -43.71 0.257812
c-13.1016 24.0508 -7.02246 57.5352 -2.18652 83.1533z" />
    <glyph glyph-name="quotedbl" unicode="&#x201d;" horiz-adv-x="251" 
d="M57.4297 545.215c6.54395 34.6484 72.4658 26.9883 62.502 -7.88379c-4.04688 -14.1729 -6.92285 -28.4004 -9.72949 -42.8486c-2.7627 -14.2246 -4.41211 -28.9971 -15.0205 -39.584c-9.25488 -9.24023 -24.8154 -9.33008 -33.8633 0.148438
c-19.749 20.6895 -8.6377 65.0156 -3.88867 90.168zM135.958 535.354c6.64355 35.2197 73.5254 28.0176 63.9297 -8.06348c-6.5166 -24.4912 -6.64355 -52.5645 -18.0332 -75.3477c-8.49316 -16.9902 -35.21 -15.3408 -43.71 0.257812
c-13.1016 24.0508 -7.02246 57.5352 -2.18652 83.1533z" />
    <glyph glyph-name="quotedbl" unicode="&#x201c;" horiz-adv-x="251" 
d="M57.4297 545.215c6.54395 34.6484 72.4658 26.9883 62.502 -7.88379c-4.04688 -14.1729 -6.92285 -28.4004 -9.72949 -42.8486c-2.7627 -14.2246 -4.41211 -28.9971 -15.0205 -39.584c-9.25488 -9.24023 -24.8154 -9.33008 -33.8633 0.148438
c-19.749 20.6895 -8.6377 65.0156 -3.88867 90.168zM135.958 535.354c6.64355 35.2197 73.5254 28.0176 63.9297 -8.06348c-6.5166 -24.4912 -6.64355 -52.5645 -18.0332 -75.3477c-8.49316 -16.9902 -35.21 -15.3408 -43.71 0.257812
c-13.1016 24.0508 -7.02246 57.5352 -2.18652 83.1533z" />
    <glyph glyph-name="numbersign" unicode="#" horiz-adv-x="537" 
d="M402.319 624.458c22.3252 34.2217 91.542 28.8154 84.6504 -20.6562c-4.41895 -31.7617 -15.6465 -61.7188 -25.3281 -92.2236c-9.1377 -28.79 -19.0361 -57.3252 -27.9424 -86.1943c-15.5361 -50.3643 -29.5371 -101.207 -42.0254 -152.415
c12.7334 -2.53125 25.3662 -5.7002 37.8545 -9.76465c21.6846 -7.05664 4.0127 -33.5732 -14.8955 -27.4219c-9.85059 3.20605 -19.8457 5.80664 -29.9375 7.93555c-2.73145 -11.7725 -5.41406 -23.5586 -8.06641 -35.3477
c1.97363 -0.110352 3.94727 -0.196289 5.9209 -0.316406c22.7627 -1.3916 14.5967 -30.8906 -6.26074 -29.5303c-2.06348 0.134766 -4.12305 0.231445 -6.18652 0.355469c-8.55176 -39.3809 -16.4834 -78.8857 -23.3203 -118.617
c-10.6699 -61.9844 -19.9277 -124.548 -40.5205 -183.932c-8.87207 -25.5869 -51.6523 -29.6748 -57.1357 0.561523c-11.6416 64.1885 -5.49707 130.788 3.0752 195.301c4.81445 36.25 10.2734 72.4619 16.6484 108.502
c-9.63379 -0.230469 -19.2637 -0.575195 -28.8867 -1.0332c-20.541 -95.7578 -36.7324 -192.587 -51.4834 -289.292c-2.90332 -19.0498 -24.3359 -28.9727 -41.3877 -29.0107c-15.5332 -0.0341797 -38.6191 11.0322 -38.251 29.793
c1.85645 93.9912 11.6279 186.894 27.502 279.146c-19.9902 -2.66211 -39.9316 -5.78223 -59.8076 -9.41211c-21.0195 -3.83984 -23.5752 24.54 -2.98242 28.3867c22.6348 4.22559 45.3594 7.78027 68.1426 10.7354c3.01367 16.1631 6.20996 32.3096 9.57812 48.4424
c-28.2012 -1.9082 -56.3604 -4.42969 -84.4199 -7.5332c-20.5752 -2.27637 -23.2168 24.7812 -2.89648 27.5674c31.1797 4.27051 62.4082 7.52539 93.709 9.79199c25.5449 116.492 57.4072 234.981 106.645 343.556c10.0498 22.1602 39.9766 29.2656 61.4062 24.2686
c19.7764 -4.61523 41.6162 -25.0283 34.6689 -47.7148c-17.917 -58.5303 -39.1465 -115.948 -56.9561 -174.523c-14.2588 -46.9023 -27.4912 -94.1562 -39.5391 -141.689c8.55859 0.03125 17.1279 0.0136719 25.6904 -0.0966797
c12.1094 52.5029 25.8271 104.637 41.1299 156.299c9.17871 30.9805 18.4814 62.0537 29.7305 92.3516c11.9922 32.2959 22.9795 64.7637 41.8779 93.7324zM274.254 210.078c2.73828 14.2246 5.65137 28.4082 8.73047 42.5566
c-8.84766 0.0449219 -17.6816 -0.00683594 -26.4775 -0.110352c-0.265625 -1.09863 -0.558594 -2.19043 -0.820312 -3.28613c-3.20312 -13.332 -6.27539 -26.6992 -9.28516 -40.083c9.27832 0.419922 18.5635 0.706055 27.8525 0.922852z" />
    <glyph glyph-name="dollar" unicode="$" horiz-adv-x="374" 
d="M286.145 171.54c18.8945 -34.3447 37.3945 -78.6035 38.3213 -118.339c0.4375 -18.8115 -7.18457 -37.0693 -14.4551 -54.1006c-6.20312 -14.5244 -17.1211 -26.1172 -31.4141 -32.9023c-16.5078 -7.83594 -33.8662 -8.58008 -50.4912 -4.73633
c1.17773 -18.8154 2.41113 -37.6309 3.76172 -56.4355c1.24707 -17.376 -29.7881 -20.5547 -30.9863 -3.25781c-1.68066 24.2637 -3.16895 48.5352 -4.55371 72.8135c-5.99609 3.5918 -11.7061 7.65918 -17.0137 12.0713
c-55.8984 46.4785 -79.6221 116.599 -96.6572 184.824c-4.0918 16.3906 28.5039 22.9482 32.8711 7.3252c11.1729 -39.9766 24.1191 -80.418 45.125 -116.454c7.14355 -12.2539 19.0049 -29.7295 33.3564 -44.4668c-2.29395 46 -4.06445 92.0244 -5.30762 138.059
c-8.58301 11.875 -17.2559 23.6885 -26.1729 35.3467c-51.6318 67.502 -119.51 131.067 -111.943 223.412c5.7998 70.8223 71.3076 124.217 139.63 118.93c1.54688 44.1855 3.53711 88.3604 6.03418 132.511c0.888672 15.7227 29.627 13.2705 28.7139 -3.62012
c-2.4248 -44.8984 -4.31934 -89.8203 -5.73145 -134.753c70.2812 -23.2207 96.8457 -99.209 103.142 -167.218c1.85938 -20.0928 -32.7617 -23.5439 -35.8066 -3.76074c-6.2959 40.9062 -18.3955 85.9727 -53.457 111.845
c-4.63574 3.41992 -9.79883 6.58887 -15.2441 9.26172c-1.55371 -67.3779 -1.96387 -134.783 -1.25098 -202.172c25.9551 -33.002 49.2578 -67.3301 69.5303 -104.183zM186.492 315.294c-0.0449219 56.8975 0.699219 113.798 2.24902 170.682
c-13.9111 0.602539 -27.1328 -4.24316 -36.2842 -18.127c-17.7207 -26.8887 -11.4727 -64.3438 0.0205078 -92.5684c8.8584 -21.7598 20.7412 -41.2744 34.0146 -59.9863zM258.679 -7.85254c44.6846 16.6113 -8.44531 75.5869 -22.7695 96.459
c-5.08008 7.4082 -10.1777 14.7959 -15.2852 22.1729c1.47363 -38.9092 3.2959 -77.8076 5.51758 -116.682c10.6387 -4.63965 21.6738 -5.98633 32.5371 -1.9502z" />
    <glyph glyph-name="percent" unicode="%" horiz-adv-x="584" 
d="M499.35 548.748c-26.8262 -61.0723 -60.7461 -118.956 -89.5596 -179.14c-27.9766 -58.4336 -54.0967 -117.873 -78.5986 -177.847c-23.8955 -58.4922 -45.3799 -117.952 -66.2998 -177.563c-11.1768 -31.8486 -21.7988 -63.8828 -32.8721 -95.7656
c-5.84863 -16.8457 -11.1562 -33.8838 -18.0098 -50.3506c-3.06836 -7.37695 -5.69629 -16.0869 -9.70215 -22.9688c-2.45898 -4.0918 -5.49316 -7.68359 -9.09961 -10.7803c-0.227539 -0.265625 -0.392578 -0.444336 -0.602539 -0.685547
c-0.636719 -19.9521 -31.6582 -24.2715 -43.6924 -11.3115c-19.5039 21.0059 -12.9912 56.8281 -8.47266 82.332c5.07324 28.6455 10.7148 57.1045 17.7373 85.3359c26.124 104.999 61.0723 207.546 101.527 307.878c19.9072 49.3789 42.0947 97.9385 65.2432 145.871
c23.2207 48.0869 46.7031 96.5088 77.2871 140.408c15.6748 22.501 43.0938 33.5977 69.9375 23.4893c25.084 -9.44727 35.8369 -34.6348 25.1768 -58.9023zM212.625 370.556c8.96875 -39.8389 -10.1699 -88.1396 -50.7764 -101.086
c-50.75 -16.1768 -99.8604 17.1348 -111.188 66.7959c-2.81738 12.3545 3.66797 22.0498 13.7383 28.0527c-0.933594 30.2705 37.3555 60.71 62.7393 67.2949c43.6758 11.3311 76.3398 -20.4307 85.4873 -61.0576zM121.387 352.029
c4.25684 -14.2559 12.416 -34.2725 30.4014 -34.3135c21.75 -0.0546875 28.5312 23.0801 26.2891 40.6143c-2.6416 20.6406 -15.585 49.2686 -40.7236 44.3984c-11.5342 -2.23535 -34.0381 -17.5859 -38.0264 -32.4893c10.2979 -2.09082 18.9844 -7.9082 22.0596 -18.21z
M481.071 152.744c47.3467 -18.0264 60.0771 -75.4775 49.1484 -120.327c-12.626 -51.79 -59.0605 -89.4658 -113.22 -86.0527c-50.9082 3.20605 -96.4951 50.0986 -82.0947 102.719c5.78613 21.1367 28.4971 30.2568 48.418 28.2451
c-4.06055 2.61035 -6.86426 6.50195 -6.7373 11.6201c1.21582 49.2305 61.2266 80.2627 104.485 63.7959zM469.132 46.3242c6.86719 18.0439 9.45312 51.6953 -12.1006 62.1689c-18.2471 8.86523 -36.4697 -22.0049 -47.9355 -31.3799
c-2.81738 -2.30078 -6.90527 -3.4541 -11.2314 -3.58105c12.6641 -5.69629 21.0371 -17.3203 17.1523 -34.5518c-2.49023 -11.0488 3.21289 -25.042 15.9531 -26.2129c18.4092 -1.69434 32.3135 18.1953 38.1621 33.5566z" />
    <glyph glyph-name="ampersand" unicode="&#x26;" horiz-adv-x="507" 
d="M428.895 180.254c54.6729 -44.6738 19.3047 -128.924 -17.4482 -172.627c-45.5459 -54.166 -113.737 -92.3652 -185.755 -88.2461c-39.4111 2.25586 -78.5713 20.0449 -100.924 53.502c-22.4834 33.6533 -28.6035 74.2363 -21.6055 113.807
c6.93652 39.2295 24.54 74.3115 48.0742 105.385c-6.51953 2.02832 -12.8945 4.39062 -19.0488 7.1084c-50.5537 22.3076 -85.9766 64.5781 -81.8643 121.909c3.54102 49.3271 33.5498 96.9326 69.2412 129.862c35.7676 33.002 83.1836 60.5654 133.2 59.1572
c22.9102 -0.647461 45.8486 -8.82422 62.3945 -25.0498c17.2861 -16.9521 22.6318 -40.9131 26.293 -64.0234c3.31348 -20.8955 -35.9775 -29.0029 -41.2812 -9.19922c-4.80078 17.9238 -11.7061 45.7695 -31.2383 53.2119
c-16.2051 6.17188 -37.6074 -2.30469 -52.0967 -9.34473c-36.2734 -17.627 -65.4863 -48.7002 -83.0928 -84.6846c-16.9727 -34.6895 -20.9023 -78.7949 17.3311 -100.107c6.85352 -3.82324 17.5791 -7.38477 23.1582 -8.68359
c9.13379 -2.12891 18.5947 -2.53906 23.5576 -2.1875c12.3301 0.875 12.5156 1.26074 21.9219 4.72559c1.50488 0.636719 3.01367 1.27344 4.51855 1.91016c-5.4834 -2.21094 -3.36133 -1.10547 6.33789 3.31348c4.06055 3.12012 8.14551 6.1748 12.2471 9.15723
c36.291 26.3994 97.542 -16.6182 61.8506 -55.2412c-11.4033 -12.3369 -24.918 -21.5742 -39.6416 -28.0732c-34.707 -27.9043 -63.7998 -67.2744 -75.8203 -108.174c-12.0273 -40.9199 -6.12793 -97.8555 42.876 -110.313
c43.6787 -11.1035 100.652 1.39844 134.563 31.1865c33.6084 29.5234 70.4541 84.8125 52.7822 131.64c-9.41992 24.9668 -36.3877 35.1758 -61.3887 30.1504c-13.9492 -2.80371 -26.541 -10.04 -37.7451 -18.5986c-4.22559 -3.23047 -29.8848 -23.0996 -25.9307 -29.4131
c8.10059 -12.9395 -17.8652 -23.6162 -25.5596 -12.3086c-20.1211 29.5645 34.0732 66.5928 56.3574 77.5586c32.5508 16.0156 74.6113 16.4873 103.735 -7.30859z" />
    <glyph glyph-name="quotesingle" unicode="'" horiz-adv-x="172" 
d="M121.45 544.685c1.2334 -18.1436 -1.84863 -34.8252 -5.89551 -52.459c-3.71582 -16.1875 -6.23047 -33.7354 -18.3232 -45.8936c-9.11328 -9.16113 -25.0908 -9.50879 -33.9697 0.148438c-11.9512 12.998 -12.4131 32.6504 -13.1055 49.5508
c-0.826172 20.2031 1.59473 37.5137 8.62793 56.3086c9.72949 26.0039 60.7061 21.1309 62.666 -7.65527z" />
    <glyph glyph-name="quotesingle" unicode="&#x2019;" horiz-adv-x="172" 
d="M121.45 544.685c1.2334 -18.1436 -1.84863 -34.8252 -5.89551 -52.459c-3.71582 -16.1875 -6.23047 -33.7354 -18.3232 -45.8936c-9.11328 -9.16113 -25.0908 -9.50879 -33.9697 0.148438c-11.9512 12.998 -12.4131 32.6504 -13.1055 49.5508
c-0.826172 20.2031 1.59473 37.5137 8.62793 56.3086c9.72949 26.0039 60.7061 21.1309 62.666 -7.65527z" />
    <glyph glyph-name="quotesingle" unicode="&#x2018;" horiz-adv-x="172" 
d="M121.45 544.685c1.2334 -18.1436 -1.84863 -34.8252 -5.89551 -52.459c-3.71582 -16.1875 -6.23047 -33.7354 -18.3232 -45.8936c-9.11328 -9.16113 -25.0908 -9.50879 -33.9697 0.148438c-11.9512 12.998 -12.4131 32.6504 -13.1055 49.5508
c-0.826172 20.2031 1.59473 37.5137 8.62793 56.3086c9.72949 26.0039 60.7061 21.1309 62.666 -7.65527z" />
    <glyph glyph-name="parenleft" unicode="(" horiz-adv-x="468" 
d="M368.346 -93.3506c26.6025 10.9355 68.9893 -23.0127 40.0996 -47.0977c-39.832 -33.2021 -87.2715 -52.3418 -139.633 -52.249c-52 0.0898438 -100.718 22.7695 -132.948 63.9785c-51.2666 65.5488 -73.2578 157.512 -81.9746 238.656
c-9.36133 87.1338 -1.56738 175.449 20.7197 260.079c21.0371 79.8877 55.0449 162.396 106.553 227.625c23.1211 29.2822 52.0488 50.5361 84.9541 67.5537c25.3008 13.0879 79.0332 36.4492 90.7607 -6.30957c4.4873 -16.3633 -19.9004 -23.7549 -27.333 -9.51367
c-8.8584 16.9766 -43.6514 -8.62012 -52.0479 -16.8584c-10.9727 -10.7627 -20.2168 -22.7969 -28.2002 -35.9023c-17.9023 -29.3887 -32.3096 -60.3516 -44.4053 -92.5615c-47.8604 -127.444 -67.5713 -272.044 -44.8125 -406.783
c5.64844 -33.4258 13.5801 -65.708 24.8799 -97.5596c10.1846 -28.7041 21.8945 -57.2803 39.4629 -78.334c17.3135 -20.751 35.0645 -30.1123 60.5654 -32.6299c24.5986 -2.42773 55.9062 6.62305 83.3594 17.9062z" />
    <glyph glyph-name="parenright" unicode=")" horiz-adv-x="400" 
d="M333.526 357.136c14.8379 -88.9834 19.8486 -177.99 13.1191 -268.011c-6.12012 -81.9434 -18.1543 -172.232 -72.3066 -237.578c-51.0635 -61.623 -162.358 -87.7129 -217.279 -16.0264c-25.8145 33.6943 25.335 62.2949 53.6494 43.8477
c3.98535 -2.59668 11.0254 -6.06543 14.0254 -6.90625c0.97168 -0.272461 6.63086 -1.06445 8.75293 -1.42969c1.6875 0.0966797 6.57129 0.12793 7.10547 0.182617c15.3984 1.53613 15.0166 1.34277 28.0459 10.2773c5.71387 3.91992 18.7744 16.5186 24.3779 24.4336
c5.63086 7.95215 14.3242 24.7842 18.6396 36.7627c22.5283 62.5117 30.46 134.006 32.792 200.048c2.47656 70.1748 -1.14355 140.963 -9.45801 210.662c-7.37402 61.8086 -17.0967 123.876 -38.8193 182.503c-10.7217 28.9375 -22.7275 58.0273 -39.0771 84.3271
c-8.06934 12.9775 -17.665 23.2754 -33.3252 26.0098c-13.8662 2.4209 -26.6953 -0.947266 -36.2734 -11.4004c-11.9375 -13.0254 -37.6582 1.08496 -24.6113 16.8281c25.8555 31.2041 67.2783 28.4658 100.673 12.8467c39.291 -18.3818 68.5117 -47.8291 92.4248 -83.7754
c44.1504 -66.3691 64.5742 -145.809 77.5449 -223.602z" />
    <glyph glyph-name="asterisk" unicode="*" horiz-adv-x="269" 
d="M206.437 445.113c21.5469 -0.681641 13.6689 -28.5186 -5.91797 -27.8955c-11.7549 0.375 -23.4922 0.422852 -35.209 0.188477c7.93848 -9.84375 15.6289 -19.9072 23.2471 -29.9707c11.4893 -15.1816 -15.4268 -29.6748 -25.3594 -16.1084
c-3.64746 4.98047 -7.30469 9.96777 -11 14.9277c0.358398 -6.84668 0.748047 -13.6934 1.18848 -20.5645c1.08105 -16.9072 -25.9521 -18.9805 -29.5439 -3.10645c-2.08691 9.23047 -3.66406 18.5361 -4.8418 27.8867c-5.57227 -8.06934 -10.8076 -16.3906 -15.6504 -24.96
c-7.83203 -13.8662 -35.2402 -6.16504 -26.8398 9.99121c6.80957 13.1016 14.459 25.5488 22.8418 37.3828c-11.0625 -1.29883 -22.1045 -2.8623 -33.1289 -4.69824c-19.8799 -3.30957 -22.2666 23.3105 -2.81055 26.751c14.2246 2.51465 28.4902 4.51562 42.7871 6.12793
c-12.3994 12.3408 -25.876 23.5762 -41.0342 33.0098c-15.5508 9.67773 5.06934 27.3223 18.4014 19.3008c12.2168 -7.35352 23.4482 -15.8223 33.9941 -25.0391c0.613281 8.56543 1.42285 17.1172 2.39746 25.6348c2.15234 18.8154 37.0283 15.9258 34.4248 -4.34277
c-0.798828 -6.20996 -1.39453 -12.4092 -1.89746 -18.6016c8.93066 7.65332 18.2881 14.8926 28.1035 21.6709c15.1787 10.4805 35.7646 -9.89844 18.5918 -21.7529c-11.376 -7.85645 -22.1562 -16.4707 -32.334 -25.7217
c13.1738 0.320312 26.3682 0.30957 39.5898 -0.110352z" />
    <glyph glyph-name="plus" unicode="+" horiz-adv-x="308" 
d="M244.682 244.604c21.6709 -4.05371 14.166 -32.499 -6.08887 -28.7178c-15.9805 2.98926 -31.7891 4.52832 -47.4707 4.8418c-0.423828 -6.06543 -0.813477 -12.082 -1.0957 -18.0127c-1.9248 -40.4209 -0.460938 -79.8154 -12.333 -118.725
c-5.11426 -16.7598 -31.5928 -25.1465 -43.1855 -9.44824c-24.1025 32.6299 -22.542 81.082 -24.2402 119.787c-0.244141 5.56543 -0.50293 11.2412 -0.737305 16.9863c-13.1875 -3.2373 -26.3203 -7.22266 -39.415 -11.9277
c-18.0098 -6.46777 -28.876 15.9912 -10.9082 24.5332c15.8564 7.53906 32.4814 13.3184 49.5264 17.5684c-0.189453 29.0029 1.79102 58.4707 10.5566 84.6191c10.8975 32.5029 65.167 37.1631 71.9795 -0.705078c4.34277 -24.1436 3.60547 -49.8027 1.94922 -75.2275
c17.335 -0.554688 34.5938 -2.41406 51.4629 -5.57227z" />
    <glyph glyph-name="comma" unicode="," horiz-adv-x="263" 
d="M126.627 90.5332c22.9072 42.6592 106.643 18.2529 81.1143 -30.1992c-26.8848 -51.0146 -55.3232 -104.685 -97.0049 -145.212c-10.5459 -10.2529 -26.8574 -14.0967 -40.7754 -8.8584c-11.4688 4.31934 -23.3271 17.7549 -19.0771 31.0322
c17.3789 54.2803 48.8857 103.229 75.7432 153.237z" />
    <glyph glyph-name="hyphen" unicode="-" horiz-adv-x="340" 
d="M289.656 177.216c2.20117 -20.9375 -18.042 -38.3457 -37.7939 -39.6445c-29.9404 -1.95996 -59.8604 -2.40723 -89.8555 -3.01367c-29.0518 -0.585938 -63.042 -4.33984 -91.1982 4.13965c-14.4551 4.35352 -22.3975 19.1357 -20.541 33.415
c0.0410156 0.313477 0.0820312 0.629883 0.123047 0.943359c1.85938 14.3213 18.6602 24.3682 31.6377 25.5391c18.9287 1.70801 51.1143 5.31445 75.9023 6.52344c28.8584 1.4082 57.6201 2.91309 86.5137 3.0166c19.749 0.0722656 42.7803 -7.79102 45.2119 -30.9189z" />
    <glyph glyph-name="period" unicode="." horiz-adv-x="211" 
d="M89.0605 61.7266c21.4023 35.3135 86.4756 18.1348 69.2891 -25.7959c-11.7002 -29.916 -34.8584 -67.251 -63.9648 -82.7012c-19.0186 -10.0947 -46.3965 -2.29395 -44.2676 22.7139c1.30859 15.3398 10.2324 30.1084 16.7451 43.8506
c6.80957 14.376 13.96 28.335 22.1982 41.9326z" />
    <glyph glyph-name="slash" unicode="/" horiz-adv-x="505" 
d="M425.048 569.393c23.1445 -8.71387 37.5518 -35.0312 24.8252 -58.0869c-31.2627 -56.6494 -65.3047 -111.694 -96.543 -168.385c-30.7871 -55.8682 -59.4805 -112.766 -88.1357 -169.742c-29.1475 -57.9619 -56.8037 -116.761 -84.126 -175.601
c-13.4531 -28.9795 -26.5508 -58.0967 -40.2412 -86.9619c-13.8115 -29.124 -27.4404 -58.0615 -48.2744 -82.9316c-10.8662 -12.9668 -41.3574 -9.49805 -42.3525 10.0889c-1.69434 33.3916 7.78027 65.5088 17.0244 97.2539
c8.80371 30.2295 19.2529 59.8701 29.9502 89.4766c22.1084 61.1924 46.8516 121.138 73.5264 180.474c26.0898 58.0342 55.2236 114.763 85.3115 170.812c31.1387 58.0098 62.8633 116.075 100.063 170.438c15.2607 22.3047 42.6689 33.0674 68.9717 23.165z" />
    <glyph glyph-name="zero" unicode="0" horiz-adv-x="423" 
d="M50.0713 204.909c-1.02637 61.0996 8.88281 131.349 40.5723 186.576c-21.7676 31.4971 13.6211 78.7646 40.207 97.415c41.96 29.4336 89.0693 17.9062 130.434 -5.97168c88.043 -50.8291 114.178 -170.985 111.815 -264.911
c-1.26367 -50.2295 -8.79297 -101.352 -37.6934 -143.825c-30.873 -45.3662 -81.3643 -76.4121 -137.515 -72.7129c-45.5215 3 -83.9346 30.0576 -109.697 66.4141c-27.8594 39.3184 -37.3271 89.6104 -38.123 137.016zM169.722 472.529
c-15.6123 -5.17285 -28.8096 -16.7539 -37.9883 -30.2139c2.32129 2.03223 4.69043 4.01562 7.13281 5.93359c14.6338 11.4795 48.1836 -4.12305 34.9375 -23.8926c-20.999 -31.3389 -41.6367 -62.6846 -52.6895 -99.127
c-10.6387 -35.082 -14.6787 -71.8896 -13.6279 -108.474c1.0127 -35.3135 5.28027 -72.3867 25.3389 -102.517c8.29395 -12.4609 18.7949 -22.9385 32.1035 -29.9854c4.21191 -2.22852 9.91504 -4.57422 13.8105 -5.57617
c3.92969 -1.00879 8.28613 -1.47754 12.3398 -1.62598c0.599609 -0.0205078 1.03711 -0.0478516 1.39551 -0.0751953c0.954102 0.158203 2.35254 0.365234 4.51562 0.637695c2.4043 0.302734 3.33789 0.327148 3.66211 0.279297
c0.299805 0.207031 1.22266 0.658203 3.70605 1.5918c3.12695 1.17773 6.34375 2.02148 9.47754 3.22656c9.89551 3.79883 4.12305 2.10059 2.51758 1.19824c3.68164 2.07031 7.19434 4.40234 10.6143 6.87207c5.4834 3.95703 17.7441 15.2334 21.9219 20.9131
c20.9023 28.4414 27.4775 66.375 30.9248 100.641c7.25293 72.0557 -3.04883 149.07 -33.9844 214.616c-14.1279 29.9365 -39.9141 57.5625 -76.1084 45.5771z" />
    <glyph glyph-name="one" unicode="1" horiz-adv-x="294" 
d="M234.949 8.9668c-3.06543 -25.5176 -33.458 -39.3271 -55.8213 -39.1309c-20.5518 0.185547 -52.5791 14.7402 -51.5869 40.1787c3.77832 97.1113 18.6641 193.593 22.6045 290.78c1.91504 47.2646 6.12012 95.9961 -0.358398 143.071
c-2.31445 16.8281 -5.16992 40.1797 -27.5088 32.8438c-19.4971 -6.40234 -32.9502 -24.5527 -40.7412 -42.583c-7.23633 -16.7451 -37.9307 -7.60742 -30.3428 11.2979c16.9834 42.3154 62.791 75.9473 109.008 58.8467c50.3057 -18.6152 62.3916 -84.5674 70.957 -130.957
c10.7324 -58.127 13.457 -118.114 12.8027 -177.13c-0.688477 -62.2324 -1.58691 -125.378 -9.0127 -187.218z" />
    <glyph glyph-name="two" unicode="2" horiz-adv-x="353" 
d="M101.871 -39.8057c-34.0107 15.4404 -53.8262 45.4277 -51.7148 83.1133c1.77344 31.6445 16.1357 62.8525 27.8594 91.8555c23.4307 57.9688 52.3477 113.682 74.1943 172.312c10.5146 28.2217 19.377 57.917 24.54 87.5986
c3.85059 22.1318 12.8359 57.3896 -3.97852 76.3945c-13.9424 15.7539 -37.0596 4.69141 -50.5156 -6.16797c-8.02148 -6.47852 -49.0693 -53.123 -27.3672 -59.1094c18.5361 -5.11426 4.64258 -25.4658 -9.26172 -24.9316
c-34.1699 1.30859 -37.7549 41.5781 -31.9375 67.7676c6.48145 29.1621 29.6953 54.6318 55.5752 68.1953c30.3633 15.915 65.5898 19.6797 95.9229 1.57031c25.4385 -15.1855 43.3477 -42.0674 51.29 -70.0576c19.6279 -69.1729 -1.83594 -146.69 -27.3809 -211.533
c-12.998 -32.9883 -27.8906 -65.1914 -41.9053 -97.7529c-12.7119 -29.5439 -27.04 -60.3311 -33.1572 -92.1064c-2.07031 -10.7559 -3.34766 -23.0342 0.90918 -28.8379c3.55469 -4.84277 12.3438 -7.05762 20.7441 -7.6875
c31.9307 -2.40039 58.5674 17.5898 87.3672 27.7402c21.1299 7.44238 55.1338 -17.335 31.9824 -37.5762c-50.1025 -43.8096 -130.207 -69.3691 -193.166 -40.7861z" />
    <glyph glyph-name="three" unicode="3" horiz-adv-x="392" 
d="M182.662 -24.5273c-60.8516 -4.22266 -112.061 33.9668 -130.442 90.9883c-16.6592 51.6729 65.1436 76.0576 87.1348 30.3223c5.82422 -12.1133 11.9551 -23.417 22.3604 -33.2607c-3.09668 2.93066 11.3408 -7.15723 5.71289 -4.06055
c4.82227 -2.65527 3.1416 -1.33301 6.23145 -1.80469c0.992188 -0.151367 1.67773 -0.261719 2.125 -0.337891c11.3486 0.289062 17.2178 3.33398 28.4521 10.7734c7.16016 4.74219 17.875 14.7061 23.1406 21.7734c25.1523 33.7422 26.7881 85.8213 -5.89355 111.084
c-21.9463 16.9629 -47.6328 13.4736 -72.8408 25.7627c-19.1631 9.34082 -30.4844 28.0498 -25.3838 49.6787c4.04688 17.166 20.4033 29.8232 32.2168 41.9229c18.9844 19.4355 38.4746 39.5703 53.9219 61.999c12.998 18.8779 39.9521 53.9668 26.2998 78.3242
c-15.2197 27.1504 -57.6074 18.5986 -79.3232 7.28418c-24.2988 -12.6641 -45.8389 -32.3955 -49.6934 -60.6309c-2.33496 -17.0898 -33.0537 -14.2998 -31.0938 3.92285c8.31445 77.2529 123.271 127.893 182.865 75.3418
c15.9053 -14.0244 27.126 -28.5449 31.5107 -49.8057c4.55664 -22.0908 -0.609375 -45.4668 -7.7832 -66.4795c-7.34668 -21.5156 -18.7295 -41.9463 -31.6523 -60.5615c-4.57715 -6.5918 -9.3125 -13.0732 -14.0928 -19.5244
c10.3672 -3.46484 20.2246 -7.74902 30.0918 -13.0146c24.7363 -13.2119 43.6416 -32.6436 57.4736 -56.9316c26.2412 -46.0791 22.835 -104.32 -2.72754 -149.846c-27.9355 -49.7578 -80.6826 -88.9004 -138.61 -92.9199zM190.572 299.624
c-6.14453 0.77832 -6.02637 0.723633 0.224609 -0.151367c-0.0761719 0.0478516 -0.152344 0.0996094 -0.224609 0.151367z" />
    <glyph glyph-name="four" unicode="4" horiz-adv-x="387" 
d="M168.098 118.922c-41.7949 1.94629 -87.8477 36.8506 -104.972 74.585c-21.5537 47.4844 -11.8271 106.187 -4.08105 155.834c7.9873 51.1973 14.9131 107.003 43.3379 151.611c7.50098 11.7686 26.7129 12.957 33.5498 -0.199219
c19.4424 -37.4141 23.7578 -84.082 23.0518 -125.649c-0.685547 -40.4414 -7.74219 -81.6748 -3.46777 -122.033c2.95117 -27.8525 4.30176 -60.6338 26.7988 -79.542c12.2471 -10.2979 25.8271 -10.8691 39.2871 -6.85352
c-0.629883 9.20605 -1.15332 18.4092 -1.57031 27.5918c-3.87793 85.8457 -5.2207 172.177 3.11719 257.781c2.63867 27.1123 35.999 41.7773 59.3057 41.5674c22.6348 -0.207031 54.8584 -15.5957 54.8066 -42.6914
c-0.141602 -78.1689 -3.89258 -156.289 -3.51367 -234.488c0.200195 -41.4053 1.12012 -83.1826 -1.14258 -124.537c-1.69141 -30.8799 0.826172 -67.7285 -12.083 -96.4355c-3.94727 -8.77246 -15.1133 -14.3965 -24.2373 -15.1406
c-49.7686 -4.04395 -56.5703 56.3086 -63.2998 92.4893c-3.47559 18.7051 -6.11035 37.6406 -8.14551 56.6562c-17.7852 -7.27051 -36.6416 -11.4795 -56.7422 -10.5459z" />
    <glyph glyph-name="five" unicode="5" horiz-adv-x="396" 
d="M104.568 468.729c-21.4297 1.14648 -41.0371 8.81738 -52.9229 30.585c-9.07227 16.6182 21.9355 25.876 30.5049 10.6182c9.58203 -17.0693 31.8662 -15.375 51.0566 -11.4004c4.63281 3.06543 10.3848 4.19824 16.1572 3.78125
c1.06055 0.254883 2.10059 0.505859 3.08594 0.733398c21.3955 4.95312 42.8564 10.6807 64.9678 10.8496c35.4268 0.268555 71.1602 -13.377 88.3633 -45.917c9.69141 -18.3369 -24.8672 -29.2344 -33.6777 -11.7178c-17.8857 35.5645 -61.916 29.9434 -96.5195 22.625
c-0.124023 -1.47754 -0.423828 -2.99316 -0.958008 -4.54688c-2.56543 -32.7539 -13.9727 -65.625 -9.75684 -98.6992c1.62891 -12.7881 9.51953 -15.998 20.2588 -22.7627c15.4336 -9.72266 31.2559 -18.8672 46.334 -29.1445
c48.3213 -32.9297 86.5137 -81.4033 103.104 -137.888c16.1357 -54.9443 18.8906 -120.26 -11.6416 -171.15c-37.6377 -62.7393 -119.491 -83.9551 -182.733 -46.4688c-55.4785 32.8818 -80.7686 106.7 -72.8193 168.048c4.79395 36.9971 65.4219 39.1875 79.5811 8.36523
c13.1123 -28.542 14.8447 -61.9336 31.5762 -89.0293c3.79199 -6.14062 10.7559 -14.2725 17.0859 -18.6807c5.05957 -3.52344 6.40234 -4.33984 8.78906 -4.77344c-2.32812 0.423828 14.1768 -1.53613 6.92676 -0.933594
c1.88086 -0.158203 3.06934 -0.285156 3.82324 -0.384766c-0.275391 0.189453 -0.137695 0.50293 1.4502 0.958008c2.20117 0.629883 4.54688 1.37402 6.66504 2.32812c-0.410156 0.00683594 4.08789 2.91016 3.95703 2.79688
c8.07617 7.05664 10.1084 11.124 14.7646 21.0781c7.23242 15.4707 10.1045 38.0605 9.45703 56.2393c-1.59473 44.7256 -17.9023 86.6787 -47.96 120.118c-16.4111 18.2578 -37.8789 31.6934 -59.4219 45.2432c-23.7686 14.9473 -50.8057 31.1006 -61.8369 58.4062
c-16.6426 41.1855 -4.1709 93.4473 22.3389 130.724z" />
    <glyph glyph-name="six" unicode="6" horiz-adv-x="333" 
d="M161.051 -22.8672c-81.627 -3.40332 -111.718 92.2295 -111.039 158.64c0.760742 74.6553 20.127 150.316 46.5605 219.744c13.1357 34.4932 29.3057 69.0791 49.4473 100.056c17.2178 26.4785 46.4551 74.8857 82.54 74.9131
c8.62109 0.00683594 17.7412 -2.26953 21.6611 -10.9932c6.72656 -14.9756 -1.25 -28.6973 -7.12598 -42.5674c-5.83789 -13.7764 -11.752 -27.3945 -17.9346 -41.0195c-12.2578 -27.0059 -24.7666 -54.1221 -34.748 -82.0713
c-18.9287 -53.002 -34.3105 -106.865 -42.1738 -162.705c-0.299805 -2.13184 -0.554688 -4.26074 -0.820312 -6.38965c30.4287 8.24902 63.1621 8.22168 91.4287 -7.49414c29.293 -16.2842 46.373 -45.8281 43.8799 -79.4531
c-4.41211 -59.5322 -60.9102 -118.124 -121.676 -120.659zM224.238 151.517c-24.6152 15.2744 -53.9082 11.2002 -79.6641 1.29785c-0.753906 -13.8008 -0.963867 -27.6289 -0.81543 -41.6084c0.244141 -22.7764 -0.696289 -49.2725 7.35254 -70.9463
c8.43164 -22.7109 30.7881 -20.793 50.0479 -11.9688c23.2822 10.667 41.0684 31.9209 47.9873 56.626c7.30859 26.0928 -1.68066 52.1855 -24.9082 66.5996z" />
    <glyph glyph-name="seven" unicode="7" horiz-adv-x="317" 
d="M72.249 460.204c-15.4365 -7.19141 -31.8838 15.0518 -15.3652 24.2305c42.0879 23.3994 92.1143 63.207 138.586 24.7637c41.082 -33.9834 44.6016 -97.3008 45.1045 -146.511c0.302734 -29.6719 -1.18848 -59.6396 -3.86133 -89.5078
c3.75391 0.740234 7.50781 1.48438 11.2617 2.22852c22.9141 4.53223 26.165 -27.2197 3.28516 -31.2529c-5.96875 -1.05371 -11.9336 -2.10449 -17.9023 -3.1582c-2.09082 -17.958 -4.49512 -35.8398 -7.17773 -53.5361
c-4.43262 -29.248 -9.23047 -58.4404 -14.1973 -87.6025c-5.32129 -31.2354 -9.1582 -62.085 -21.8945 -91.3564c-16.9414 -38.9297 -97.6455 -35.3203 -99.4395 12.1475c-1.03027 27.2568 5.41406 52.916 10.8623 79.3984c5.05273 24.5566 10.0059 49.1406 14.7451 73.7627
c3.02441 15.7158 6.1377 31.4346 9.22754 47.1572c-11.6377 -2.03516 -23.2822 -3.41309 -34.6377 -3.01367c-7.93848 0.282227 -14.8574 8.15918 -13.3037 16.002c1.78418 9.00293 11.2422 12.0166 19.2188 11.8994c11.0352 -0.162109 23.6094 3.85742 34.793 6.44434
c3.90234 20.4648 7.63281 40.958 10.9121 61.5059c6.96777 43.6758 15.292 89.8135 10.4668 134.116c-1.56055 14.3066 -3.45117 30.0117 -20.4346 30.1533c-21.374 0.175781 -41.3438 -9.06445 -60.249 -17.8711z" />
    <glyph glyph-name="eight" unicode="8" horiz-adv-x="329" 
d="M114.603 242.396c-21.4121 26.8193 -42.1611 54.4355 -54.3779 86.6768c-17.3135 45.7217 -13.8525 95.7139 19.7314 133.014c25.4209 28.2314 63.7129 49.3584 102.222 50.0957c39.7939 0.760742 68.6836 -20.1904 82.2334 -57.3018
c14.9131 -40.8408 14.4795 -88.208 12.6855 -131.022c-2.02539 -48.373 -8.74121 -96.2988 -15.6816 -144.162c-0.0722656 -0.520508 -0.185547 -1.0166 -0.305664 -1.50879c18.8291 -42.9385 26.2617 -88.4219 5.46973 -133.431
c-15.6777 -33.9385 -47.3506 -65.6074 -86.252 -68.1182c-38.3506 -2.47656 -69.1279 24.6084 -86.459 56.4287c-37.1689 68.2393 -18.1367 146.745 20.7344 209.329zM177.292 5.49023c55.0898 1.22949 47.0107 65.0938 31.1094 99.3154
c-18.2471 39.2803 -45.0322 75.8574 -71.6279 109.827c-0.767578 0.985352 -1.5498 1.96387 -2.3252 2.94531c-18.6328 -33.6943 -30.0742 -71.4668 -27.415 -110.23c2.50781 -36.5801 23.2559 -102.908 70.2588 -101.857zM194.572 475.242
c-35.0068 2.85156 -52.5371 -37.7715 -53.0508 -65.2217c-0.833008 -44.5293 21.7432 -80.1182 46.6377 -114.983c13.7354 -19.2393 29.0381 -40.1553 43.1211 -62.2432c5.17285 39.9697 9.11621 80.1113 8.54102 120.439
c-0.455078 32.0098 1.92871 118.165 -45.249 122.009z" />
    <glyph glyph-name="nine" unicode="9" horiz-adv-x="423" 
d="M118.492 238.11c-57.1143 5.8623 -80.748 61.9092 -62.3701 112.073c17.7129 48.3418 55.2988 89.7061 95.499 120.731c22.2393 17.1621 46.6104 31.748 74.9561 35.3643c15.0781 1.92578 31.4727 0.217773 44.085 -7.37988
c9.09961 11.4688 22.0293 18.8838 37.9004 17.7441c19.835 -1.42578 31.5449 -15.1475 39.5146 -32.2754c16.7939 -36.0947 17.6514 -81.8848 20.2246 -120.91c2.7998 -42.4697 3.83008 -85.0186 4.38086 -127.567c0.550781 -42.6211 -1.65723 -85.3291 -2.55273 -127.943
c-0.933594 -44.5195 2.53516 -90.8887 -4.60449 -134.915c-9.07227 -55.9609 -107.417 -55.6094 -114.591 1.12305c-5.68652 44.9531 2.76562 93.3164 7.06055 138.263c3.96387 41.4922 7.51172 83.1045 12.4951 124.479c5.10059 42.3564 9.48535 84.8262 12.2305 127.403
c0.579102 8.93457 1.04395 17.876 1.50879 26.8174c-12.1445 -26.2275 -25.3633 -52.083 -41.8193 -75.8994c-28.7383 -41.585 -68.7461 -82.7705 -123.918 -77.1084zM166.696 415.856c-24.3438 -23.8203 -57.4717 -61.3467 -58.5947 -97.4932
c-1.04004 -33.4014 28.4072 -35.5889 49.833 -17.9688c25.9482 21.3398 43.6104 54.0107 58.5508 83.4443c13.1709 25.9521 24.0371 52.9336 35.833 79.4912c-12.6396 -0.505859 -23.9707 -2.88281 -36.5625 -10.0635
c-17.9307 -10.2227 -34.3252 -22.9932 -49.0596 -37.4102z" />
    <glyph glyph-name="colon" unicode=":" horiz-adv-x="187" 
d="M90.2129 289.451c-47.498 -15.5059 -29.707 76.1289 -20.3906 95.8984c12.2686 26.0312 54.7285 15.0615 53.1406 -12.9707c-0.789062 -13.8486 -5.1875 -26.4746 -9.25879 -39.6729c-1.93945 -6.28223 -4.21973 -12.3682 -6.63086 -18.4854
c-0.926758 -2.35254 -5.1084 -15.3643 -6.42383 -13.2393c-1.11621 -5.0625 -5.06348 -9.77734 -10.4365 -11.5303zM77.0029 181.902c14.0244 25.2832 65.1406 18.9922 59.0791 -14.4131c-4.76367 -26.2656 -15.5615 -51.3184 -24.0547 -76.5781
c-5.22168 -15.5293 -19.7832 -24.6318 -36.374 -22.5205c-14.7412 1.87402 -28.3799 14.4971 -25.1807 30.2812c5.77539 28.4932 12.3301 57.6338 26.5303 83.2305z" />
    <glyph glyph-name="semicolon" unicode=";" horiz-adv-x="228" 
d="M117.134 303.4c-12.9502 3.16504 -22.6592 14.1465 -20.3311 27.9746c2.62402 15.5645 5.19727 30.9189 9.09961 46.2148c4.4873 17.5889 22.4248 25.9482 39.4668 24.4365c14.7441 -1.30859 32.5605 -16.5146 27.3223 -32.8604
c-5.63086 -17.5752 -12.5361 -34.4824 -19.5488 -51.5381c-5.3623 -13.0293 -23.8506 -17.2002 -36.0088 -14.2275zM178.347 204.985c0.753906 -42.9482 -10.1494 -84.2568 -26.2373 -123.813c-14.2178 -34.9551 -34.7412 -69.8066 -72.0859 -83.1768
c-17.376 -6.21973 -40.6416 12.3301 -24.6846 29c44.8154 46.8271 39.2568 120.938 60.125 178.611c5.31055 14.6689 16.9795 22.8691 32.6816 22.9033c12.7051 0.0273438 29.9395 -8.68652 30.2012 -23.5244z" />
    <glyph glyph-name="less" unicode="&#x3c;" horiz-adv-x="349" 
d="M261.015 151.385c20.5752 -4.81152 38.6504 -16.7041 37.9131 -39.9141c-0.633789 -20.2207 -21.7705 -39.1641 -42.1221 -39.123c-42.7969 0.0859375 -85.6943 0.839844 -127.041 13.1807c-36.873 11.0039 -87.1162 41.082 -78.8643 86.252
c7.21582 39.5049 65.2119 61.3096 97.1836 76.4326c15.5713 7.36719 31.0908 14.9199 46.9824 21.5674c7.91504 3.31348 15.7129 6.55078 23.7793 9.46094c6.54004 2.35938 18.0293 3.39941 23.1543 6.81934c12.6396 8.42773 33.6904 -5.45898 21.2773 -19.001
c-3.78809 -4.12988 -4.90723 -12.1104 -8.55762 -17.2598c-4.22266 -5.95508 -8.71387 -11.8584 -13.7598 -17.1211c-11.0244 -11.4971 -23.7607 -21.2578 -36.4355 -30.8291c-12.9531 -9.78516 -25.8105 -19.6807 -38.6914 -29.5615
c-2.45215 -1.88086 -4.92871 -3.72656 -7.3877 -5.59668c7.26367 -2.92773 15.7256 -4.80859 22.2764 -5.90039c26.6953 -4.45703 53.8418 -3.2168 80.293 -9.40625zM143.41 154.068c-5.68262 -4.62207 -1.82129 -2.26953 0.610352 0.53418
c-0.207031 -0.171875 -0.400391 -0.365234 -0.610352 -0.53418z" />
    <glyph glyph-name="equal" unicode="=" horiz-adv-x="374" 
d="M80.4697 144.066c-13.9492 1.15039 -27.9951 12.3398 -29.5068 26.7051c-1.63574 15.5713 10.2773 26.5791 23.3066 32.2549c32.7227 14.2588 70.6777 16.2803 105.991 17.3242c19.1396 0.564453 38.3135 0.206055 57.418 -1.05469
c19.3975 -1.28125 40.6309 -1.89746 56.4463 -14.5205c23.3994 -18.6709 14.4307 -47.6055 -11.5557 -58.0615c-19.5977 -7.88672 -40.3213 -3.61621 -60.7588 -2.26562c-13.3838 0.881836 -26.8506 1.40527 -40.2617 1.60156
c-33.7773 0.489258 -67.3369 -4.76953 -101.079 -1.9834zM291.262 125.884c18.9395 -1.58398 36.2715 -19.0361 32.1865 -38.7158c-4.32617 -20.8477 -27.1709 -30.4014 -46.4961 -28.7861c-35.1611 2.94141 -70.3262 5.33496 -105.604 6.26855
c-17.042 0.455078 -34.0908 0.189453 -51.126 0.702148c-17.8857 0.541016 -37.0459 -0.0859375 -53.5674 7.66699c-17.7441 8.32422 -24.3428 31.9785 -4.5459 43.248c32.5439 18.5264 76.4707 14.6309 112.748 14.3691
c38.8467 -0.279297 77.6826 -1.51562 116.405 -4.75293z" />
    <glyph glyph-name="greater" unicode="&#x3e;" horiz-adv-x="317" 
d="M256.993 224.487c13.877 -16.3359 13.0088 -39.5117 -1.12988 -55.4482c-11.6211 -13.1016 -28.5186 -20.9297 -43.3418 -29.75c-33.1533 -19.7217 -67.1475 -38 -102.137 -54.2393c-42.2461 -19.6074 -86.2207 39.9385 -41.9043 66.0869
c21.2852 12.5605 43.2998 23.6162 65.3945 34.6924c10.1357 5.08008 20.3887 9.8916 30.6729 14.6553c-1.21875 0.737305 -2.42383 1.50488 -3.65039 2.22852c-12.8877 7.6084 -26.3271 14.5518 -38.8574 22.7422c-18.4746 12.082 -56.2842 40.0693 -32.7607 63.8477
c10.6357 10.7529 26.5479 4.41895 38.1172 -0.241211c14.3066 -5.75879 29.1377 -10.1846 43.4824 -15.8916c28.7969 -11.4551 65.3701 -24.2568 86.1143 -48.6826zM187.346 184.7c1.25 -1.42578 1.76172 -1.78418 1.54492 -1.07812
c-0.505859 0.416992 -1.04688 0.785156 -1.55664 1.19531c0.00390625 -0.0410156 0.0078125 -0.0791016 0.0117188 -0.117188z" />
    <glyph glyph-name="question" unicode="?" horiz-adv-x="411" 
d="M358.691 451.296c10.3154 -78.0244 -10.0273 -158.179 -26.8105 -233.806c-8.41406 -37.8994 -17.665 -75.7676 -23.0859 -114.242c-5.16602 -36.667 -5.44824 -69.5107 -2.29688 -107.972c5.0459 -61.5781 -99.7051 -71.9033 -109.504 -11.5098
c-11.8408 73.0029 5.58691 151.137 27.4883 220.809c19.4697 61.9365 42.4219 123.356 55.1035 187.184c9.72266 48.9453 27.2461 133.724 -34.4834 156.565c-56.6289 20.9541 -112.256 -29.1416 -137.746 -74.4424c-15.5879 -27.7051 -26.2959 -61.1787 -19.377 -93.1064
c5.87207 -27.0918 26.2236 -52.6367 54.6416 -56.9346c22.8145 -3.45117 14.8408 -33.0537 -6.34766 -29.9404c-36.2949 5.33496 -66.3174 30.9287 -79.0781 65.2598c-14.2588 38.3711 -5.7207 80.7754 11.7305 116.581c29.5439 60.6143 88.4043 111.437 158.992 107.865
c30.873 -1.56348 63.7334 -12.3955 86.8613 -33.25c28.0869 -25.3252 39.0977 -62.6631 43.9121 -99.0605zM308.705 -84.5732c5.37305 -22.583 2.35645 -46.6016 5.0498 -69.6709c4.93164 -42.2568 -73.251 -49.834 -75.3037 -7.91504
c-1.39844 28.5 -1.64648 59.3799 13.5625 84.5117c13.6943 22.625 50.3955 19.5498 56.6914 -6.92578z" />
    <glyph glyph-name="at" unicode="@" horiz-adv-x="637" 
d="M584.158 371.464c8.55176 -64.6396 -0.916992 -131.101 -27.1475 -190.732c-27.6357 -62.8184 -85.5732 -137.584 -163.553 -110.53c-27.3535 9.48828 -50.5332 31.6855 -62.6289 58.085c-13.126 -14.8857 -27.5195 -28.3115 -43.8379 -39.1367
c-25.9727 -17.2275 -61.3232 -22.5312 -87.5059 -2.7959c-19.291 14.541 -26.9062 39.4805 -28.4082 62.667c-3.64062 56.2471 9.32617 113.523 33.6182 164.114c21.1475 44.0332 60.3037 107.685 118.748 96.9521c52.9951 -9.7334 55.4404 -82.8223 61.9463 -123.543
c0.0693359 -0.416992 0.0966797 -0.816406 0.12793 -1.21582c15.5361 -3.74414 30.2666 -18.6709 25.9268 -35.9502c-7.24609 -28.8486 -16.4863 -66.7754 -0.601562 -94.5186c2.10059 -3.67188 4.7832 -7.51855 7.71387 -10.2812
c2.59375 -2.44531 8.43164 -4.69434 9.33105 -5.95508c1.78027 1.90137 6.25098 3.33105 9.0957 5.64941c41.1133 33.498 62.7051 94.291 70.9639 144.769c7.89355 48.2627 4.45312 100.163 -11.7725 146.445c-8.79297 25.0908 -21.9775 45.7803 -39.1436 65.9014
c-15.127 17.7275 -38.5195 25.0703 -61.2061 27.3916c-53.8906 5.51758 -103.397 -20.5029 -144.648 -52.7539c-41.6162 -32.5371 -77.4561 -73.498 -104.844 -118.603c-54.5557 -89.8447 -83.7861 -215.805 -33.25 -313.85
c25.2939 -49.0723 70.7461 -80.8408 125.97 -85.5176c58.4648 -4.95312 113.998 19.8447 162.13 50.6562c17.5723 11.249 41.0791 -11.8721 21.1133 -24.708c-65.2461 -41.9434 -143.039 -70.7637 -221.05 -51.8789c-70.4502 17.0518 -120.339 73.7803 -139.688 142.223
c-35.4854 125.522 14.793 263.12 95.6963 359.994c41.1025 49.2168 92.9678 93.3018 153.145 116.918c61.1201 23.9854 123.663 20.0488 182.128 -9.04395c60.3662 -30.04 83.4248 -108.719 91.6318 -170.752zM338.92 267.079
c3.73047 5.89941 8.60742 10.5283 14.1934 13.7969c-0.254883 0.702148 -0.482422 1.42871 -0.633789 2.21387c-4.64258 23.8301 -6.16113 52.2891 -17.3408 74.2178c-11.3516 22.2627 -35.9121 4.92773 -46.6992 -9.01465
c-29.0205 -37.5107 -44.8672 -88.0225 -50.2783 -134.536c-2.47949 -21.3232 -3.45117 -45.7422 1.88379 -66.7139c0.46875 -1.83203 2.31445 -5.36914 3.51953 -8.30664c0.220703 0.155273 0.461914 0.279297 0.682617 0.43457
c3.74707 2.7207 7.13281 5.84473 10.4805 9.05078c35.0098 33.5459 58.5166 78.251 84.1924 118.857zM426.64 138.329c-1.97363 -0.275391 -1.33594 -2.33887 1.00977 0.0722656c-0.306641 -0.00683594 -0.606445 -0.0136719 -1.00977 -0.0722656zM428.063 138.429
c1.15039 -1.57715 2.4834 -0.0517578 0 0z" />
    <glyph glyph-name="A" unicode="A" horiz-adv-x="897" 
d="M158.41 274.077c-54.0283 1.71484 -142.058 7.1748 -168.216 -52.6816c-6.25781 -14.3213 -36.5254 -9.33789 -31.6689 7.72754c15.5088 54.5 74.4004 69.6094 124.472 74.4316c55.2344 5.31738 111.205 0.616211 166.422 -2.70703
c57.7725 -3.47559 115.511 -7.42969 173.308 -10.4775c13.7285 -0.723633 27.46 -1.38867 41.1953 -1.98145c15.0996 55.5264 30.9941 110.888 48.2051 165.798c15.7119 50.123 33.4043 100.287 59.7246 145.953c20.8027 36.0947 55.0547 93.998 104.998 83.0732
c21.998 -4.81152 40.9619 -24.915 54.6836 -41.7539c17.3242 -21.2607 28.4727 -46.0928 36.8145 -72.082c37.541 -116.946 41.374 -242.696 50.4014 -364.189c4.53906 -61.0684 8.22461 -122.157 11.7822 -183.291c3.65723 -62.8457 11.0723 -126.735 7.68652 -189.619
c-1.41602 -26.293 -35.7959 -40.5449 -57.5664 -40.3486c-25.0186 0.223633 -49.417 15.168 -53.1982 41.4336c-4.51855 31.3799 -3.83691 63.5137 -4.78418 95.1797c-0.954102 31.793 -1.9043 63.5898 -2.8584 95.3828c-1.9082 63.6445 -3.39258 127.251 -4.28418 190.916
c-0.200195 14.4824 -0.416992 28.958 -0.658203 43.4307c-74.7627 -5.10059 -149.729 -4.94922 -224.639 -2.33496c-4.33594 -16.6768 -8.64453 -33.3223 -12.9736 -49.8926c-14.0586 -53.7871 -27.3115 -107.785 -39.752 -161.972
c-12.3887 -53.9697 -20.6377 -109.854 -36.498 -162.874c-4.59473 -15.3643 -30.8672 -13.7451 -29.1895 3.68262c3.28613 34.1553 11.8037 67.9629 18.9404 101.499c7.16699 33.6973 14.6475 67.3291 22.4453 100.889c13.2217 56.9082 27.3906 113.592 42.3965 170.056
c-31.3105 1.38086 -62.6045 3.09961 -93.8633 4.98047c-67.7324 4.07422 -135.496 9.62305 -203.325 11.7725zM569.701 516.296c-29.1035 -74.0254 -50.9424 -151.725 -71.335 -229.201c72.0068 -2.39355 144.052 -2.33496 215.918 2.66211
c-1.76367 87.3057 -5.02539 174.45 -13.7393 261.478c-2.53516 25.3213 -4.17773 51.7139 -11.6855 76.1777c-3.23438 10.5283 -8.10449 22.9131 -20.0625 26.123c-10.1357 2.71777 -18.3672 -3.86426 -25.3281 -10.3877
c-34.7656 -32.5781 -56.6533 -83.3242 -73.7676 -126.852z" />
    <glyph glyph-name="A" unicode="&#xc5;" horiz-adv-x="897" 
d="M158.41 274.077c-54.0283 1.71484 -142.058 7.1748 -168.216 -52.6816c-6.25781 -14.3213 -36.5254 -9.33789 -31.6689 7.72754c15.5088 54.5 74.4004 69.6094 124.472 74.4316c55.2344 5.31738 111.205 0.616211 166.422 -2.70703
c57.7725 -3.47559 115.511 -7.42969 173.308 -10.4775c13.7285 -0.723633 27.46 -1.38867 41.1953 -1.98145c15.0996 55.5264 30.9941 110.888 48.2051 165.798c15.7119 50.123 33.4043 100.287 59.7246 145.953c20.8027 36.0947 55.0547 93.998 104.998 83.0732
c21.998 -4.81152 40.9619 -24.915 54.6836 -41.7539c17.3242 -21.2607 28.4727 -46.0928 36.8145 -72.082c37.541 -116.946 41.374 -242.696 50.4014 -364.189c4.53906 -61.0684 8.22461 -122.157 11.7822 -183.291c3.65723 -62.8457 11.0723 -126.735 7.68652 -189.619
c-1.41602 -26.293 -35.7959 -40.5449 -57.5664 -40.3486c-25.0186 0.223633 -49.417 15.168 -53.1982 41.4336c-4.51855 31.3799 -3.83691 63.5137 -4.78418 95.1797c-0.954102 31.793 -1.9043 63.5898 -2.8584 95.3828c-1.9082 63.6445 -3.39258 127.251 -4.28418 190.916
c-0.200195 14.4824 -0.416992 28.958 -0.658203 43.4307c-74.7627 -5.10059 -149.729 -4.94922 -224.639 -2.33496c-4.33594 -16.6768 -8.64453 -33.3223 -12.9736 -49.8926c-14.0586 -53.7871 -27.3115 -107.785 -39.752 -161.972
c-12.3887 -53.9697 -20.6377 -109.854 -36.498 -162.874c-4.59473 -15.3643 -30.8672 -13.7451 -29.1895 3.68262c3.28613 34.1553 11.8037 67.9629 18.9404 101.499c7.16699 33.6973 14.6475 67.3291 22.4453 100.889c13.2217 56.9082 27.3906 113.592 42.3965 170.056
c-31.3105 1.38086 -62.6045 3.09961 -93.8633 4.98047c-67.7324 4.07422 -135.496 9.62305 -203.325 11.7725zM569.701 516.296c-29.1035 -74.0254 -50.9424 -151.725 -71.335 -229.201c72.0068 -2.39355 144.052 -2.33496 215.918 2.66211
c-1.76367 87.3057 -5.02539 174.45 -13.7393 261.478c-2.53516 25.3213 -4.17773 51.7139 -11.6855 76.1777c-3.23438 10.5283 -8.10449 22.9131 -20.0625 26.123c-10.1357 2.71777 -18.3672 -3.86426 -25.3281 -10.3877
c-34.7656 -32.5781 -56.6533 -83.3242 -73.7676 -126.852z" />
    <glyph glyph-name="A" unicode="&#xc4;" horiz-adv-x="897" 
d="M158.41 274.077c-54.0283 1.71484 -142.058 7.1748 -168.216 -52.6816c-6.25781 -14.3213 -36.5254 -9.33789 -31.6689 7.72754c15.5088 54.5 74.4004 69.6094 124.472 74.4316c55.2344 5.31738 111.205 0.616211 166.422 -2.70703
c57.7725 -3.47559 115.511 -7.42969 173.308 -10.4775c13.7285 -0.723633 27.46 -1.38867 41.1953 -1.98145c15.0996 55.5264 30.9941 110.888 48.2051 165.798c15.7119 50.123 33.4043 100.287 59.7246 145.953c20.8027 36.0947 55.0547 93.998 104.998 83.0732
c21.998 -4.81152 40.9619 -24.915 54.6836 -41.7539c17.3242 -21.2607 28.4727 -46.0928 36.8145 -72.082c37.541 -116.946 41.374 -242.696 50.4014 -364.189c4.53906 -61.0684 8.22461 -122.157 11.7822 -183.291c3.65723 -62.8457 11.0723 -126.735 7.68652 -189.619
c-1.41602 -26.293 -35.7959 -40.5449 -57.5664 -40.3486c-25.0186 0.223633 -49.417 15.168 -53.1982 41.4336c-4.51855 31.3799 -3.83691 63.5137 -4.78418 95.1797c-0.954102 31.793 -1.9043 63.5898 -2.8584 95.3828c-1.9082 63.6445 -3.39258 127.251 -4.28418 190.916
c-0.200195 14.4824 -0.416992 28.958 -0.658203 43.4307c-74.7627 -5.10059 -149.729 -4.94922 -224.639 -2.33496c-4.33594 -16.6768 -8.64453 -33.3223 -12.9736 -49.8926c-14.0586 -53.7871 -27.3115 -107.785 -39.752 -161.972
c-12.3887 -53.9697 -20.6377 -109.854 -36.498 -162.874c-4.59473 -15.3643 -30.8672 -13.7451 -29.1895 3.68262c3.28613 34.1553 11.8037 67.9629 18.9404 101.499c7.16699 33.6973 14.6475 67.3291 22.4453 100.889c13.2217 56.9082 27.3906 113.592 42.3965 170.056
c-31.3105 1.38086 -62.6045 3.09961 -93.8633 4.98047c-67.7324 4.07422 -135.496 9.62305 -203.325 11.7725zM569.701 516.296c-29.1035 -74.0254 -50.9424 -151.725 -71.335 -229.201c72.0068 -2.39355 144.052 -2.33496 215.918 2.66211
c-1.76367 87.3057 -5.02539 174.45 -13.7393 261.478c-2.53516 25.3213 -4.17773 51.7139 -11.6855 76.1777c-3.23438 10.5283 -8.10449 22.9131 -20.0625 26.123c-10.1357 2.71777 -18.3672 -3.86426 -25.3281 -10.3877
c-34.7656 -32.5781 -56.6533 -83.3242 -73.7676 -126.852z" />
    <glyph glyph-name="A" unicode="&#xc3;" horiz-adv-x="897" 
d="M158.41 274.077c-54.0283 1.71484 -142.058 7.1748 -168.216 -52.6816c-6.25781 -14.3213 -36.5254 -9.33789 -31.6689 7.72754c15.5088 54.5 74.4004 69.6094 124.472 74.4316c55.2344 5.31738 111.205 0.616211 166.422 -2.70703
c57.7725 -3.47559 115.511 -7.42969 173.308 -10.4775c13.7285 -0.723633 27.46 -1.38867 41.1953 -1.98145c15.0996 55.5264 30.9941 110.888 48.2051 165.798c15.7119 50.123 33.4043 100.287 59.7246 145.953c20.8027 36.0947 55.0547 93.998 104.998 83.0732
c21.998 -4.81152 40.9619 -24.915 54.6836 -41.7539c17.3242 -21.2607 28.4727 -46.0928 36.8145 -72.082c37.541 -116.946 41.374 -242.696 50.4014 -364.189c4.53906 -61.0684 8.22461 -122.157 11.7822 -183.291c3.65723 -62.8457 11.0723 -126.735 7.68652 -189.619
c-1.41602 -26.293 -35.7959 -40.5449 -57.5664 -40.3486c-25.0186 0.223633 -49.417 15.168 -53.1982 41.4336c-4.51855 31.3799 -3.83691 63.5137 -4.78418 95.1797c-0.954102 31.793 -1.9043 63.5898 -2.8584 95.3828c-1.9082 63.6445 -3.39258 127.251 -4.28418 190.916
c-0.200195 14.4824 -0.416992 28.958 -0.658203 43.4307c-74.7627 -5.10059 -149.729 -4.94922 -224.639 -2.33496c-4.33594 -16.6768 -8.64453 -33.3223 -12.9736 -49.8926c-14.0586 -53.7871 -27.3115 -107.785 -39.752 -161.972
c-12.3887 -53.9697 -20.6377 -109.854 -36.498 -162.874c-4.59473 -15.3643 -30.8672 -13.7451 -29.1895 3.68262c3.28613 34.1553 11.8037 67.9629 18.9404 101.499c7.16699 33.6973 14.6475 67.3291 22.4453 100.889c13.2217 56.9082 27.3906 113.592 42.3965 170.056
c-31.3105 1.38086 -62.6045 3.09961 -93.8633 4.98047c-67.7324 4.07422 -135.496 9.62305 -203.325 11.7725zM569.701 516.296c-29.1035 -74.0254 -50.9424 -151.725 -71.335 -229.201c72.0068 -2.39355 144.052 -2.33496 215.918 2.66211
c-1.76367 87.3057 -5.02539 174.45 -13.7393 261.478c-2.53516 25.3213 -4.17773 51.7139 -11.6855 76.1777c-3.23438 10.5283 -8.10449 22.9131 -20.0625 26.123c-10.1357 2.71777 -18.3672 -3.86426 -25.3281 -10.3877
c-34.7656 -32.5781 -56.6533 -83.3242 -73.7676 -126.852z" />
    <glyph glyph-name="A" unicode="&#xc2;" horiz-adv-x="897" 
d="M158.41 274.077c-54.0283 1.71484 -142.058 7.1748 -168.216 -52.6816c-6.25781 -14.3213 -36.5254 -9.33789 -31.6689 7.72754c15.5088 54.5 74.4004 69.6094 124.472 74.4316c55.2344 5.31738 111.205 0.616211 166.422 -2.70703
c57.7725 -3.47559 115.511 -7.42969 173.308 -10.4775c13.7285 -0.723633 27.46 -1.38867 41.1953 -1.98145c15.0996 55.5264 30.9941 110.888 48.2051 165.798c15.7119 50.123 33.4043 100.287 59.7246 145.953c20.8027 36.0947 55.0547 93.998 104.998 83.0732
c21.998 -4.81152 40.9619 -24.915 54.6836 -41.7539c17.3242 -21.2607 28.4727 -46.0928 36.8145 -72.082c37.541 -116.946 41.374 -242.696 50.4014 -364.189c4.53906 -61.0684 8.22461 -122.157 11.7822 -183.291c3.65723 -62.8457 11.0723 -126.735 7.68652 -189.619
c-1.41602 -26.293 -35.7959 -40.5449 -57.5664 -40.3486c-25.0186 0.223633 -49.417 15.168 -53.1982 41.4336c-4.51855 31.3799 -3.83691 63.5137 -4.78418 95.1797c-0.954102 31.793 -1.9043 63.5898 -2.8584 95.3828c-1.9082 63.6445 -3.39258 127.251 -4.28418 190.916
c-0.200195 14.4824 -0.416992 28.958 -0.658203 43.4307c-74.7627 -5.10059 -149.729 -4.94922 -224.639 -2.33496c-4.33594 -16.6768 -8.64453 -33.3223 -12.9736 -49.8926c-14.0586 -53.7871 -27.3115 -107.785 -39.752 -161.972
c-12.3887 -53.9697 -20.6377 -109.854 -36.498 -162.874c-4.59473 -15.3643 -30.8672 -13.7451 -29.1895 3.68262c3.28613 34.1553 11.8037 67.9629 18.9404 101.499c7.16699 33.6973 14.6475 67.3291 22.4453 100.889c13.2217 56.9082 27.3906 113.592 42.3965 170.056
c-31.3105 1.38086 -62.6045 3.09961 -93.8633 4.98047c-67.7324 4.07422 -135.496 9.62305 -203.325 11.7725zM569.701 516.296c-29.1035 -74.0254 -50.9424 -151.725 -71.335 -229.201c72.0068 -2.39355 144.052 -2.33496 215.918 2.66211
c-1.76367 87.3057 -5.02539 174.45 -13.7393 261.478c-2.53516 25.3213 -4.17773 51.7139 -11.6855 76.1777c-3.23438 10.5283 -8.10449 22.9131 -20.0625 26.123c-10.1357 2.71777 -18.3672 -3.86426 -25.3281 -10.3877
c-34.7656 -32.5781 -56.6533 -83.3242 -73.7676 -126.852z" />
    <glyph glyph-name="A" unicode="&#xc1;" horiz-adv-x="897" 
d="M158.41 274.077c-54.0283 1.71484 -142.058 7.1748 -168.216 -52.6816c-6.25781 -14.3213 -36.5254 -9.33789 -31.6689 7.72754c15.5088 54.5 74.4004 69.6094 124.472 74.4316c55.2344 5.31738 111.205 0.616211 166.422 -2.70703
c57.7725 -3.47559 115.511 -7.42969 173.308 -10.4775c13.7285 -0.723633 27.46 -1.38867 41.1953 -1.98145c15.0996 55.5264 30.9941 110.888 48.2051 165.798c15.7119 50.123 33.4043 100.287 59.7246 145.953c20.8027 36.0947 55.0547 93.998 104.998 83.0732
c21.998 -4.81152 40.9619 -24.915 54.6836 -41.7539c17.3242 -21.2607 28.4727 -46.0928 36.8145 -72.082c37.541 -116.946 41.374 -242.696 50.4014 -364.189c4.53906 -61.0684 8.22461 -122.157 11.7822 -183.291c3.65723 -62.8457 11.0723 -126.735 7.68652 -189.619
c-1.41602 -26.293 -35.7959 -40.5449 -57.5664 -40.3486c-25.0186 0.223633 -49.417 15.168 -53.1982 41.4336c-4.51855 31.3799 -3.83691 63.5137 -4.78418 95.1797c-0.954102 31.793 -1.9043 63.5898 -2.8584 95.3828c-1.9082 63.6445 -3.39258 127.251 -4.28418 190.916
c-0.200195 14.4824 -0.416992 28.958 -0.658203 43.4307c-74.7627 -5.10059 -149.729 -4.94922 -224.639 -2.33496c-4.33594 -16.6768 -8.64453 -33.3223 -12.9736 -49.8926c-14.0586 -53.7871 -27.3115 -107.785 -39.752 -161.972
c-12.3887 -53.9697 -20.6377 -109.854 -36.498 -162.874c-4.59473 -15.3643 -30.8672 -13.7451 -29.1895 3.68262c3.28613 34.1553 11.8037 67.9629 18.9404 101.499c7.16699 33.6973 14.6475 67.3291 22.4453 100.889c13.2217 56.9082 27.3906 113.592 42.3965 170.056
c-31.3105 1.38086 -62.6045 3.09961 -93.8633 4.98047c-67.7324 4.07422 -135.496 9.62305 -203.325 11.7725zM569.701 516.296c-29.1035 -74.0254 -50.9424 -151.725 -71.335 -229.201c72.0068 -2.39355 144.052 -2.33496 215.918 2.66211
c-1.76367 87.3057 -5.02539 174.45 -13.7393 261.478c-2.53516 25.3213 -4.17773 51.7139 -11.6855 76.1777c-3.23438 10.5283 -8.10449 22.9131 -20.0625 26.123c-10.1357 2.71777 -18.3672 -3.86426 -25.3281 -10.3877
c-34.7656 -32.5781 -56.6533 -83.3242 -73.7676 -126.852z" />
    <glyph glyph-name="B" unicode="B" horiz-adv-x="507" 
d="M105.92 633.241c-4.25391 -62.085 -10.7002 -124.018 -13.7725 -186.182c-3.11035 -62.9727 -3.89551 -126.118 -3.47852 -189.16c0.0830078 -12.1377 0.261719 -24.2822 0.489258 -36.4229c14.8096 75.0449 34.4727 149.136 61.1963 220.854
c13.8281 37.1104 28.752 74.3174 48.5869 108.687c17.335 30.0332 39.7979 62.7842 70.3613 80.6562c26.248 15.3506 60.71 16.9697 81.2852 -8.58984c19.8311 -24.6357 22.7686 -64.0439 20.1025 -94.0215c-4.08105 -45.9551 -22.9414 -92.8887 -51.2314 -132.018
c49.9922 -23.8994 90.1816 -70.626 108.938 -122.333c48.377 -133.365 15.3477 -334.253 -137.032 -384.3c-68.1602 -22.3867 -157.829 4.71191 -166.977 85.4082c-7.13965 62.9873 37.3623 143.611 103.222 154.337c22.1562 3.60645 24.4326 -25.4658 3.11328 -29.6162
c-28.5625 -5.55859 -46.3516 -35.626 -55.3135 -60.8887c-5.5 -15.5088 -10.3594 -34.0176 -6.35742 -50.3672c3.64355 -14.8857 10.8525 -21.168 23.4512 -28.5762c38.9844 -22.9248 77.2939 0.595703 104.189 32.3203c5.28711 6.23438 12.0312 17.2109 17.8896 27.123
c6.20312 10.4941 11.7383 21.5225 16.126 32.9023c7.00879 18.1719 12.6748 46.1484 14.9375 68.9971c2.04883 20.6924 1.01562 45.8691 -2.05273 69.334c-3.41309 26.083 -9.63672 49.5273 -21.5879 73.2891c-10.2227 20.3242 -23.9404 36.0088 -41.3369 47.5156
c-10.291 6.80566 -15.416 9.6123 -29.499 12.9258c7.04297 -1.65625 -8.35938 0.709961 -10.3779 0.854492c-1.46387 0.103516 -2.93066 0.186523 -4.39746 0.245117c-0.250977 -0.0927734 -4.49121 -0.241211 -5.37598 -0.299805
c-20.2207 -1.29883 -43.207 6.47852 -51.9453 26.3613c-7.89062 17.9609 0.699219 41.6328 18.0918 50.8525c29.375 15.5742 51.0801 36.0879 71.8311 62.5322c21.4883 27.3848 44.5645 56.8359 54.4219 90.8027c4.11621 14.1826 8.16309 30.208 0.516602 43.8887
c-7.87695 14.0938 -20.6582 14.3828 -33.9561 7.12598c-26.6367 -14.5381 -45.9004 -45.3838 -60.5107 -70.9287c-33.1875 -58.041 -55.499 -123.308 -74.3037 -187.214c-19.6006 -66.6133 -34.0312 -134.663 -45.1426 -203.175
c-5.44531 -33.5732 -10.0781 -67.2773 -14.1455 -101.047c1.16797 -24.832 2.15332 -49.668 2.35645 -74.5352c0.220703 -26.8545 4.92578 -68.9941 -15.0918 -90.0518c-8.44141 -8.88281 -22.0488 -9.30957 -32.1299 -3.37891
c-26.5576 15.6191 -33.501 63.5068 -39.7725 91.0742c-7.01953 30.8457 -11.9033 62.0361 -15.8916 93.3955c-8.09766 63.6689 -12.1787 127.6 -14.2656 191.736c-2.08398 64.1133 -1.02344 128.247 2.08008 192.315c3.25098 67.1924 7.36328 134.329 18.374 200.739
c4.61133 27.8047 37.0273 40.376 61.6846 38.1885c27.6699 -2.45605 44.5049 -25.0117 42.7002 -51.3564z" />
    <glyph glyph-name="C" unicode="C" horiz-adv-x="347" 
d="M244.417 384.526c-9.21289 -16.4395 -41.8662 -7.00879 -31.6582 11.7891c23.9297 44.0615 36.7734 94.877 32.1963 145.183c-1.71191 18.791 -5.98926 40.6855 -21.1777 53.5215c-14.6553 12.3848 -32.6445 7.33887 -46.0117 -4.08496
c-27.0195 -23.0898 -43.9961 -58.916 -58.5508 -90.585c-16.5391 -35.9912 -26.9785 -74.2217 -34.1768 -113.472c-15.7842 -86.0459 -18.7637 -174.188 -7.53906 -260.95c5.21777 -40.335 13.084 -82.7637 29.6367 -120.119
c15.6367 -35.2891 41.1338 -72.1621 85.0332 -58.4092c38.0752 11.9268 66.8027 47.6699 87.0645 80.2549c22.4385 36.085 38.1406 75.5859 51.8789 115.648c4.96973 14.4893 33.2949 12.3369 28.2393 -3.56152c-28.5107 -89.6484 -83.5693 -227.846 -198.494 -223.417
c-50.0088 1.9248 -96.6113 25.9756 -124.371 68.3047c-31.1455 47.4951 -47.457 103.887 -56.167 159.679c-8.86523 56.8076 -8.84473 115.562 -4.34668 172.762c4.01562 51.0527 11.3828 102.398 26.6504 151.398c15.6367 50.1846 39.2119 98.916 78.2344 135.207
c37.9717 35.3164 93.7461 60.6689 144.81 36.9561c93.7432 -43.5303 57.6143 -186.749 18.75 -256.104z" />
    <glyph glyph-name="D" unicode="D" horiz-adv-x="491" 
d="M92.582 471.042c-2.47266 -55.916 -1.88867 -111.884 -0.0117188 -167.824c9.0166 67.0439 21.5537 133.968 39.1328 198.997c17.1172 63.3213 40.3691 141.107 94.876 182.713c24.7148 18.8633 56.7803 25.6104 85.1221 10.8457
c26.1553 -13.625 43.5928 -41.4189 56.9766 -66.7959c36.043 -68.3389 52.1133 -149.4 59.4766 -225.695c7.55957 -78.3311 7.75293 -159.469 -5.12109 -237.297c-11.8066 -71.3799 -33.1885 -147.898 -77.8906 -206.05
c-42.2256 -54.9307 -131.398 -84.4199 -187.659 -32.1689c-46.4619 43.1484 -38.1133 123.869 -17.2764 176.972c11.4004 29.0547 29.5303 60.2764 59.7939 72.7236c24.9219 10.2529 56.708 5.78613 73.1709 -16.9209c12.375 -17.0693 -17.0449 -32.8848 -28.1182 -17.8574
c-23.6885 32.1406 -54.8203 -12.8301 -64.4121 -33.5713c-12.8877 -27.8633 -21.2705 -62.1221 -16.5518 -92.8545c3.77832 -24.5986 15.7637 -48.1709 43.0586 -48.6914c11.583 -0.220703 16.9902 2.62109 28.6797 7.0332
c3.17871 1.20215 0.499023 -0.333984 5.2832 2.41113c2.09082 1.20215 4.13965 2.52832 6.10645 3.91992c3.64746 2.58008 8.61035 7.45703 12.8291 11.8281c35.6123 36.9111 52.5469 92.5137 64.4219 141.779c14.0938 58.4814 21.0684 118.834 23.459 178.873
c2.59375 65.1494 1.58789 130.812 -3.77148 195.817c-2.55566 30.9971 -5.85547 62.208 -13.3496 92.4512c-6.00684 24.2266 -14.7344 51.418 -37.583 64.9463c-24.5361 14.5273 -49.2207 -8.95117 -63.6279 -27.4502
c-17.2764 -22.1807 -28.9971 -49.3066 -39.1572 -75.3105c-23.1377 -59.2188 -36.1084 -122.364 -47.5742 -184.718c-11.917 -64.8057 -20.5723 -130.245 -26.3857 -195.881c-2.66211 -30.0508 -4.60449 -60.1592 -5.84473 -90.2988
c1.85645 -14.7822 3.7373 -29.5615 5.29785 -44.3779c1.38086 -13.0947 2.94141 -26.2617 3.91309 -39.3877c0.981445 -13.2842 -0.137695 -26.5957 0.579102 -39.8389c4.9668 -17.7129 -9.44043 -35.5127 -29.4648 -37.0596
c-38.7812 -2.99609 -53.6123 31.6455 -63.3623 63.0527c-9.68164 31.1797 -17.1484 62.6426 -23.4824 94.6494c-12.0098 60.6826 -18.7842 122.292 -22.9756 183.983c-4.19531 61.7129 -3.90625 123.494 -0.786133 185.255c3.22754 63.8828 8.63184 127.541 22.0781 190.166
c12.1992 56.8223 109.459 47.7061 103.907 -13.1045c-5.02148 -55.0098 -11.3174 -110.058 -13.7559 -165.264z" />
    <glyph glyph-name="E" unicode="E" horiz-adv-x="435" 
d="M202.003 623.388c-3.99219 -79.7051 -17.4424 -158.732 -26.3594 -238.021c-2.91699 -25.9453 -5.29688 -51.8594 -7.22949 -77.7803c26.124 5.82422 52.6953 9.83008 79.5391 11.8135c21.7256 1.60547 24.877 -27.6592 3.06836 -29.2061
c-28.7002 -2.03223 -56.9873 -6.44434 -84.6572 -13.0811c-1.99805 -32.5195 -3.3584 -65.0879 -4.20605 -97.7969c-0.899414 -34.7344 -0.299805 -69.5342 2.84082 -104.148c2.78613 -30.7148 5.25879 -62.2871 15.2402 -91.6621
c9.02734 -26.5645 22.1465 -50.2021 44.9053 -67.4502c24.7432 -18.75 52.4756 -11.9717 77.6182 2.71094c54.2285 31.666 91.9141 91.9082 113.195 149.57c5.2666 14.2695 33.6016 12.2373 28.2393 -3.56152c-23.5273 -69.3105 -67.7402 -143.212 -135.556 -176.851
c-61.7852 -30.6465 -133.861 -17.373 -177.774 36.3076c-47.9736 58.6436 -59.4189 144.93 -66.1904 217.901c-2.99316 32.2344 -4.03711 64.6855 -3.8584 97.1777c-19.415 -9.45117 -38.3066 -20.1318 -56.5645 -32.0381
c-16.1016 -10.501 -37.6895 10.749 -19.4316 22.7383c24.4463 16.0537 50.0605 30.085 76.5703 42.0225c1.12305 39.04 3.68164 78.0557 6.5332 116.754c4.84277 65.7246 10.7217 132.662 22.583 197.854c-35.4609 -13.0811 -70.6289 -26.9883 -105.904 -40.6758
c-18.4336 -8.59277 -31.4902 17.5137 -11.7617 26.458c40.8447 18.5195 82.5947 35.4062 124.976 50.4639c0.444336 2.00488 0.864258 4.01953 1.32227 6.02051c5.56934 24.3369 30.1641 37.7656 53.584 37.5557c11.5762 -0.103516 27.0986 -5.06348 37.6719 -14.1045
c2.91406 0.819336 5.81055 1.69434 8.72754 2.49316c38.6436 10.5801 77.9033 19.3936 117.521 25.4385c37.4971 5.7207 75.2969 7.27051 111.599 -5.32812c22.7275 -7.88672 4.16309 -35.8848 -15.7236 -28.9375c-36.1777 12.6367 -74.7217 6.54102 -111.557 0.121094
c-33.377 -5.81738 -66.3516 -13.6045 -98.9609 -22.7588z" />
    <glyph glyph-name="E" unicode="&#xcb;" horiz-adv-x="435" 
d="M202.003 623.388c-3.99219 -79.7051 -17.4424 -158.732 -26.3594 -238.021c-2.91699 -25.9453 -5.29688 -51.8594 -7.22949 -77.7803c26.124 5.82422 52.6953 9.83008 79.5391 11.8135c21.7256 1.60547 24.877 -27.6592 3.06836 -29.2061
c-28.7002 -2.03223 -56.9873 -6.44434 -84.6572 -13.0811c-1.99805 -32.5195 -3.3584 -65.0879 -4.20605 -97.7969c-0.899414 -34.7344 -0.299805 -69.5342 2.84082 -104.148c2.78613 -30.7148 5.25879 -62.2871 15.2402 -91.6621
c9.02734 -26.5645 22.1465 -50.2021 44.9053 -67.4502c24.7432 -18.75 52.4756 -11.9717 77.6182 2.71094c54.2285 31.666 91.9141 91.9082 113.195 149.57c5.2666 14.2695 33.6016 12.2373 28.2393 -3.56152c-23.5273 -69.3105 -67.7402 -143.212 -135.556 -176.851
c-61.7852 -30.6465 -133.861 -17.373 -177.774 36.3076c-47.9736 58.6436 -59.4189 144.93 -66.1904 217.901c-2.99316 32.2344 -4.03711 64.6855 -3.8584 97.1777c-19.415 -9.45117 -38.3066 -20.1318 -56.5645 -32.0381
c-16.1016 -10.501 -37.6895 10.749 -19.4316 22.7383c24.4463 16.0537 50.0605 30.085 76.5703 42.0225c1.12305 39.04 3.68164 78.0557 6.5332 116.754c4.84277 65.7246 10.7217 132.662 22.583 197.854c-35.4609 -13.0811 -70.6289 -26.9883 -105.904 -40.6758
c-18.4336 -8.59277 -31.4902 17.5137 -11.7617 26.458c40.8447 18.5195 82.5947 35.4062 124.976 50.4639c0.444336 2.00488 0.864258 4.01953 1.32227 6.02051c5.56934 24.3369 30.1641 37.7656 53.584 37.5557c11.5762 -0.103516 27.0986 -5.06348 37.6719 -14.1045
c2.91406 0.819336 5.81055 1.69434 8.72754 2.49316c38.6436 10.5801 77.9033 19.3936 117.521 25.4385c37.4971 5.7207 75.2969 7.27051 111.599 -5.32812c22.7275 -7.88672 4.16309 -35.8848 -15.7236 -28.9375c-36.1777 12.6367 -74.7217 6.54102 -111.557 0.121094
c-33.377 -5.81738 -66.3516 -13.6045 -98.9609 -22.7588z" />
    <glyph glyph-name="E" unicode="&#xca;" horiz-adv-x="435" 
d="M202.003 623.388c-3.99219 -79.7051 -17.4424 -158.732 -26.3594 -238.021c-2.91699 -25.9453 -5.29688 -51.8594 -7.22949 -77.7803c26.124 5.82422 52.6953 9.83008 79.5391 11.8135c21.7256 1.60547 24.877 -27.6592 3.06836 -29.2061
c-28.7002 -2.03223 -56.9873 -6.44434 -84.6572 -13.0811c-1.99805 -32.5195 -3.3584 -65.0879 -4.20605 -97.7969c-0.899414 -34.7344 -0.299805 -69.5342 2.84082 -104.148c2.78613 -30.7148 5.25879 -62.2871 15.2402 -91.6621
c9.02734 -26.5645 22.1465 -50.2021 44.9053 -67.4502c24.7432 -18.75 52.4756 -11.9717 77.6182 2.71094c54.2285 31.666 91.9141 91.9082 113.195 149.57c5.2666 14.2695 33.6016 12.2373 28.2393 -3.56152c-23.5273 -69.3105 -67.7402 -143.212 -135.556 -176.851
c-61.7852 -30.6465 -133.861 -17.373 -177.774 36.3076c-47.9736 58.6436 -59.4189 144.93 -66.1904 217.901c-2.99316 32.2344 -4.03711 64.6855 -3.8584 97.1777c-19.415 -9.45117 -38.3066 -20.1318 -56.5645 -32.0381
c-16.1016 -10.501 -37.6895 10.749 -19.4316 22.7383c24.4463 16.0537 50.0605 30.085 76.5703 42.0225c1.12305 39.04 3.68164 78.0557 6.5332 116.754c4.84277 65.7246 10.7217 132.662 22.583 197.854c-35.4609 -13.0811 -70.6289 -26.9883 -105.904 -40.6758
c-18.4336 -8.59277 -31.4902 17.5137 -11.7617 26.458c40.8447 18.5195 82.5947 35.4062 124.976 50.4639c0.444336 2.00488 0.864258 4.01953 1.32227 6.02051c5.56934 24.3369 30.1641 37.7656 53.584 37.5557c11.5762 -0.103516 27.0986 -5.06348 37.6719 -14.1045
c2.91406 0.819336 5.81055 1.69434 8.72754 2.49316c38.6436 10.5801 77.9033 19.3936 117.521 25.4385c37.4971 5.7207 75.2969 7.27051 111.599 -5.32812c22.7275 -7.88672 4.16309 -35.8848 -15.7236 -28.9375c-36.1777 12.6367 -74.7217 6.54102 -111.557 0.121094
c-33.377 -5.81738 -66.3516 -13.6045 -98.9609 -22.7588z" />
    <glyph glyph-name="E" unicode="&#xc9;" horiz-adv-x="435" 
d="M202.003 623.388c-3.99219 -79.7051 -17.4424 -158.732 -26.3594 -238.021c-2.91699 -25.9453 -5.29688 -51.8594 -7.22949 -77.7803c26.124 5.82422 52.6953 9.83008 79.5391 11.8135c21.7256 1.60547 24.877 -27.6592 3.06836 -29.2061
c-28.7002 -2.03223 -56.9873 -6.44434 -84.6572 -13.0811c-1.99805 -32.5195 -3.3584 -65.0879 -4.20605 -97.7969c-0.899414 -34.7344 -0.299805 -69.5342 2.84082 -104.148c2.78613 -30.7148 5.25879 -62.2871 15.2402 -91.6621
c9.02734 -26.5645 22.1465 -50.2021 44.9053 -67.4502c24.7432 -18.75 52.4756 -11.9717 77.6182 2.71094c54.2285 31.666 91.9141 91.9082 113.195 149.57c5.2666 14.2695 33.6016 12.2373 28.2393 -3.56152c-23.5273 -69.3105 -67.7402 -143.212 -135.556 -176.851
c-61.7852 -30.6465 -133.861 -17.373 -177.774 36.3076c-47.9736 58.6436 -59.4189 144.93 -66.1904 217.901c-2.99316 32.2344 -4.03711 64.6855 -3.8584 97.1777c-19.415 -9.45117 -38.3066 -20.1318 -56.5645 -32.0381
c-16.1016 -10.501 -37.6895 10.749 -19.4316 22.7383c24.4463 16.0537 50.0605 30.085 76.5703 42.0225c1.12305 39.04 3.68164 78.0557 6.5332 116.754c4.84277 65.7246 10.7217 132.662 22.583 197.854c-35.4609 -13.0811 -70.6289 -26.9883 -105.904 -40.6758
c-18.4336 -8.59277 -31.4902 17.5137 -11.7617 26.458c40.8447 18.5195 82.5947 35.4062 124.976 50.4639c0.444336 2.00488 0.864258 4.01953 1.32227 6.02051c5.56934 24.3369 30.1641 37.7656 53.584 37.5557c11.5762 -0.103516 27.0986 -5.06348 37.6719 -14.1045
c2.91406 0.819336 5.81055 1.69434 8.72754 2.49316c38.6436 10.5801 77.9033 19.3936 117.521 25.4385c37.4971 5.7207 75.2969 7.27051 111.599 -5.32812c22.7275 -7.88672 4.16309 -35.8848 -15.7236 -28.9375c-36.1777 12.6367 -74.7217 6.54102 -111.557 0.121094
c-33.377 -5.81738 -66.3516 -13.6045 -98.9609 -22.7588z" />
    <glyph glyph-name="F" unicode="F" horiz-adv-x="435" 
d="M-35.1992 538.472c18.1133 22.3975 46.502 38.6094 70.9209 53.1641c42.79 25.5107 88.2666 46.6924 134.849 64.5879c1.0918 6.75781 2.18359 13.5117 3.35449 20.248c4.14648 23.8408 30.1055 36.2881 51.8418 36.3359
c15.1162 0.0341797 36.3252 -8.51465 44.4883 -23.5068c40.4932 11.1553 81.9199 19.335 123.58 21.7422c51.501 2.97559 129.783 3.25781 143.753 -59.9111c5.5 -24.8809 -38.0342 -30.8701 -47.3613 -10.5527c-8.45215 18.416 -26.7168 23.4482 -45.4326 25.1602
c-22.8379 2.09082 -45.9443 1.10547 -68.7451 -1.03711c-35.0479 -3.2959 -69.4932 -10.3906 -103.401 -19.5869c-3.47852 -92.5791 -10.1846 -184.917 -13.584 -277.455c23.5303 3.70215 47.5742 5.57617 72.3789 4.97363
c22.1562 -0.537109 14.0625 -29.2441 -6.08887 -28.7139c-22.9248 0.602539 -45.2773 -1.33301 -67.2373 -5.03223c-0.775391 -27.2812 -1.21582 -54.583 -1.12598 -81.9189c0.230469 -70.5127 4.4707 -140.701 9.45801 -211.011
c2.33887 -32.957 5.46973 -65.8594 8.07715 -98.792c2.47949 -31.3311 10.5254 -72.2754 -11.8613 -97.6035c-6.23047 -7.04688 -17.5791 -8.60059 -26.0625 -5.66309c-34.9062 12.0859 -46.2861 54.7793 -54.8555 87.0791
c-9.09277 34.2871 -15.1133 68.8701 -20.2412 103.952c-10.1641 69.5166 -13.584 140.222 -15.1992 210.407c-0.475586 20.5791 -0.726562 41.2129 -0.77832 61.8779c-24.3574 -8.77246 -48.5908 -18.1475 -72.9648 -26.9785
c-17.4512 -6.32324 -29.1543 16.7012 -10.7383 24.1514c28.0664 11.3555 55.8398 22.6455 83.7891 32.6885c0.733398 90.6982 6.0166 181.817 17.9717 271.583c-19.1562 -7.61133 -38.0996 -15.7637 -56.7568 -24.5225
c-20.8721 -9.79492 -41.8164 -19.5625 -62.127 -30.4844c-8.94434 -4.80762 -17.7783 -9.85645 -26.3125 -15.3672c-5.09082 -3.28906 -10.1025 -6.71289 -14.9521 -10.3496c-2.43164 -1.79785 -4.81152 -3.66504 -7.13965 -5.59375
c-0.651367 -0.836914 -1.25391 -1.38477 -1.81152 -1.68457c1.75 -5.41406 -0.499023 -11.4961 -9.06152 -14.5166c-22.6279 -7.98047 -34.1758 15.5703 -20.623 32.3301z" />
    <glyph glyph-name="G" unicode="G" horiz-adv-x="537" 
d="M-26.7705 295.214c4.9834 52.4199 18.3936 102.809 37.2881 151.874c32.7402 85.0605 91.9209 169.918 178.094 207.06c52.7783 22.749 118.407 17.3379 158.786 -26.5059c34.6758 -37.6484 41.1855 -92.6104 42.9902 -141.562
c2.14941 -58.3301 -92.3174 -67.585 -103.242 -10.8525c-4.26367 22.1387 -3.47852 45.3252 -9.26465 67.1855c-1.60547 6.06543 -5.69043 17.0244 -10.1055 23.9541c-0.709961 1.1123 -5.91797 7.22559 -8.65234 9.03027
c-3.60645 2.37988 -3.07617 2.96582 -5.87305 3.23828c-0.50293 -0.0761719 -8.88281 0.0927734 -4.0127 -0.0556641c5.40039 -0.165039 -5.61719 -1.37012 -8.60645 -1.33887c-3.42676 -1.21875 -10.9766 -3.55371 -9.84668 -3.11328
c-6.27539 -2.45215 -12.3545 -6.34082 -19.9316 -11.4385c-4.15723 -2.79688 -8.23828 -5.74805 -12.2021 -8.82324c0.361328 0.12793 -8.83496 -7.61133 -8.16699 -7.00195c-48.873 -44.5566 -79.6191 -106.358 -98.0664 -169.556
c-21.3818 -73.25 -35.2959 -158.593 -18.082 -234.227c6.4541 -28.3623 20.3789 -58.0059 46.9883 -72.5127c31.5312 -17.1895 60.0732 9.94336 78.7266 33.6426c44.9805 57.1562 72.5342 132.229 89.2656 203.127c-0.306641 2.7207 -0.606445 5.44141 -0.913086 8.16602
c-6.74023 59.5498 96.2676 69.4795 106.132 11.1562c12.6816 -74.9756 17.1973 -153.22 13.7871 -230.479c7.81445 4.0127 15.6055 8.07031 23.334 12.2549c22.8594 12.3779 45.4463 25.3037 67.5127 39.0498c18.9639 11.8135 37.8926 24.3086 50.9287 42.8799
c8.8584 12.623 36.3672 4.87012 26.4033 -9.8291c-24.9326 -36.7803 -66.4141 -58.8467 -103.911 -80.7891c-21.7461 -12.7227 -43.8643 -24.7148 -66.1719 -36.3525c-2.08691 -28.332 -5.23828 -56.4541 -9.48535 -84.1387
c-7.38379 -48.1533 -20.9678 -98.5654 -45.5312 -141.019c-10.8975 -18.833 -25.4521 -34.6758 -40.1309 -50.4844c-12.7266 -13.7041 -26.1377 -25.793 -43.1211 -33.9385c-38.0684 -18.2578 -82.6699 -10.8496 -115.496 15.0088
c-33.584 26.4551 -41.0195 63.7764 -27.625 103.529c27.9424 82.9316 104.603 134.332 178.955 172.163c0.688477 0.351562 1.38379 0.692383 2.07227 1.04395c0.313477 62.9492 -3.42676 125.375 -9.15137 187.776c-8.2041 -23.2822 -17.627 -46.1377 -28.4102 -68.3799
c-19.8867 -41.0195 -43.4102 -89.2275 -82.3154 -115.562c-32.9326 -22.291 -77.293 -26.8027 -114.259 -12.7646c-45.6865 17.3486 -76.9668 57.0908 -90.0234 103.194c-14.3623 50.7051 -13.6221 103.263 -8.66602 155.39zM297.84 -136.779
c2.63086 18.5537 3.5166 37.3604 5.13574 56.0176c2.66602 30.8389 2.95508 61.8223 3.01367 92.7783c-55.1719 -29.6992 -108.26 -65.6318 -137.601 -122.533c-18.8018 -36.4561 -24.6641 -76.7939 13.4941 -102.336c32.6748 -21.874 74.4971 -16.6494 98.9229 15.1885
c12.5986 16.4248 14.2139 40.9883 17.0342 60.8848z" />
    <glyph glyph-name="H" unicode="H" horiz-adv-x="702" 
d="M-42.3262 299.622c14.3418 42.6357 55.5264 62.5928 98.2412 65.9814c49.71 3.92969 101.293 -4.10254 151.15 -6.48633c0.723633 42.3047 1.73242 84.6025 3.08301 126.894c2.15918 67.6094 4.72168 136.269 17.3203 202.834
c9.06152 47.8838 98.0137 50.9453 101.664 -1c4.50488 -64.0889 0.836914 -128.78 -1.87012 -192.914c-1.94922 -46.1514 -3.5127 -92.3174 -4.71484 -138.493c64.9668 -0.313477 129.934 1.3877 194.814 5.00098c-1.17773 109.477 1.54004 220.079 19.3184 327.644
c4.13672 25.0283 32.0244 38.6357 54.8281 38.4287c21.1436 -0.189453 50.4365 -14.4033 50.667 -39.4629c1.1748 -128.354 -8.14551 -256.559 -7.30469 -385.009c0.423828 -64.957 3.14453 -129.804 5.16602 -194.716c0.988281 -31.71 2.46191 -63.3721 3.05078 -95.0889
c0.299805 -16.1426 1.6709 -32.21 0.583008 -48.3428c-0.943359 -14.0039 -4.06055 -26.0205 -6.84375 -39.5283c-5.54199 -26.9229 -41.0996 -28.2656 -58.0068 -12.6875c-13.4395 12.3818 -23.6826 24.6426 -30.2881 42.2148
c-5.62793 14.9648 -7.55371 31.624 -9.99609 47.3496c-4.85938 31.2803 -7.76953 62.7734 -10.6211 94.2939c-5.84082 64.5439 -7.96582 129.501 -9.36426 194.275c-0.286133 13.2979 -0.541016 26.6338 -0.761719 39.9873
c-65.2598 -3.62012 -130.609 -5.31445 -195.966 -5.0459c-0.158203 -7.13672 -0.34375 -14.2695 -0.485352 -21.4062c-1.29199 -64.709 -2.36621 -129.511 -4.57422 -194.188c-1.1123 -32.6611 -1.19531 -65.4082 -2.7793 -98.0352
c-1.42285 -29.3027 1.63867 -63.0215 -12.1377 -89.8896c-10.0674 -19.6318 -38.7881 -20.166 -52.9609 -5.56641c-22.9688 23.665 -28.2793 65.085 -32.8115 96.417c-4.3916 30.3633 -5.66895 61.7461 -6.99121 92.3926c-2.73145 63.2695 -3.50977 126.839 -2.89648 190.16
c0.103516 10.9004 0.258789 21.8047 0.407227 32.7051c-36.415 1.55371 -72.7822 3.74414 -109.177 6.04102c-40.2656 2.54492 -89.7617 0.444336 -108.074 -42.4873c-6.15137 -14.4209 -37.2832 -8.95801 -31.6689 7.72852z" />
    <glyph glyph-name="I" unicode="I" horiz-adv-x="196" 
d="M175.192 709.02c21.6221 0.588867 24.9727 -28.6113 3.06738 -29.2139c-16.1533 -0.44043 -32.3066 -0.87793 -48.46 -1.31836c3.55078 -61.0273 0.189453 -122.551 -2.38672 -183.571c-2.67969 -63.5039 -4.65625 -127.035 -5.92383 -190.583
c-1.29199 -64.709 -2.36621 -129.511 -4.57422 -194.188c-1.1123 -32.6611 -1.19531 -65.4082 -2.7793 -98.0352c-0.8125 -16.7871 -0.167969 -35.0205 -2.04883 -52.5889c13.5146 -0.220703 27.0088 -1.25781 40.3994 -3.39355
c23.0762 -3.68164 15.0273 -33.7695 -6.43359 -30.3457c-13.7217 2.1875 -27.3809 3.11719 -41.0645 3.09277c-0.90625 -2.25293 -1.87402 -4.48438 -2.98633 -6.6543c-10.0674 -19.6318 -38.7881 -20.166 -52.9609 -5.56641
c-2.02832 2.09082 -3.87109 4.36035 -5.63477 6.70605c-2.68945 -0.392578 -5.38281 -0.757812 -8.06543 -1.16406c-6.41602 -0.97168 -12.8223 -2.02539 -19.2217 -3.10645c0.561523 0.0966797 -14.1104 -2.36621 -13.1182 -1.24707
c-12.0957 -13.6807 -38.585 1.02246 -25.3525 17.3379c8.11426 10.0049 23.6787 10.4385 35.4268 12.8975c5.32129 1.11621 10.6562 2.19727 15.9951 3.24805c-7.04688 20.1729 -10.1016 42.7979 -12.8428 61.751c-4.3916 30.3633 -5.66895 61.7461 -6.99121 92.3926
c-2.73438 63.2695 -3.50977 126.839 -2.89648 190.16c0.613281 63.4688 1.93262 126.928 3.96094 190.366c2.02832 63.4141 4.4082 127.758 15.0918 190.425c-10.6699 0.658203 -23.3477 1.1748 -29.4062 -5.10352c-11.9961 -12.4336 -37.5586 1.35352 -24.2402 16.5771
c14.6689 16.7627 40.3311 18.2266 63.7617 18.0918c19.8691 25.1699 68.6348 26.9336 86.8613 1.59473c17.6064 0.482422 35.2168 0.960938 52.8232 1.43945z" />
    <glyph glyph-name="I" unicode="&#xcf;" horiz-adv-x="196" 
d="M175.192 709.02c21.6221 0.588867 24.9727 -28.6113 3.06738 -29.2139c-16.1533 -0.44043 -32.3066 -0.87793 -48.46 -1.31836c3.55078 -61.0273 0.189453 -122.551 -2.38672 -183.571c-2.67969 -63.5039 -4.65625 -127.035 -5.92383 -190.583
c-1.29199 -64.709 -2.36621 -129.511 -4.57422 -194.188c-1.1123 -32.6611 -1.19531 -65.4082 -2.7793 -98.0352c-0.8125 -16.7871 -0.167969 -35.0205 -2.04883 -52.5889c13.5146 -0.220703 27.0088 -1.25781 40.3994 -3.39355
c23.0762 -3.68164 15.0273 -33.7695 -6.43359 -30.3457c-13.7217 2.1875 -27.3809 3.11719 -41.0645 3.09277c-0.90625 -2.25293 -1.87402 -4.48438 -2.98633 -6.6543c-10.0674 -19.6318 -38.7881 -20.166 -52.9609 -5.56641
c-2.02832 2.09082 -3.87109 4.36035 -5.63477 6.70605c-2.68945 -0.392578 -5.38281 -0.757812 -8.06543 -1.16406c-6.41602 -0.97168 -12.8223 -2.02539 -19.2217 -3.10645c0.561523 0.0966797 -14.1104 -2.36621 -13.1182 -1.24707
c-12.0957 -13.6807 -38.585 1.02246 -25.3525 17.3379c8.11426 10.0049 23.6787 10.4385 35.4268 12.8975c5.32129 1.11621 10.6562 2.19727 15.9951 3.24805c-7.04688 20.1729 -10.1016 42.7979 -12.8428 61.751c-4.3916 30.3633 -5.66895 61.7461 -6.99121 92.3926
c-2.73438 63.2695 -3.50977 126.839 -2.89648 190.16c0.613281 63.4688 1.93262 126.928 3.96094 190.366c2.02832 63.4141 4.4082 127.758 15.0918 190.425c-10.6699 0.658203 -23.3477 1.1748 -29.4062 -5.10352c-11.9961 -12.4336 -37.5586 1.35352 -24.2402 16.5771
c14.6689 16.7627 40.3311 18.2266 63.7617 18.0918c19.8691 25.1699 68.6348 26.9336 86.8613 1.59473c17.6064 0.482422 35.2168 0.960938 52.8232 1.43945z" />
    <glyph glyph-name="I" unicode="&#xce;" horiz-adv-x="196" 
d="M175.192 709.02c21.6221 0.588867 24.9727 -28.6113 3.06738 -29.2139c-16.1533 -0.44043 -32.3066 -0.87793 -48.46 -1.31836c3.55078 -61.0273 0.189453 -122.551 -2.38672 -183.571c-2.67969 -63.5039 -4.65625 -127.035 -5.92383 -190.583
c-1.29199 -64.709 -2.36621 -129.511 -4.57422 -194.188c-1.1123 -32.6611 -1.19531 -65.4082 -2.7793 -98.0352c-0.8125 -16.7871 -0.167969 -35.0205 -2.04883 -52.5889c13.5146 -0.220703 27.0088 -1.25781 40.3994 -3.39355
c23.0762 -3.68164 15.0273 -33.7695 -6.43359 -30.3457c-13.7217 2.1875 -27.3809 3.11719 -41.0645 3.09277c-0.90625 -2.25293 -1.87402 -4.48438 -2.98633 -6.6543c-10.0674 -19.6318 -38.7881 -20.166 -52.9609 -5.56641
c-2.02832 2.09082 -3.87109 4.36035 -5.63477 6.70605c-2.68945 -0.392578 -5.38281 -0.757812 -8.06543 -1.16406c-6.41602 -0.97168 -12.8223 -2.02539 -19.2217 -3.10645c0.561523 0.0966797 -14.1104 -2.36621 -13.1182 -1.24707
c-12.0957 -13.6807 -38.585 1.02246 -25.3525 17.3379c8.11426 10.0049 23.6787 10.4385 35.4268 12.8975c5.32129 1.11621 10.6562 2.19727 15.9951 3.24805c-7.04688 20.1729 -10.1016 42.7979 -12.8428 61.751c-4.3916 30.3633 -5.66895 61.7461 -6.99121 92.3926
c-2.73438 63.2695 -3.50977 126.839 -2.89648 190.16c0.613281 63.4688 1.93262 126.928 3.96094 190.366c2.02832 63.4141 4.4082 127.758 15.0918 190.425c-10.6699 0.658203 -23.3477 1.1748 -29.4062 -5.10352c-11.9961 -12.4336 -37.5586 1.35352 -24.2402 16.5771
c14.6689 16.7627 40.3311 18.2266 63.7617 18.0918c19.8691 25.1699 68.6348 26.9336 86.8613 1.59473c17.6064 0.482422 35.2168 0.960938 52.8232 1.43945z" />
    <glyph glyph-name="I" unicode="&#xcd;" horiz-adv-x="196" 
d="M175.192 709.02c21.6221 0.588867 24.9727 -28.6113 3.06738 -29.2139c-16.1533 -0.44043 -32.3066 -0.87793 -48.46 -1.31836c3.55078 -61.0273 0.189453 -122.551 -2.38672 -183.571c-2.67969 -63.5039 -4.65625 -127.035 -5.92383 -190.583
c-1.29199 -64.709 -2.36621 -129.511 -4.57422 -194.188c-1.1123 -32.6611 -1.19531 -65.4082 -2.7793 -98.0352c-0.8125 -16.7871 -0.167969 -35.0205 -2.04883 -52.5889c13.5146 -0.220703 27.0088 -1.25781 40.3994 -3.39355
c23.0762 -3.68164 15.0273 -33.7695 -6.43359 -30.3457c-13.7217 2.1875 -27.3809 3.11719 -41.0645 3.09277c-0.90625 -2.25293 -1.87402 -4.48438 -2.98633 -6.6543c-10.0674 -19.6318 -38.7881 -20.166 -52.9609 -5.56641
c-2.02832 2.09082 -3.87109 4.36035 -5.63477 6.70605c-2.68945 -0.392578 -5.38281 -0.757812 -8.06543 -1.16406c-6.41602 -0.97168 -12.8223 -2.02539 -19.2217 -3.10645c0.561523 0.0966797 -14.1104 -2.36621 -13.1182 -1.24707
c-12.0957 -13.6807 -38.585 1.02246 -25.3525 17.3379c8.11426 10.0049 23.6787 10.4385 35.4268 12.8975c5.32129 1.11621 10.6562 2.19727 15.9951 3.24805c-7.04688 20.1729 -10.1016 42.7979 -12.8428 61.751c-4.3916 30.3633 -5.66895 61.7461 -6.99121 92.3926
c-2.73438 63.2695 -3.50977 126.839 -2.89648 190.16c0.613281 63.4688 1.93262 126.928 3.96094 190.366c2.02832 63.4141 4.4082 127.758 15.0918 190.425c-10.6699 0.658203 -23.3477 1.1748 -29.4062 -5.10352c-11.9961 -12.4336 -37.5586 1.35352 -24.2402 16.5771
c14.6689 16.7627 40.3311 18.2266 63.7617 18.0918c19.8691 25.1699 68.6348 26.9336 86.8613 1.59473c17.6064 0.482422 35.2168 0.960938 52.8232 1.43945z" />
    <glyph glyph-name="J" unicode="J" horiz-adv-x="468" 
d="M415.444 645.423c-10.5146 15.1162 -28.4658 16.6992 -45.6592 16.4893c-10.7627 -0.137695 -21.5498 -0.774414 -32.3164 -1.69727c3.06543 -5.01855 4.91113 -10.7188 4.89355 -17.1045c-0.333984 -125.836 11.0146 -251.638 9.76074 -377.433
c62.6182 -3.56152 122.33 -26.7988 154.788 -82.167c8.125 -13.8594 -19.0527 -25.0049 -26.8301 -12.9229c-28.6689 44.5498 -76.7285 63.8096 -128.463 66.916c-0.320312 -12.2822 -0.726562 -24.5605 -1.34668 -36.8428
c-6.18262 -122.732 -27.6777 -263.265 -136.368 -338.364c-44.7812 -30.9424 -103.35 -34.2969 -148.438 -2.23535c-44.3301 31.5244 -65.6426 84.3955 -62.1953 137.801c7.50488 116.265 110.106 211.323 214.427 248.203c9.54688 3.37207 19.5898 6.38965 29.9639 9.02441
c-1.04395 15.2783 -2.11523 30.4736 -3.10352 45.5449c-7.50781 114.426 -21.2188 228.775 -14.3926 343.573c0.0175781 0.299805 0.09375 0.575195 0.121094 0.871094c-17.3857 -3.1582 -34.7373 -6.50586 -52.082 -9.85059
c-43.5654 -8.40039 -87.1992 -16.7695 -131.322 -21.6738c-31.6729 -3.51953 -71.6084 -5.7998 -86.7588 28.9141c-6.98438 16.0088 20.6133 23.8887 27.7871 9.6709c9.9502 -19.7109 38.4473 -13.3701 56.1162 -11.3896c21.498 2.40723 42.9004 5.64844 64.2197 9.30566
c41.6367 7.13965 82.9697 15.8984 124.544 23.376c8.09766 1.45703 16.2158 2.84863 24.3438 4.19141c10.3809 4.96973 21.9668 7.53516 31.3457 7.44922c3.48535 -0.03125 7.21582 -0.47168 11.0078 -1.22266c19.4561 2.45898 38.9844 4.32617 58.582 5.22852
c29.7607 1.37109 65.1562 0.121094 83.9199 -26.7949c11.376 -16.3223 -16.498 -31.3047 -26.5449 -16.8604zM239.63 -24.6436c17.6689 81.0859 15.2441 166.417 9.99512 249.982c-24.0889 -6.84375 -46.6445 -16.0498 -65.8564 -26.627
c-43.3623 -23.8711 -81.8193 -57.583 -108.914 -99.2061c-28.8174 -44.2715 -48.5898 -102.251 -31.1592 -154.592c14.293 -42.9209 54.1836 -82.6807 102.381 -77.4902c24.0303 2.58984 51.9902 16.5322 66.6826 36.1846c15.4297 20.6338 21.5049 47.1123 26.8711 71.748z
" />
    <glyph glyph-name="K" unicode="K" horiz-adv-x="406" 
d="M-8.30566 698.625c4.11914 27.8877 36.0234 43.0156 61.0488 42.792c24.0127 -0.216797 55.5713 -16.0156 56.415 -43.9404c1.98047 -65.4668 -2.14941 -130.885 -3.34082 -196.345c-1.1748 -64.5195 -0.881836 -129.07 0.884766 -193.576
c0.0517578 -1.88379 0.103516 -3.76465 0.155273 -5.64844c16.5908 58.3369 38.0615 115.234 64.7363 169.976c22.0771 45.3076 47.1611 92.165 78.5303 131.776c29.0859 36.7285 80.0527 78.8232 126.328 42.0771c37.2109 -29.5479 -19.542 -70.9746 -49.2139 -41.834
c-2.86914 -0.750977 -6.27246 -2.95508 -8.28418 -4.07812c-8.63086 -4.82227 -16.8525 -10.8115 -24.5713 -16.9727c-15.6025 -12.4609 -29.5518 -27.1123 -42.4775 -42.291c-28.373 -33.3184 -47.5293 -76.4258 -65.3945 -116.051
c-32.751 -72.6445 -57.0117 -149.16 -73.582 -227.126c23.3408 7.0918 48.1211 8.97266 72.334 4.78418c29.3721 -5.08008 61.5547 -16.6143 86.7285 -32.6465c26.9717 -17.1729 48.6426 -42.0986 65.2334 -69.0938c16.2148 -26.3857 32.0303 -60.6074 31.6719 -92.0625
c-0.230469 -20.4648 -13.2256 -34.248 -32.7197 -38.877c-15.9639 -3.79199 -43.3896 1.86719 -48.7559 20.7207c-7.09473 24.9258 -9.2373 50.7949 -17.5312 75.4756c-7.19531 21.4121 -16.7256 43.7236 -30.1816 61.9912
c-15.3818 20.8857 -31.0664 37.9141 -56.9082 44.7266c-24.0127 6.33008 -48.335 4.53613 -71.5 -3.33398c0.764648 -16.7314 1.63574 -33.4697 2.67578 -50.2148c1.89453 -30.498 5.92773 -60.7793 8.02539 -91.2363c1.96289 -28.4863 12.4189 -77.335 -10.5195 -99.0088
c-10.5732 -9.99121 -24.6465 -12.6299 -38.4648 -8.35938c-32.1064 9.92285 -44.1299 55.668 -52.833 84.6777c-9.65723 32.1895 -15.2881 65.4531 -20.4268 98.624c-9.74316 62.9141 -14.2549 127.416 -16.6797 191.006c-2.54199 66.6787 -3.50977 133.42 -2.90039 200.144
c0.623047 68.0703 1.55664 136.488 11.5176 203.925zM326.258 604.835c-1.27051 1.32227 -0.950195 0.658203 0 0z" />
    <glyph glyph-name="L" unicode="L" horiz-adv-x="307" 
d="M109.157 697.472c1.98047 -65.4668 -2.15137 -130.89 -3.34277 -196.346c-1.1748 -64.5195 -0.881836 -129.07 0.884766 -193.576c1.72559 -62.9971 3.36816 -125.788 7.27734 -188.699c1.8291 -29.4062 5.625 -58.6123 7.77734 -87.9668
c18.7744 17.9062 41.5332 32.5957 62.2568 44.9639c48.5938 29 102.426 52.6309 140.449 95.9033c10.4668 11.9102 33.5225 -0.905273 22.0156 -15.0537c-33.5879 -41.3027 -79.8633 -66.0557 -125.302 -91.9834c-32.9883 -18.8193 -75.3105 -41.8193 -95.5244 -76.3125
c1.41211 -22.8379 -0.0517578 -46.4609 -14.166 -59.7969c-10.5732 -9.99121 -24.6494 -12.6299 -38.4639 -8.35938c-32.1064 9.92285 -44.1299 55.668 -52.833 84.6777c-9.65723 32.1895 -15.2881 65.4531 -20.4268 98.624
c-9.74316 62.9141 -14.2549 127.416 -16.6797 191.006c-2.54492 66.6787 -3.5127 133.42 -2.90332 200.144c0.623047 68.0703 1.55664 136.488 11.5176 203.925c4.11914 27.8877 36.0156 43.0146 61.0479 42.791c24.0127 -0.216797 55.5713 -16.0156 56.415 -43.9404z" />
    <glyph glyph-name="M" unicode="M" horiz-adv-x="803" 
d="M844.334 141.839c-15.8291 -45.6074 -39.0732 -88.0811 -70.7012 -124.713c-28.9482 -33.5322 -66.6758 -50.4297 -110.145 -33.9668c-39.6387 15.0127 -69.3203 39.2695 -90.8398 75.833c-20.1309 34.2002 -28.4619 74.6553 -33.4424 113.63
c-12.1885 95.3926 -11.7129 191.805 -14.8818 287.756c-0.847656 25.6621 -1.70215 51.3691 -2.00195 77.0352c-0.220703 18.8223 2.05566 42.9043 -2.74512 61.2617c-8.99609 34.3896 -31.8652 -8.91016 -38.7158 -21.7432
c-10.1123 -18.9355 -19.2705 -38.3711 -27.6465 -58.1338c-30.5156 -72.0137 -50.0957 -147.981 -68.2119 -223.963c0.455078 -8.97559 0.885742 -17.9404 1.28906 -26.8955c2.55859 -56.7637 -98.2656 -67.2754 -101.313 -10.6504
c-4.27734 79.4707 -7.1875 159.179 -8.02832 238.767c-0.34082 32.3271 -0.833008 64.5029 -2.67578 96.7715c-0.760742 13.3086 1.80469 40.6006 -16.2051 43.8105c-13.8457 2.46582 -25.3145 -20.7617 -30.918 -31.0908
c-31.6758 -58.3682 -45.0498 -129.249 -59.3428 -193.507c-27.3711 -123.05 -46.0801 -245.604 -46.8477 -371.126c0.375 -4.42969 0.729492 -8.8584 1.03613 -13.2949c1.96289 -28.4863 12.4189 -77.335 -10.5195 -99.0088
c-10.5732 -9.99121 -24.6494 -12.6299 -38.4639 -8.35938c-32.1035 9.92285 -44.1309 55.668 -52.834 84.6777c-9.6543 32.1895 -15.2852 65.4531 -20.4238 98.624c-9.74316 62.9141 -14.2549 127.416 -16.6797 191.006c-2.54199 66.6787 -3.50977 133.42 -2.90039 200.144
c0.623047 68.0703 1.55664 136.488 11.5176 203.925c4.11914 27.8877 36.0156 43.0146 61.0479 42.791c24.0127 -0.216797 55.5752 -16.0156 56.4189 -43.9404c1.9834 -65.4668 -2.14648 -130.885 -3.3418 -196.345c-1.1748 -64.5195 -0.878906 -129.07 0.884766 -193.576
c0.200195 -7.29785 0.400391 -14.5928 0.600586 -21.8877c11.4863 69.8506 26.0273 139.567 44.0303 207.931c9.60938 36.4873 20.3242 73.374 35.4541 108.016c11.9688 27.4014 32.165 63.7578 65.7041 66.541c32.5986 2.7041 56.126 -27.7012 71.8555 -52.124
c20.5518 -31.9062 28.291 -71.2012 36.1816 -107.819c8.57227 -39.7734 14.1279 -80.1699 18.0029 -120.756c14.748 55.0166 32.1309 109.259 55.5068 161.327c13.1357 29.2646 29.7129 78.6982 64.0547 89.2783c35.1992 10.8457 68.7588 -31.542 80.459 -59.8428
c36.5322 -88.3496 38.6299 -188.316 46.3135 -282.201c3.83984 -46.916 7.89062 -93.8428 15.2266 -140.359c5.44824 -34.5342 11.6475 -68.9932 26.0264 -101.075c7.0918 -15.8223 14.8066 -34.0215 31.9209 -41.0098c18.2158 -7.43555 32.9463 5.98242 44.6289 18.5195
c30.2773 32.5029 53.4463 72.2725 68.6699 113.905c6.1377 16.7832 39.3535 14.1523 32.9951 -4.16016z" />
    <glyph glyph-name="N" unicode="N" horiz-adv-x="593" 
d="M606.821 157.007c5.91016 14.6826 32.8408 6.69727 26.3965 -9.83496c-19.7285 -50.6562 -41.7432 -104.671 -87.4404 -137.511c-39.6455 -28.4902 -95.9648 -40.4141 -142.12 -21.3916c-50.3574 20.7549 -79.8359 75.4756 -87.957 126.817
c-9.0752 57.3799 -9.60938 115.369 -7.42188 173.279c2.29688 60.876 6.86719 121.7 11.7197 182.417c2.17285 27.1816 5.12793 54.9102 5.47559 82.1533c0.168945 13.1289 7.81152 76.2324 -18.0537 60.4512c-20.8271 -12.709 -35.1582 -43.7646 -46.0352 -64.7461
c-12.165 -23.4717 -22.1768 -47.9902 -31.8271 -72.582c-20.7334 -52.8438 -38.9736 -106.666 -54.8408 -161.166c-24.3193 -83.5312 -42.8076 -168.646 -55.5273 -254.664c1.06055 -10.8594 2.05957 -21.7256 2.81055 -32.6123
c1.96289 -28.4863 12.4189 -77.335 -10.5195 -99.0088c-10.5732 -9.99121 -24.6494 -12.6299 -38.4639 -8.35938c-32.1035 9.92285 -44.1309 55.668 -52.834 84.6777c-9.65723 32.1895 -15.2881 65.4531 -20.4268 98.624
c-9.74316 62.9141 -14.2549 127.416 -16.6797 191.006c-2.54199 66.6787 -3.50977 133.42 -2.90039 200.144c0.623047 68.0703 1.55664 136.488 11.5176 203.925c4.11914 27.8877 36.0156 43.0146 61.0479 42.791c24.0127 -0.216797 55.5713 -16.0156 56.415 -43.9404
c1.9834 -65.4668 -2.14648 -130.885 -3.3418 -196.345c-1.1748 -64.5195 -0.878906 -129.07 0.884766 -193.576c1.03027 -37.5928 2.03906 -75.1104 3.50977 -112.628c12.2539 56.4014 27.0332 112.263 44.375 167.366c16.6592 52.9365 35.2852 105.498 56.8115 156.668
c10.1426 24.1123 21.3701 47.8945 35.46 69.9824c12.4648 19.5391 26.9824 41.7061 48.2539 52.4102c18.4229 9.27148 40.5205 6.75684 53.96 -9.64453c14.5654 -17.7783 27.9834 -44.0742 34.1074 -65.9141c15.5918 -55.6133 18.5332 -112.208 20.0283 -169.698
c1.54688 -59.4775 0.847656 -118.899 3.55469 -178.359c1.3125 -28.8721 3.5791 -57.7305 7.86035 -86.3271c3.45801 -23.0928 5.4248 -48.8203 14.0762 -70.6533c6.35449 -16.0361 17.9023 -34.707 34.0898 -41.998c19.8457 -8.94141 44.6436 0.623047 61.8262 11.7305
c43.6377 28.2109 63.6348 80.3896 82.209 126.518z" />
    <glyph glyph-name="O" unicode="O" horiz-adv-x="474" 
d="M382.021 328.554c-0.261719 -54.1523 -5.74707 -108.293 -17.7812 -160.958c46.0557 5.90332 91.2188 19.1631 132.149 38.4189c17.6826 8.31738 29.8096 -16.4219 11.2451 -25.2979c-46.4482 -22.2109 -98.1387 -36.5801 -150.714 -42.0498
c-5.32129 -19.0908 -11.5273 -37.9541 -18.7598 -56.501c-14.917 -38.2607 -34.249 -75.041 -58.627 -108.146c-24.6572 -33.4844 -51.918 -65.7803 -93.4443 -77.6631c-44.7363 -12.8018 -90.5889 1.35352 -123.884 32.8438
c-32.1543 30.4121 -45.7275 73.833 -48.8203 117.058c-4.74219 66.248 8.79297 134.019 28.6484 198.865c-13.3809 14.9443 -25.5146 31.5 -36.1328 49.7744c-41.1064 70.7432 -45.3359 158.624 -20.7236 235.701c23.8477 74.6865 75.1963 150.482 155.935 169.105
c83.0977 19.167 154.499 -37.5029 189.802 -108.618c39.5869 -79.75 51.5381 -174.485 51.1074 -262.532zM6.27832 444.355c-2.29395 -58.499 14.6387 -114.394 48.3057 -160.776c6.02051 17.4512 12.3408 34.6172 18.709 51.4004
c8.7998 23.1865 42.2568 29.8369 63.1592 24.96c20.5654 -4.79785 42.5146 -25.6592 35.6572 -49.0762c-10.1123 -34.5176 -21.6396 -68.9727 -31.8408 -103.738c56.1709 -32.4375 121.782 -45.3115 187.4 -42.6006c0.331055 1.35059 0.689453 2.69727 1.00977 4.05078
c17.3203 73.0537 21.3711 149.335 15.0859 224.039c-6.25781 74.373 -21.5742 159.451 -67.4053 220.596c-20.3066 27.0918 -48.7246 50.2881 -82.5811 57.2861c-35.6914 7.37695 -71.9863 -6.16504 -99.4395 -28.8896
c-55.7373 -46.1377 -85.2881 -126.49 -88.0605 -197.251zM293.051 64.7754c10.8252 23.1377 19.7021 47.082 26.9795 71.5283c-65.7734 -1.55664 -131.34 11.1562 -188.285 40.2217c-10.7939 -41.1748 -18.6152 -82.9287 -18.832 -125.892
c-0.165039 -32.3682 5.39062 -70.9424 31.0811 -93.7051c26.7988 -23.7441 68.8076 -5.44531 91.0986 16.0293c25.2939 24.3672 43.248 60.3828 57.958 91.8174z" />
    <glyph glyph-name="O" unicode="&#xd6;" horiz-adv-x="474" 
d="M382.021 328.554c-0.261719 -54.1523 -5.74707 -108.293 -17.7812 -160.958c46.0557 5.90332 91.2188 19.1631 132.149 38.4189c17.6826 8.31738 29.8096 -16.4219 11.2451 -25.2979c-46.4482 -22.2109 -98.1387 -36.5801 -150.714 -42.0498
c-5.32129 -19.0908 -11.5273 -37.9541 -18.7598 -56.501c-14.917 -38.2607 -34.249 -75.041 -58.627 -108.146c-24.6572 -33.4844 -51.918 -65.7803 -93.4443 -77.6631c-44.7363 -12.8018 -90.5889 1.35352 -123.884 32.8438
c-32.1543 30.4121 -45.7275 73.833 -48.8203 117.058c-4.74219 66.248 8.79297 134.019 28.6484 198.865c-13.3809 14.9443 -25.5146 31.5 -36.1328 49.7744c-41.1064 70.7432 -45.3359 158.624 -20.7236 235.701c23.8477 74.6865 75.1963 150.482 155.935 169.105
c83.0977 19.167 154.499 -37.5029 189.802 -108.618c39.5869 -79.75 51.5381 -174.485 51.1074 -262.532zM6.27832 444.355c-2.29395 -58.499 14.6387 -114.394 48.3057 -160.776c6.02051 17.4512 12.3408 34.6172 18.709 51.4004
c8.7998 23.1865 42.2568 29.8369 63.1592 24.96c20.5654 -4.79785 42.5146 -25.6592 35.6572 -49.0762c-10.1123 -34.5176 -21.6396 -68.9727 -31.8408 -103.738c56.1709 -32.4375 121.782 -45.3115 187.4 -42.6006c0.331055 1.35059 0.689453 2.69727 1.00977 4.05078
c17.3203 73.0537 21.3711 149.335 15.0859 224.039c-6.25781 74.373 -21.5742 159.451 -67.4053 220.596c-20.3066 27.0918 -48.7246 50.2881 -82.5811 57.2861c-35.6914 7.37695 -71.9863 -6.16504 -99.4395 -28.8896
c-55.7373 -46.1377 -85.2881 -126.49 -88.0605 -197.251zM293.051 64.7754c10.8252 23.1377 19.7021 47.082 26.9795 71.5283c-65.7734 -1.55664 -131.34 11.1562 -188.285 40.2217c-10.7939 -41.1748 -18.6152 -82.9287 -18.832 -125.892
c-0.165039 -32.3682 5.39062 -70.9424 31.0811 -93.7051c26.7988 -23.7441 68.8076 -5.44531 91.0986 16.0293c25.2939 24.3672 43.248 60.3828 57.958 91.8174z" />
    <glyph glyph-name="O" unicode="&#xd5;" horiz-adv-x="474" 
d="M382.021 328.554c-0.261719 -54.1523 -5.74707 -108.293 -17.7812 -160.958c46.0557 5.90332 91.2188 19.1631 132.149 38.4189c17.6826 8.31738 29.8096 -16.4219 11.2451 -25.2979c-46.4482 -22.2109 -98.1387 -36.5801 -150.714 -42.0498
c-5.32129 -19.0908 -11.5273 -37.9541 -18.7598 -56.501c-14.917 -38.2607 -34.249 -75.041 -58.627 -108.146c-24.6572 -33.4844 -51.918 -65.7803 -93.4443 -77.6631c-44.7363 -12.8018 -90.5889 1.35352 -123.884 32.8438
c-32.1543 30.4121 -45.7275 73.833 -48.8203 117.058c-4.74219 66.248 8.79297 134.019 28.6484 198.865c-13.3809 14.9443 -25.5146 31.5 -36.1328 49.7744c-41.1064 70.7432 -45.3359 158.624 -20.7236 235.701c23.8477 74.6865 75.1963 150.482 155.935 169.105
c83.0977 19.167 154.499 -37.5029 189.802 -108.618c39.5869 -79.75 51.5381 -174.485 51.1074 -262.532zM6.27832 444.355c-2.29395 -58.499 14.6387 -114.394 48.3057 -160.776c6.02051 17.4512 12.3408 34.6172 18.709 51.4004
c8.7998 23.1865 42.2568 29.8369 63.1592 24.96c20.5654 -4.79785 42.5146 -25.6592 35.6572 -49.0762c-10.1123 -34.5176 -21.6396 -68.9727 -31.8408 -103.738c56.1709 -32.4375 121.782 -45.3115 187.4 -42.6006c0.331055 1.35059 0.689453 2.69727 1.00977 4.05078
c17.3203 73.0537 21.3711 149.335 15.0859 224.039c-6.25781 74.373 -21.5742 159.451 -67.4053 220.596c-20.3066 27.0918 -48.7246 50.2881 -82.5811 57.2861c-35.6914 7.37695 -71.9863 -6.16504 -99.4395 -28.8896
c-55.7373 -46.1377 -85.2881 -126.49 -88.0605 -197.251zM293.051 64.7754c10.8252 23.1377 19.7021 47.082 26.9795 71.5283c-65.7734 -1.55664 -131.34 11.1562 -188.285 40.2217c-10.7939 -41.1748 -18.6152 -82.9287 -18.832 -125.892
c-0.165039 -32.3682 5.39062 -70.9424 31.0811 -93.7051c26.7988 -23.7441 68.8076 -5.44531 91.0986 16.0293c25.2939 24.3672 43.248 60.3828 57.958 91.8174z" />
    <glyph glyph-name="O" unicode="&#xd4;" horiz-adv-x="474" 
d="M382.021 328.554c-0.261719 -54.1523 -5.74707 -108.293 -17.7812 -160.958c46.0557 5.90332 91.2188 19.1631 132.149 38.4189c17.6826 8.31738 29.8096 -16.4219 11.2451 -25.2979c-46.4482 -22.2109 -98.1387 -36.5801 -150.714 -42.0498
c-5.32129 -19.0908 -11.5273 -37.9541 -18.7598 -56.501c-14.917 -38.2607 -34.249 -75.041 -58.627 -108.146c-24.6572 -33.4844 -51.918 -65.7803 -93.4443 -77.6631c-44.7363 -12.8018 -90.5889 1.35352 -123.884 32.8438
c-32.1543 30.4121 -45.7275 73.833 -48.8203 117.058c-4.74219 66.248 8.79297 134.019 28.6484 198.865c-13.3809 14.9443 -25.5146 31.5 -36.1328 49.7744c-41.1064 70.7432 -45.3359 158.624 -20.7236 235.701c23.8477 74.6865 75.1963 150.482 155.935 169.105
c83.0977 19.167 154.499 -37.5029 189.802 -108.618c39.5869 -79.75 51.5381 -174.485 51.1074 -262.532zM6.27832 444.355c-2.29395 -58.499 14.6387 -114.394 48.3057 -160.776c6.02051 17.4512 12.3408 34.6172 18.709 51.4004
c8.7998 23.1865 42.2568 29.8369 63.1592 24.96c20.5654 -4.79785 42.5146 -25.6592 35.6572 -49.0762c-10.1123 -34.5176 -21.6396 -68.9727 -31.8408 -103.738c56.1709 -32.4375 121.782 -45.3115 187.4 -42.6006c0.331055 1.35059 0.689453 2.69727 1.00977 4.05078
c17.3203 73.0537 21.3711 149.335 15.0859 224.039c-6.25781 74.373 -21.5742 159.451 -67.4053 220.596c-20.3066 27.0918 -48.7246 50.2881 -82.5811 57.2861c-35.6914 7.37695 -71.9863 -6.16504 -99.4395 -28.8896
c-55.7373 -46.1377 -85.2881 -126.49 -88.0605 -197.251zM293.051 64.7754c10.8252 23.1377 19.7021 47.082 26.9795 71.5283c-65.7734 -1.55664 -131.34 11.1562 -188.285 40.2217c-10.7939 -41.1748 -18.6152 -82.9287 -18.832 -125.892
c-0.165039 -32.3682 5.39062 -70.9424 31.0811 -93.7051c26.7988 -23.7441 68.8076 -5.44531 91.0986 16.0293c25.2939 24.3672 43.248 60.3828 57.958 91.8174z" />
    <glyph glyph-name="O" unicode="&#xd3;" horiz-adv-x="474" 
d="M382.021 328.554c-0.261719 -54.1523 -5.74707 -108.293 -17.7812 -160.958c46.0557 5.90332 91.2188 19.1631 132.149 38.4189c17.6826 8.31738 29.8096 -16.4219 11.2451 -25.2979c-46.4482 -22.2109 -98.1387 -36.5801 -150.714 -42.0498
c-5.32129 -19.0908 -11.5273 -37.9541 -18.7598 -56.501c-14.917 -38.2607 -34.249 -75.041 -58.627 -108.146c-24.6572 -33.4844 -51.918 -65.7803 -93.4443 -77.6631c-44.7363 -12.8018 -90.5889 1.35352 -123.884 32.8438
c-32.1543 30.4121 -45.7275 73.833 -48.8203 117.058c-4.74219 66.248 8.79297 134.019 28.6484 198.865c-13.3809 14.9443 -25.5146 31.5 -36.1328 49.7744c-41.1064 70.7432 -45.3359 158.624 -20.7236 235.701c23.8477 74.6865 75.1963 150.482 155.935 169.105
c83.0977 19.167 154.499 -37.5029 189.802 -108.618c39.5869 -79.75 51.5381 -174.485 51.1074 -262.532zM6.27832 444.355c-2.29395 -58.499 14.6387 -114.394 48.3057 -160.776c6.02051 17.4512 12.3408 34.6172 18.709 51.4004
c8.7998 23.1865 42.2568 29.8369 63.1592 24.96c20.5654 -4.79785 42.5146 -25.6592 35.6572 -49.0762c-10.1123 -34.5176 -21.6396 -68.9727 -31.8408 -103.738c56.1709 -32.4375 121.782 -45.3115 187.4 -42.6006c0.331055 1.35059 0.689453 2.69727 1.00977 4.05078
c17.3203 73.0537 21.3711 149.335 15.0859 224.039c-6.25781 74.373 -21.5742 159.451 -67.4053 220.596c-20.3066 27.0918 -48.7246 50.2881 -82.5811 57.2861c-35.6914 7.37695 -71.9863 -6.16504 -99.4395 -28.8896
c-55.7373 -46.1377 -85.2881 -126.49 -88.0605 -197.251zM293.051 64.7754c10.8252 23.1377 19.7021 47.082 26.9795 71.5283c-65.7734 -1.55664 -131.34 11.1562 -188.285 40.2217c-10.7939 -41.1748 -18.6152 -82.9287 -18.832 -125.892
c-0.165039 -32.3682 5.39062 -70.9424 31.0811 -93.7051c26.7988 -23.7441 68.8076 -5.44531 91.0986 16.0293c25.2939 24.3672 43.248 60.3828 57.958 91.8174z" />
    <glyph glyph-name="P" unicode="P" horiz-adv-x="450" 
d="M99.4307 426.509c-2.34863 -60.4414 -2.68066 -121 -1.68848 -181.479c3.16504 15.8945 6.5752 31.7373 10.2705 47.5146c22.2666 95.0898 55.623 194.757 119.274 270.715c26.2725 31.3525 62.9014 62.1777 104.683 68.3809
c42.4424 6.30273 75.0547 -21.1641 79.7803 -62.918c2.48633 -21.9668 -2.68359 -43.7412 -7.27148 -65.0645c-5.00098 -23.2451 -13.3184 -45.8184 -22.9238 -67.5273c-19.2734 -43.5615 -45.0801 -83.6758 -73.6182 -121.692
c-35.9229 -47.8535 -81.3545 -92.7031 -131.649 -129.184c27.7217 1.40527 56.0225 -1.1748 83.707 -4.73633c35.9023 -4.61816 72.0732 -10.6523 108.389 -8.38965c34.4727 2.14941 67.4922 11.001 98.9404 25.1152c18.3232 8.22168 31.0254 -17.334 11.5869 -26.0576
c-61.8467 -27.7568 -126.087 -31.1289 -192.553 -22.7939c-56.2158 7.0498 -117.715 18.5254 -171.647 -3.4209c-2.96191 -21.7676 -5.47656 -43.5928 -7.49512 -65.4668c-0.320312 -3.44434 -0.654297 -6.91309 -0.995117 -10.3916
c0.433594 -5.43457 0.867188 -10.873 1.33594 -16.3047c2.7207 -31.5488 6.72266 -62.9766 10.3701 -94.4287c3.36133 -29.0068 13.6494 -69.4863 -1.09863 -96.3438c-9.86035 -17.958 -35.3574 -21.9873 -51.7861 -11.2451
c-27.6875 18.1025 -36.8037 59.0225 -45.0146 89.1006c-8.55859 31.3525 -14.8438 62.9287 -19.9932 95.0146c-10.1191 63.0664 -14.6865 126.821 -17.666 190.583c-3.04102 65.0977 -3.00977 130.233 -0.712891 195.355c2.37695 67.3682 5.87598 134.919 16.7666 201.512
c4.37402 26.7305 34.2383 41.2646 58.5605 41.0439c21.3086 -0.193359 55.4717 -15.4922 54.1182 -42.1504c-3.2959 -64.9502 -9.1543 -130.083 -11.6689 -194.74zM285.68 576.736c-31.6279 -24.9736 -54.5771 -59.6797 -73.8193 -94.6035
c-38.168 -69.2686 -60.8857 -145.767 -77.252 -222.968c8.67285 5.6416 17.2627 11.4521 25.6973 17.583c35.0098 25.4424 66.8369 54.7939 97.252 85.5195c28.6211 28.917 55.7334 60.3623 78.7988 93.9189c22.4219 32.623 46.748 72.0693 39.6357 113.438
c-8.95801 52.1035 -62.0635 29.4199 -90.3125 7.1123z" />
    <glyph glyph-name="Q" unicode="Q" horiz-adv-x="504" 
d="M141.112 699.703c83.0977 19.167 154.502 -37.501 189.798 -108.616c39.5869 -79.75 51.5381 -174.485 51.1074 -262.532c-0.265625 -54.1523 -5.74902 -108.291 -17.7861 -160.959c46.0557 5.90332 91.2188 19.1631 132.149 38.4189
c17.6826 8.31738 29.8096 -16.4219 11.2451 -25.2979c-46.4482 -22.2109 -98.1387 -36.5801 -150.714 -42.0498c-5.32129 -19.0908 -11.5273 -37.9541 -18.7598 -56.501c-14.917 -38.2607 -34.249 -75.041 -58.627 -108.146
c-24.6572 -33.4844 -51.918 -65.7803 -93.4443 -77.6631c-0.144531 -0.0410156 -0.289062 -0.0654297 -0.433594 -0.106445c58.7949 -17.9854 126.121 -36.8008 183.032 -3.86816c17.2246 9.96777 39.9805 -12.2715 20.2734 -23.7236
c-56.3604 -32.7471 -121.496 -26.8887 -182.113 -10.7256c-66.751 17.7998 -137.009 50.6162 -206.884 29.5898c-19.5107 -5.87207 -33.1328 20.2549 -11.9238 26.8193c27.3262 8.45508 54.707 10.249 81.9404 8.06543c-2.64844 2.17285 -5.25586 4.41504 -7.7666 6.79199
c-32.1543 30.4121 -45.7275 73.833 -48.8203 117.058c-4.74219 66.248 8.79297 134.019 28.6484 198.865c-13.3809 14.9443 -25.5146 31.5 -36.1328 49.7744c-41.1064 70.7432 -45.3359 158.624 -20.7236 235.701c23.8477 74.6865 75.1963 150.482 155.935 169.105z
M293.052 64.7734c10.8281 23.1377 19.7031 47.082 26.9805 71.5283c-65.7734 -1.55664 -131.34 11.1562 -188.285 40.2217c-10.7939 -41.1748 -18.6152 -82.9287 -18.832 -125.892c-0.162109 -32.3682 5.38965 -70.9424 31.0801 -93.7051
c26.7988 -23.7441 68.8076 -5.44531 91.0986 16.0293c25.2939 24.3672 43.248 60.3828 57.958 91.8174zM328.677 168.574c17.3203 73.0537 21.3682 149.331 15.083 224.042c-6.25781 74.373 -21.5742 159.451 -67.4053 220.596
c-20.3066 27.0918 -48.7246 50.2881 -82.5811 57.2871c-35.6914 7.37695 -71.9863 -6.16504 -99.4395 -28.8896c-55.7373 -46.1377 -85.2881 -126.49 -88.0605 -197.251c-2.29395 -58.499 14.6406 -114.397 48.3037 -160.78c6.02051 17.4512 12.3408 34.6172 18.709 51.4004
c8.7998 23.1865 42.2568 29.8369 63.1592 24.96c20.5654 -4.79785 42.5186 -25.6592 35.6582 -49.0762c-10.1084 -34.5176 -21.6357 -68.9727 -31.8369 -103.738c56.1709 -32.4375 121.782 -45.3115 187.4 -42.6006c0.331055 1.35059 0.689453 2.69727 1.00977 4.05078z" />
    <glyph glyph-name="R" unicode="R" horiz-adv-x="477" 
d="M97.7422 245.025c3.16895 15.8945 6.57422 31.7402 10.2627 47.5146c22.2695 95.0898 55.623 194.757 119.274 270.715c26.2725 31.3525 62.8975 62.1777 104.682 68.3809c42.4424 6.30273 75.0547 -21.1641 79.7803 -62.918
c2.48633 -21.9668 -2.68652 -43.7412 -7.27051 -65.0645c-5.00098 -23.2451 -13.3184 -45.8184 -22.9238 -67.5273c-19.2734 -43.5615 -45.0801 -83.6758 -73.6182 -121.692c-40.4482 -53.8809 -92.9541 -103.941 -150.889 -142.537
c59.2812 10.6387 120.422 4.39746 174.01 -26.249c67.3955 -38.5439 114.088 -114.522 107.943 -192.78c-1.75684 -22.3799 -29.8096 -34.0283 -48.6074 -34.0693c-18.623 -0.0410156 -44.8779 12.9297 -44.9189 34.9863
c-0.106445 54.2666 -14.5752 106.377 -57.541 142.975c-22.707 19.3428 -50.8389 31.2256 -79.4736 38.7852c-31.8857 8.41797 -61.5605 5.78711 -92.7578 -4.17383c-0.974609 -0.313477 -1.93164 -0.523438 -2.875 -0.678711
c-2.15234 -17.0283 -4.0293 -34.0938 -5.60645 -51.1836c-0.316406 -3.44434 -0.654297 -6.91309 -0.995117 -10.3916c0.433594 -5.43457 0.867188 -10.873 1.33594 -16.3047c2.7207 -31.5488 6.72266 -62.9766 10.3701 -94.4287
c3.36133 -29.0068 13.6494 -69.4863 -1.09863 -96.3438c-9.86035 -17.958 -35.3574 -21.9873 -51.7861 -11.2451c-27.6875 18.1025 -36.8037 59.0225 -45.0146 89.1006c-8.55859 31.3525 -14.8438 62.9287 -19.9932 95.0146
c-10.1191 63.0664 -14.6865 126.821 -17.666 190.583c-3.04102 65.0977 -3.00977 130.233 -0.712891 195.355c2.37695 67.3682 5.87598 134.919 16.7666 201.512c4.37109 26.7305 34.2393 41.2646 58.5615 41.0439c21.3086 -0.193359 55.4717 -15.4922 54.1182 -42.1504
c-3.2959 -64.9502 -9.1543 -130.083 -11.6689 -194.74c-2.34863 -60.4414 -2.67969 -121.004 -1.6875 -181.487zM285.679 576.735c-31.6309 -24.9736 -54.5781 -59.6797 -73.8203 -94.6035c-38.168 -69.2686 -60.8887 -145.767 -77.252 -222.968
c8.67285 5.6416 17.2627 11.4521 25.6973 17.583c35.0098 25.4424 66.8369 54.7939 97.252 85.5195c28.6211 28.917 55.7373 60.3623 78.7998 93.9189c22.4219 32.623 46.748 72.0693 39.6357 113.438c-8.95801 52.1035 -62.0635 29.4199 -90.3125 7.1123z" />
    <glyph glyph-name="S" unicode="S" horiz-adv-x="368" 
d="M95.9629 158.915c-78.2822 66.2041 -136.522 158.561 -126.931 264.896c9.03418 100.184 83.9209 195.394 186.743 209.663c50.4883 7.00586 108.168 -11.0381 139.792 -52.4648c34.335 -44.9805 39.8936 -106.301 30.543 -160.516
c-7.23926 -41.9844 -82.8076 -42.9902 -87.2988 0.857422c-2.95508 28.8242 0.661133 59.7422 -8.83398 87.4814c-7.50098 21.9189 -19.876 35.2168 -37.042 41.6641c-14.3965 5.41113 -31.3594 3.10742 -46.4482 -3.87695
c-16.9902 -7.86621 -34.0283 -25.2451 -44.1025 -41.5605c-44.6191 -72.2617 -27.4326 -164.331 21.3027 -231.344c59.0537 -81.2031 166.749 -127.399 188.537 -233.324c10.0225 -48.7314 -6.54785 -93.2158 -41.0312 -127.558
c-30.1055 -29.9883 -67.6504 -46.7236 -110.055 -32.4648c-88.4844 29.751 -121.293 138.718 -77.6963 216.91c8.30371 14.8887 37.8721 6.27148 28.5938 -10.6465c-26.3652 -48.0703 -21.0508 -107.162 16.0088 -148.186
c16.5049 -18.2715 41.4375 -35.5615 67.1064 -34.6455c23.2002 0.826172 46.958 17.1064 52.7197 39.8135c10.877 42.8623 -15.3604 89.5371 -42.6797 120.559c-32.248 36.6182 -72.1758 63.4072 -109.229 94.7422z" />
    <glyph glyph-name="T" unicode="T" horiz-adv-x="511" 
d="M375.403 697.551c22.208 -0.200195 53.9941 -15.3369 53.8809 -41.9668c-0.0107422 -2.47949 -0.0419922 -4.95605 -0.0556641 -7.43555c5.33496 0.0107422 10.6699 0.0175781 16.0049 0.0556641c59.3838 0.410156 118.854 2.51465 177.877 9.42383
c29.3818 3.44043 59.0947 7.52539 87.8945 14.3857c25.3633 6.04102 52.6787 17.0215 58.585 45.2637c4.06055 19.4111 40.1963 16.2422 35.8535 -4.52246c-12.874 -61.5508 -84.9951 -71.876 -136.654 -80.1211c-79.333 -12.6641 -159.558 -15.2852 -239.789 -15.3643
c-1.08105 -118.142 -4.51172 -236.204 -2.62402 -354.397c1.03711 -64.9814 3.01074 -129.986 3.75781 -194.964c0.358398 -31.1973 0.689453 -62.4121 0.489258 -93.6025c-0.216797 -33.918 5.38672 -68.873 -11.4619 -99.585
c-7.75293 -14.1318 -30.0811 -19.3398 -43.124 -9.36523c-15.6777 11.9893 -25.5449 24.2783 -31.4512 43.1904c-5.01172 16.0459 -9.30273 32.2646 -12.8125 48.707c-6.7334 31.542 -9.77148 63.4561 -12.7646 95.542c-6.11035 65.5283 -8.15625 132.015 -9.47559 197.795
c-2.45605 122.382 -3.17285 245.263 4.77637 367.479c-58.0234 0.464844 -116.099 0.419922 -174.043 -2.96191c-28.6035 -1.6709 -57.1318 -4.23633 -85.5635 -7.7627c-27.6494 -3.43359 -56.1807 -6.20605 -66.293 -36.2871
c-4.42578 -13.1641 -30.1777 -16.9248 -31.2832 0.306641c-4.07812 63.6035 91.1807 67.1885 133.758 71.1318c75.041 6.9502 150.323 7.0293 225.616 6.38184c0.203125 2.60059 0.378906 5.20117 0.588867 7.80176c2.15625 26.6543 35.7266 41.0752 58.3135 40.8721z" />
    <glyph glyph-name="U" unicode="U" horiz-adv-x="543" 
d="M427.637 634.347c-2.51758 -69.2656 -6.53223 -138.434 -8.71191 -207.73c-1.88379 -59.8184 -2.55859 -119.764 -0.925781 -179.596c1.55371 -56.9287 0.923828 -115.383 11.6592 -171.529c4.0918 -21.3887 9.90234 -45.4775 24.3574 -62.4229
c17.4277 -20.4277 37.9893 -2.38379 50.04 14.499c29.5439 41.3887 40.8027 99.5195 48.8486 148.723c2.54883 15.5713 29.7676 12.9229 28.2383 -3.56055c-3.47168 -37.4346 -10.9248 -73.8184 -23.4756 -109.297c-9.48145 -26.8057 -22.1768 -53.5566 -43.9131 -72.6338
c-21.0752 -18.499 -47.9326 -35.3965 -77.1016 -31.6357c-32.0723 4.13281 -53.8945 27.1191 -69.9404 53.3262c-34.6514 56.6016 -44.2852 128.926 -51.4727 193.721c-4.87012 43.9131 -6.62988 88.4805 -7.28809 132.972
c-4.53906 -21.209 -9.18164 -42.3975 -14.0273 -63.541c-10.2881 -44.8809 -20.7373 -89.875 -34.2178 -133.923c-11.7959 -38.54 -25.1934 -78.9639 -47.0469 -113.12c-20.5166 -32.0684 -49.8262 -67.5605 -92.1133 -62.4111
c-42.8008 5.21094 -76.3916 47.1123 -93.4297 83.6377c-18.6152 39.9141 -27.7666 85.2568 -35.8018 128.302c-8.15625 43.6924 -12.417 87.6055 -14.125 132.004c-3.56445 92.7959 0.624023 187.896 16.1777 279.528c5.125 30.2051 40.1387 43.8857 67.0273 41.499
c29.9473 -2.65918 48.5283 -27.1816 46.3994 -55.8057c-6.66797 -89.6416 -16.9971 -176.624 -14.9756 -266.196c1.73926 -76.9805 8.41406 -155.432 25.3975 -230.673c3.87109 -17.1484 11.5137 -64.3545 36.3252 -62.3428c16.0947 1.30566 29.627 30.6426 36.1162 42.9141
c8.2041 15.5195 15.0645 31.7793 21.3467 48.1602c29.3955 76.6641 46.4609 158.7 64.3701 238.636c11.9648 53.4053 23.0137 107.003 33.542 160.708c1.4668 43.083 4.21875 86.1318 8.91699 128.867c2.86523 26.0898 34.3965 40.2002 57.0664 39.9971
c21.0615 -0.189453 53.6846 -15.0645 52.7373 -41.0752z" />
    <glyph glyph-name="U" unicode="&#xdc;" horiz-adv-x="543" 
d="M427.637 634.347c-2.51758 -69.2656 -6.53223 -138.434 -8.71191 -207.73c-1.88379 -59.8184 -2.55859 -119.764 -0.925781 -179.596c1.55371 -56.9287 0.923828 -115.383 11.6592 -171.529c4.0918 -21.3887 9.90234 -45.4775 24.3574 -62.4229
c17.4277 -20.4277 37.9893 -2.38379 50.04 14.499c29.5439 41.3887 40.8027 99.5195 48.8486 148.723c2.54883 15.5713 29.7676 12.9229 28.2383 -3.56055c-3.47168 -37.4346 -10.9248 -73.8184 -23.4756 -109.297c-9.48145 -26.8057 -22.1768 -53.5566 -43.9131 -72.6338
c-21.0752 -18.499 -47.9326 -35.3965 -77.1016 -31.6357c-32.0723 4.13281 -53.8945 27.1191 -69.9404 53.3262c-34.6514 56.6016 -44.2852 128.926 -51.4727 193.721c-4.87012 43.9131 -6.62988 88.4805 -7.28809 132.972
c-4.53906 -21.209 -9.18164 -42.3975 -14.0273 -63.541c-10.2881 -44.8809 -20.7373 -89.875 -34.2178 -133.923c-11.7959 -38.54 -25.1934 -78.9639 -47.0469 -113.12c-20.5166 -32.0684 -49.8262 -67.5605 -92.1133 -62.4111
c-42.8008 5.21094 -76.3916 47.1123 -93.4297 83.6377c-18.6152 39.9141 -27.7666 85.2568 -35.8018 128.302c-8.15625 43.6924 -12.417 87.6055 -14.125 132.004c-3.56445 92.7959 0.624023 187.896 16.1777 279.528c5.125 30.2051 40.1387 43.8857 67.0273 41.499
c29.9473 -2.65918 48.5283 -27.1816 46.3994 -55.8057c-6.66797 -89.6416 -16.9971 -176.624 -14.9756 -266.196c1.73926 -76.9805 8.41406 -155.432 25.3975 -230.673c3.87109 -17.1484 11.5137 -64.3545 36.3252 -62.3428c16.0947 1.30566 29.627 30.6426 36.1162 42.9141
c8.2041 15.5195 15.0645 31.7793 21.3467 48.1602c29.3955 76.6641 46.4609 158.7 64.3701 238.636c11.9648 53.4053 23.0137 107.003 33.542 160.708c1.4668 43.083 4.21875 86.1318 8.91699 128.867c2.86523 26.0898 34.3965 40.2002 57.0664 39.9971
c21.0615 -0.189453 53.6846 -15.0645 52.7373 -41.0752z" />
    <glyph glyph-name="U" unicode="&#xdb;" horiz-adv-x="543" 
d="M427.637 634.347c-2.51758 -69.2656 -6.53223 -138.434 -8.71191 -207.73c-1.88379 -59.8184 -2.55859 -119.764 -0.925781 -179.596c1.55371 -56.9287 0.923828 -115.383 11.6592 -171.529c4.0918 -21.3887 9.90234 -45.4775 24.3574 -62.4229
c17.4277 -20.4277 37.9893 -2.38379 50.04 14.499c29.5439 41.3887 40.8027 99.5195 48.8486 148.723c2.54883 15.5713 29.7676 12.9229 28.2383 -3.56055c-3.47168 -37.4346 -10.9248 -73.8184 -23.4756 -109.297c-9.48145 -26.8057 -22.1768 -53.5566 -43.9131 -72.6338
c-21.0752 -18.499 -47.9326 -35.3965 -77.1016 -31.6357c-32.0723 4.13281 -53.8945 27.1191 -69.9404 53.3262c-34.6514 56.6016 -44.2852 128.926 -51.4727 193.721c-4.87012 43.9131 -6.62988 88.4805 -7.28809 132.972
c-4.53906 -21.209 -9.18164 -42.3975 -14.0273 -63.541c-10.2881 -44.8809 -20.7373 -89.875 -34.2178 -133.923c-11.7959 -38.54 -25.1934 -78.9639 -47.0469 -113.12c-20.5166 -32.0684 -49.8262 -67.5605 -92.1133 -62.4111
c-42.8008 5.21094 -76.3916 47.1123 -93.4297 83.6377c-18.6152 39.9141 -27.7666 85.2568 -35.8018 128.302c-8.15625 43.6924 -12.417 87.6055 -14.125 132.004c-3.56445 92.7959 0.624023 187.896 16.1777 279.528c5.125 30.2051 40.1387 43.8857 67.0273 41.499
c29.9473 -2.65918 48.5283 -27.1816 46.3994 -55.8057c-6.66797 -89.6416 -16.9971 -176.624 -14.9756 -266.196c1.73926 -76.9805 8.41406 -155.432 25.3975 -230.673c3.87109 -17.1484 11.5137 -64.3545 36.3252 -62.3428c16.0947 1.30566 29.627 30.6426 36.1162 42.9141
c8.2041 15.5195 15.0645 31.7793 21.3467 48.1602c29.3955 76.6641 46.4609 158.7 64.3701 238.636c11.9648 53.4053 23.0137 107.003 33.542 160.708c1.4668 43.083 4.21875 86.1318 8.91699 128.867c2.86523 26.0898 34.3965 40.2002 57.0664 39.9971
c21.0615 -0.189453 53.6846 -15.0645 52.7373 -41.0752z" />
    <glyph glyph-name="U" unicode="&#xda;" horiz-adv-x="543" 
d="M427.637 634.347c-2.51758 -69.2656 -6.53223 -138.434 -8.71191 -207.73c-1.88379 -59.8184 -2.55859 -119.764 -0.925781 -179.596c1.55371 -56.9287 0.923828 -115.383 11.6592 -171.529c4.0918 -21.3887 9.90234 -45.4775 24.3574 -62.4229
c17.4277 -20.4277 37.9893 -2.38379 50.04 14.499c29.5439 41.3887 40.8027 99.5195 48.8486 148.723c2.54883 15.5713 29.7676 12.9229 28.2383 -3.56055c-3.47168 -37.4346 -10.9248 -73.8184 -23.4756 -109.297c-9.48145 -26.8057 -22.1768 -53.5566 -43.9131 -72.6338
c-21.0752 -18.499 -47.9326 -35.3965 -77.1016 -31.6357c-32.0723 4.13281 -53.8945 27.1191 -69.9404 53.3262c-34.6514 56.6016 -44.2852 128.926 -51.4727 193.721c-4.87012 43.9131 -6.62988 88.4805 -7.28809 132.972
c-4.53906 -21.209 -9.18164 -42.3975 -14.0273 -63.541c-10.2881 -44.8809 -20.7373 -89.875 -34.2178 -133.923c-11.7959 -38.54 -25.1934 -78.9639 -47.0469 -113.12c-20.5166 -32.0684 -49.8262 -67.5605 -92.1133 -62.4111
c-42.8008 5.21094 -76.3916 47.1123 -93.4297 83.6377c-18.6152 39.9141 -27.7666 85.2568 -35.8018 128.302c-8.15625 43.6924 -12.417 87.6055 -14.125 132.004c-3.56445 92.7959 0.624023 187.896 16.1777 279.528c5.125 30.2051 40.1387 43.8857 67.0273 41.499
c29.9473 -2.65918 48.5283 -27.1816 46.3994 -55.8057c-6.66797 -89.6416 -16.9971 -176.624 -14.9756 -266.196c1.73926 -76.9805 8.41406 -155.432 25.3975 -230.673c3.87109 -17.1484 11.5137 -64.3545 36.3252 -62.3428c16.0947 1.30566 29.627 30.6426 36.1162 42.9141
c8.2041 15.5195 15.0645 31.7793 21.3467 48.1602c29.3955 76.6641 46.4609 158.7 64.3701 238.636c11.9648 53.4053 23.0137 107.003 33.542 160.708c1.4668 43.083 4.21875 86.1318 8.91699 128.867c2.86523 26.0898 34.3965 40.2002 57.0664 39.9971
c21.0615 -0.189453 53.6846 -15.0645 52.7373 -41.0752z" />
    <glyph glyph-name="V" unicode="V" horiz-adv-x="490" 
d="M20.2002 640.808c22.0322 2.31836 51.5068 -10.9199 52.8262 -36.1279c8.83398 -168.75 1.42578 -342.411 50.4082 -506.343c9.64355 -32.2686 22.001 -65.7598 39.0117 -94.918c10.4492 -17.9062 29.0439 -44.3096 52.8086 -38.5957
c28.0186 6.74023 44.5371 42.3457 55.8545 65.9619c15.7842 32.9365 28.7168 67.1748 39.6104 102.02c7.27734 23.2793 13.666 46.9336 19.4561 70.7744c-13.7559 10.8838 -26.5303 23.1143 -38.0098 36.3154c-54.2383 62.3701 -85.0947 144.097 -89.0146 226.412
c-3.2959 69.1758 10.2539 149.019 52.8926 205.517c19.1943 25.4355 50.0127 49.3936 83.1006 34.9971c33.5703 -14.6035 46.751 -56.4502 53.5977 -89.1455c18.0098 -85.9971 8.68945 -180.67 -3.73047 -266.815c-6.50293 -45.084 -14.5449 -90.2744 -24.6396 -134.977
c43.0381 -30.2773 95.9404 -45.3418 148.017 -26.9951c17.7197 6.24414 29.8711 -17.4619 10.9072 -24.5332c-57.7793 -21.5361 -116.612 -9.52246 -166.277 20.5518c-7.73535 -31.0215 -16.5283 -61.7402 -26.5918 -91.9355
c-19.8623 -59.5879 -48.3418 -148.509 -117.305 -167.617c-86.6553 -24.0088 -149.05 63.6074 -176.807 133.107c-32.7607 82.0264 -45.2666 173.744 -52.4648 261.274c-7.48047 90.9736 -10.6768 183.508 -7.80762 274.758
c0.798828 25.4111 18.3604 43.6035 44.1572 46.3145zM324.836 250.761c4.19141 -4.56738 8.5791 -9.00098 13.125 -13.2852c8.61719 39.9902 15.5674 80.373 21.3428 120.535c11.0967 77.1523 17.4756 157.622 7.01562 235.229
c-2.59375 19.2217 -6.92969 38.0479 -14.7656 55.8545c-5.42773 12.3369 -15.2402 31.5967 -30.0918 34.8516c-16.5908 3.63379 -33.4814 -18.6738 -41.3789 -30.4941c-8.5 -12.7197 -15.0576 -26.7373 -20.6201 -40.9551
c-23.293 -59.5186 -28.7832 -125.302 -18.1133 -188.137c10.8867 -64.1338 39.4248 -125.526 83.4863 -173.6z" />
    <glyph glyph-name="W" unicode="W" horiz-adv-x="769" 
d="M16.5537 604.348c14.4795 50.6152 103.656 45.2207 96.2998 -12.1416c-10.3672 -80.8486 -24.3301 -160.895 -29.7686 -242.346c-4.57422 -68.5117 -6.67871 -137.344 -1.3916 -205.879c2.37988 -30.8359 5.89258 -62.8701 14.1309 -92.748
c5.8584 -21.2646 19.249 -55.7822 44.3604 -59.0371c36.0361 -4.66992 50.5459 33.4844 59.7588 61.2061c10.8867 32.7539 19.4004 66.2764 26.1367 100.119c11.0967 55.7471 17.2412 112.331 21.1162 169.021c-0.361328 11.6514 -0.564453 23.2617 -0.609375 34.7822
c-0.103516 27.9082 20.4824 45.6904 47.2266 49.5342c23.8682 3.43359 54.5898 -12.3545 56.4941 -38.6299c5.51367 -76.0674 6.83594 -152.146 27.2705 -225.954c9.31348 -33.6387 22.8799 -67.7217 40.0107 -98.1504c12.6543 -22.4736 30.9258 -51.043 56.7051 -59.7979
c30.96 -10.5146 54.9727 17.1074 69.624 40.4209c17.2207 27.4082 30.3984 57.7139 40.6143 88.3672c5.7832 17.3486 10.7051 34.959 14.9893 52.7305c-77.8242 31.1797 -143.146 93.5918 -174.034 175.432c-24.8672 65.8867 -25.3525 139.63 -2.10449 206.058
c20.5371 58.6777 66.0273 139.746 137.831 138.6c79.6016 -1.27051 94.2637 -105.363 100.521 -165.667c8.78223 -84.5957 2.85156 -170.228 -8.29688 -254.31c-3.68555 -27.7979 -8.09082 -55.665 -13.832 -83.2324c48.5352 -13.8555 101.172 -15.0195 152.331 -2.10742
c16.3076 4.1123 28.1729 -16.7109 10.0596 -22.6279c-56.0947 -18.3232 -114.56 -18.2754 -168.798 -3.45508c-9.46777 -38.3096 -22.0283 -75.7617 -39.5312 -111.288c-29.9121 -60.7207 -91.2012 -133.113 -167.572 -105.422
c-70.5742 25.5869 -119.082 104.476 -143.302 171.465c-7.74902 21.4326 -13.8965 43.5371 -18.8184 66.0176c-4.3125 -25.666 -9.54395 -51.1768 -16.0254 -76.4463c-15.2236 -59.3633 -37.2871 -147.406 -116.93 -135.407
c-34.4619 5.19043 -65.7109 16.8838 -90.6436 41.9541c-27.9014 28.0557 -41.2334 64.9873 -49.8164 102.787c-18.3398 80.7832 -16.043 165.771 -10.8701 247.967c5.23145 83.1279 13.8975 167.889 36.8633 248.186zM478.31 306.995
c30.3125 -51.9961 75.5225 -90.0234 127.608 -112.328c7.4873 37.0283 12.585 74.6006 16.8145 112.008c8.25195 72.9609 11.2451 146.779 2.7793 219.868c-5.7002 49.207 -29.3447 172.236 -103.56 115.786c-47.4229 -36.0703 -72.8066 -105.229 -79.8848 -162.269
c-7.46387 -60.1348 5.7959 -120.835 36.2422 -173.065z" />
    <glyph glyph-name="X" unicode="X" horiz-adv-x="447" 
d="M378.491 611.963c-62.6318 5.06934 -109.303 -59.6484 -142.887 -103.703c-25.9795 -34.0732 -48.9834 -70.2402 -69.7588 -107.709c0.189453 -4.73535 0.40332 -9.46777 0.647461 -14.2031c3.65039 -70.3711 11.5889 -141.008 25.3965 -210.143
c11.6064 -58.1104 27.3975 -118.731 59.2832 -169.398c12.5195 -19.9004 30.3467 -39.3223 53.9775 -45.3633c31.4043 -8.03223 58.2822 18.7256 74.7939 42.2393c37.8896 53.9561 59.416 122.519 73.1172 186.328c3.66113 17.0586 35.3955 14.3105 31.5693 -3.98145
c-8.86914 -42.4111 -21.7051 -83.8379 -38.5742 -123.759c-15.2783 -36.1602 -33.167 -74.5107 -62.7451 -101.334c-23.0479 -20.8994 -55.0928 -37.8623 -86.5312 -40.0049c-33.3291 -2.26953 -65.6973 10.8564 -92.6201 29.7197
c-61.623 43.1826 -94.6904 117.046 -113.468 187.575c-5.62109 21.1191 -10.3496 42.3389 -14.3486 63.6445c-16.0635 -43.3926 -30.4355 -87.4121 -47.4736 -130.43c-10.0811 -25.4385 -21.7432 -50.2295 -36.5742 -73.2812
c-11.0215 -17.1348 -24.416 -30.6328 -46.0664 -28.9453c-18.9326 1.47363 -11.6865 24.832 5.13477 24.2227c9.35059 -0.337891 19.6904 26.6748 23.2002 33.6836c7.21582 14.417 13.6494 29.3027 19.8008 44.2021c11.8896 28.7969 21.6777 58.3926 32.0244 87.7607
c12.6025 35.7715 25.8389 71.4258 40.1387 106.632c-4.53906 37.2451 -7.19824 74.7627 -8.53809 112.559c-2.95898 83.3896 -2.9209 168.164 3.67773 251.368c1.92578 24.2637 32.5479 37.3926 53.085 37.207c20.9336 -0.189453 48.2598 -13.9248 49.0586 -38.21
c1.83887 -55.7715 0.419922 -111.543 0.744141 -167.331c25.9414 41.2715 55.0312 81.0615 88.1572 116.805c34.8203 37.5762 78.6719 67.1963 131.953 62.9736c22.4355 -1.77734 14.4141 -30.791 -6.1748 -29.124z" />
    <glyph glyph-name="Y" unicode="Y" horiz-adv-x="444" 
d="M-19.0859 653.334c9.29199 55.4062 107.895 46.4121 101.048 -12.7451c-6.36133 -55.0273 -15.5576 -110.055 -12.623 -165.603c1.37793 -26.124 3.87793 -52.4922 10.5459 -77.8828c4.19824 -15.9883 14.124 -38.5273 30.9727 -45.1953
c21.6055 -8.54883 44.8262 30.5703 53.0986 45.4873c12.9639 23.376 23.4268 48.4844 32.54 73.5781c19.125 52.6611 31.0898 107.619 36.5078 163.346c0.0996094 1.03711 0.336914 1.98438 0.657227 2.8623c0.279297 25.4521 28.0703 42.7139 50.5879 45.9512
c28.4834 4.0918 53.54 -13.832 59.9082 -40.9648c25.9072 -110.389 38.9775 -223.888 41.3916 -337.242c2.11133 -99.0605 0.158203 -202.65 -33.5361 -296.973c-15.5879 -43.6406 -35.3682 -86.2139 -72.8096 -115.444
c-31.7822 -24.8154 -81.3682 -34.6934 -119.461 -20.335c-74.1182 27.9395 -112.527 113.854 -111.749 188.692c0.46875 45.1182 12.2861 88.8213 30.3096 129.965c16.9141 38.6191 37.8135 78.8398 71.4424 105.388c11.1797 8.82422 32.0371 -6.54395 19.6484 -17.5479
c-31.7998 -28.2451 -52.3613 -74.9717 -67.0957 -114.143c-15.3613 -40.8301 -23.7168 -85.1289 -18.2031 -128.704c4.3291 -34.2109 16.9658 -68.002 38.6299 -95.0732c20.4346 -25.5352 63.5654 -61.1543 96.4297 -36.6113
c28.7764 21.4883 39.3428 59.4707 47.4297 92.6377c9.26465 37.9922 14.4072 77.8545 15.8506 116.925c3.14844 85.2295 -4.49805 171.351 -12.0957 256.167c-5.19043 57.9141 -12.9297 115.662 -21.8428 173.193c-6.32031 -29.7305 -14.6416 -59.0303 -25.0498 -87.6992
c-15.1719 -41.7705 -32.3379 -88.8457 -67.8398 -117.787c-41.0098 -33.4287 -95.0146 -34.3242 -133.004 4.4502c-35.9092 36.6494 -48.6455 95.2998 -52.2373 144.692c-4.05078 55.7197 1.33887 111.674 10.5488 166.615z" />
    <glyph glyph-name="Y" unicode="&#x178;" horiz-adv-x="444" 
d="M-19.0859 653.334c9.29199 55.4062 107.895 46.4121 101.048 -12.7451c-6.36133 -55.0273 -15.5576 -110.055 -12.623 -165.603c1.37793 -26.124 3.87793 -52.4922 10.5459 -77.8828c4.19824 -15.9883 14.124 -38.5273 30.9727 -45.1953
c21.6055 -8.54883 44.8262 30.5703 53.0986 45.4873c12.9639 23.376 23.4268 48.4844 32.54 73.5781c19.125 52.6611 31.0898 107.619 36.5078 163.346c0.0996094 1.03711 0.336914 1.98438 0.657227 2.8623c0.279297 25.4521 28.0703 42.7139 50.5879 45.9512
c28.4834 4.0918 53.54 -13.832 59.9082 -40.9648c25.9072 -110.389 38.9775 -223.888 41.3916 -337.242c2.11133 -99.0605 0.158203 -202.65 -33.5361 -296.973c-15.5879 -43.6406 -35.3682 -86.2139 -72.8096 -115.444
c-31.7822 -24.8154 -81.3682 -34.6934 -119.461 -20.335c-74.1182 27.9395 -112.527 113.854 -111.749 188.692c0.46875 45.1182 12.2861 88.8213 30.3096 129.965c16.9141 38.6191 37.8135 78.8398 71.4424 105.388c11.1797 8.82422 32.0371 -6.54395 19.6484 -17.5479
c-31.7998 -28.2451 -52.3613 -74.9717 -67.0957 -114.143c-15.3613 -40.8301 -23.7168 -85.1289 -18.2031 -128.704c4.3291 -34.2109 16.9658 -68.002 38.6299 -95.0732c20.4346 -25.5352 63.5654 -61.1543 96.4297 -36.6113
c28.7764 21.4883 39.3428 59.4707 47.4297 92.6377c9.26465 37.9922 14.4072 77.8545 15.8506 116.925c3.14844 85.2295 -4.49805 171.351 -12.0957 256.167c-5.19043 57.9141 -12.9297 115.662 -21.8428 173.193c-6.32031 -29.7305 -14.6416 -59.0303 -25.0498 -87.6992
c-15.1719 -41.7705 -32.3379 -88.8457 -67.8398 -117.787c-41.0098 -33.4287 -95.0146 -34.3242 -133.004 4.4502c-35.9092 36.6494 -48.6455 95.2998 -52.2373 144.692c-4.05078 55.7197 1.33887 111.674 10.5488 166.615z" />
    <glyph glyph-name="Y" unicode="&#xdd;" horiz-adv-x="444" 
d="M-19.0859 653.334c9.29199 55.4062 107.895 46.4121 101.048 -12.7451c-6.36133 -55.0273 -15.5576 -110.055 -12.623 -165.603c1.37793 -26.124 3.87793 -52.4922 10.5459 -77.8828c4.19824 -15.9883 14.124 -38.5273 30.9727 -45.1953
c21.6055 -8.54883 44.8262 30.5703 53.0986 45.4873c12.9639 23.376 23.4268 48.4844 32.54 73.5781c19.125 52.6611 31.0898 107.619 36.5078 163.346c0.0996094 1.03711 0.336914 1.98438 0.657227 2.8623c0.279297 25.4521 28.0703 42.7139 50.5879 45.9512
c28.4834 4.0918 53.54 -13.832 59.9082 -40.9648c25.9072 -110.389 38.9775 -223.888 41.3916 -337.242c2.11133 -99.0605 0.158203 -202.65 -33.5361 -296.973c-15.5879 -43.6406 -35.3682 -86.2139 -72.8096 -115.444
c-31.7822 -24.8154 -81.3682 -34.6934 -119.461 -20.335c-74.1182 27.9395 -112.527 113.854 -111.749 188.692c0.46875 45.1182 12.2861 88.8213 30.3096 129.965c16.9141 38.6191 37.8135 78.8398 71.4424 105.388c11.1797 8.82422 32.0371 -6.54395 19.6484 -17.5479
c-31.7998 -28.2451 -52.3613 -74.9717 -67.0957 -114.143c-15.3613 -40.8301 -23.7168 -85.1289 -18.2031 -128.704c4.3291 -34.2109 16.9658 -68.002 38.6299 -95.0732c20.4346 -25.5352 63.5654 -61.1543 96.4297 -36.6113
c28.7764 21.4883 39.3428 59.4707 47.4297 92.6377c9.26465 37.9922 14.4072 77.8545 15.8506 116.925c3.14844 85.2295 -4.49805 171.351 -12.0957 256.167c-5.19043 57.9141 -12.9297 115.662 -21.8428 173.193c-6.32031 -29.7305 -14.6416 -59.0303 -25.0498 -87.6992
c-15.1719 -41.7705 -32.3379 -88.8457 -67.8398 -117.787c-41.0098 -33.4287 -95.0146 -34.3242 -133.004 4.4502c-35.9092 36.6494 -48.6455 95.2998 -52.2373 144.692c-4.05078 55.7197 1.33887 111.674 10.5488 166.615z" />
    <glyph glyph-name="Z" unicode="Z" horiz-adv-x="544" 
d="M553.828 142.834c13.584 13.9766 42.9287 -2.43945 27.2197 -18.6064c-67.5576 -69.5 -168.875 -83.8691 -261.454 -77.3799c-16.5488 1.16113 -33.0322 2.91797 -49.4883 4.90918c-42.4082 -44.8154 -93.9365 -85.959 -151.603 -103.737
c-41.0996 -12.6709 -89.5488 -13.2842 -126.821 10.3809c-16.1113 10.2295 -29.6299 25.6426 -33.7314 44.5752c-3.46094 15.9707 3.20996 29.8164 9.6709 44.0684c28.7617 63.4209 124.409 56.4258 180.591 51.2627c5.43848 -0.499023 10.9521 -1.07422 16.5176 -1.69727
c8.25879 7.47363 16.5557 15.585 25.3145 24.7949c44.502 46.7852 80.748 99.4736 108.887 159.161c-14.7373 -2.85547 -29.7295 -3.83008 -44.6631 -0.744141c-17.7373 3.66113 -40.0215 13.5635 -42.9873 33.3018c-2.38379 15.8604 26.0303 18.7949 28.5791 3.00391
c1.8457 -11.4521 28.1523 -13.5703 36.6289 -13.3223c12.1094 0.354492 23.8682 3.5957 35.3926 7.13672c1.05762 2.56543 2.13184 5.11426 3.16211 7.7041c27.4082 69.0244 43.582 146.614 41.1846 222.575c-1.13672 36.1016 -4.06055 74.3867 -20.3828 107.269
c-19.2637 38.8086 -64.417 48.2598 -104.024 37.7588c-74.2217 -19.6768 -143.725 -96.9883 -148.681 -174.224c-1.06055 -16.5625 -31.0732 -13.876 -30.1396 3.80273c3.90234 73.8604 60.084 140.76 121.827 177.02c67.0957 39.4043 146.983 33.3975 200.854 -25.1709
c44.5605 -48.4453 60.5996 -121.703 65.1836 -185.44c3.49609 -48.6387 -1.1875 -97.0947 -12.3848 -144.177c15.3057 1.81543 30.7188 2.87598 46.0039 2.7832c19.6318 -0.120117 38.668 -7.39453 41.709 -28.9072c2.46973 -17.4727 -29 -20.7822 -31.4697 -3.30664
c-1.37793 9.75391 -39.209 5.68262 -63.4941 2.125c-3.86426 -13.126 -8.21094 -26.124 -13.0293 -38.9639c-25.5146 -68.0156 -62.1885 -129.855 -108.612 -185.724c-1.50879 -1.81543 -3.03809 -3.6377 -4.57715 -5.45605
c94.4355 -10.0703 190.159 -7.4082 258.818 63.2246zM92.0283 43.5c14.1318 8.76855 26.4629 16.8457 37.9287 25.0908c-38.9014 3.5752 -101.991 6.62695 -114.362 -30.1426c3.19629 -2.58691 8.14258 -5.56641 11.3662 -7.10547
c7.52539 -3.5918 7.53906 -3.60254 13.5977 -3.48926c-2.36621 -0.0449219 -7.00879 -0.547852 3.39258 -0.00390625c3.71973 0.113281 7.42578 0.429688 11.1113 0.943359c1.03711 0.168945 1.88477 0.310547 2.64551 0.43457
c1.5498 0.685547 11.6582 3.94336 10.542 3.52637c5.39355 2.02148 10.6807 4.3877 15.957 6.70215c2.00781 0.881836 3.39941 1.46094 4.3291 1.81543c0.8125 0.541016 1.93164 1.26074 3.49219 2.22852z" />
    <glyph glyph-name="bracketleft" unicode="[" horiz-adv-x="297" 
d="M218.886 -85.8145c22.9385 3.62988 39.208 -25.9561 17.1855 -39.2061c-32.1201 -19.332 -74.0078 -25.2832 -106.779 -3.37109c-31.2656 20.9023 -42.9824 55.1133 -52.0918 89.6924c-35.2852 133.957 -28.8857 273.866 -21.1084 410.834
c3.88477 68.4014 8.48633 137.478 30.4639 202.899c9.76465 29.0684 22.1943 54.4238 49.5957 70.1572c22.2422 12.7744 44.8428 20.252 69.8545 10.2744c15.9883 -6.37891 6.08594 -28.1738 -9.11621 -24.54c-60.1797 14.376 -53.4531 -99.2949 -54.5586 -133.213
c-1.79785 -55.2031 -0.213867 -110.706 0.333984 -165.93c0.554688 -56.0537 0.922852 -112.283 3.9541 -168.265c2.96582 -54.7412 9.46875 -109.304 18.9268 -163.302c4.62598 -26.4131 13.4395 -92.3447 53.3398 -86.0312z" />
    <glyph glyph-name="backslash" unicode="\" horiz-adv-x="466" 
d="M412.116 -154.653c16.2666 -25.4766 -17.6367 -47.752 -39.9102 -32.6182c-24.96 16.9561 -42.498 46.3555 -58.4619 71.2363c-17.834 27.7939 -33.3193 57.2412 -48.5391 86.541c-51.6348 99.416 -92.6104 204.415 -128.633 310.364
c-36.6738 107.864 -71.3672 220.33 -86.2559 333.533c-3.21387 24.4395 18.6328 42.3145 39.8555 47.3535c19.5283 4.63574 52.7373 -2.29785 59.3809 -25.2393c17.3066 -59.7666 31.001 -120.453 47.4639 -180.44c28.7832 -104.868 62.4189 -208.541 101.741 -309.94
c19.8281 -51.1318 40.2656 -101.957 60.6826 -152.852c10.1641 -25.3389 21.54 -50.2646 30.9424 -75.8857c5.35938 -14.6064 10.7256 -28.8652 14.6963 -43.9062c2.07715 -7.87012 2.7627 -21.4541 7.03711 -28.1465z" />
    <glyph glyph-name="bracketright" unicode="]" horiz-adv-x="314" 
d="M254.334 342.054c4.43652 -68.0186 9.96582 -136.208 10.0967 -204.396c0.0693359 -36.2734 -1.22266 -72.6953 -4.9043 -108.794c-3.0791 -30.2051 -8.55176 -61.75 -24.2021 -88.3145c-33.3496 -56.6182 -111.835 -91.1875 -172.294 -55.6816
c-23.7334 13.9316 -11.9717 46.8369 10.708 53.8213c5.71387 1.75977 11.541 3.04395 17.2373 4.82422c2.60059 0.8125 5.15234 1.79785 7.67383 2.82812c0.209961 0.0996094 0.433594 0.206055 0.695312 0.330078c9.43359 4.4707 17.8301 8.61035 24.9014 14.1758
c0.196289 0.331055 4.45703 4.22266 4.94629 4.70801c1.73633 1.72559 3.37891 3.54785 5.125 5.2666c0.895508 0.881836 2.41797 2.72461 2.87305 3.19336c1.0332 1.61914 2.01172 3.29004 2.94531 4.94629c6.04785 10.7041 8.03906 18.4229 10.6191 31.1279
c10.3945 51.2217 10.2393 104.806 9.5918 156.833c-0.702148 56.1572 -0.0205078 112.321 -0.213867 168.481c-0.189453 53.9834 0.241211 107.888 -3.46777 161.789c-1.8291 26.5059 -6.17578 52.8779 -7.37109 79.4082c-0.547852 12.251 1.98047 25.8281 -3.80273 37.1045
c-5.28711 10.3047 -15.3955 18.1709 -26.7715 12.7598c-13.4873 -6.41602 -27.1846 12.4404 -13.3457 21.0439c25.1904 15.6641 55.1172 4.36719 70.8672 -18.9941c19.5625 -29.0137 36.0498 -56.8154 45.8242 -90.7305c18.416 -63.8721 27.9492 -129.479 32.2686 -195.731z
" />
    <glyph glyph-name="asciicircum" unicode="^" horiz-adv-x="273" 
d="M211.059 518.336c6.76758 -31.3037 10.7969 -64.457 12.3604 -96.4219c2.35547 -48.3418 -79.75 -57.2451 -86.3838 -9.07812c-2.51758 18.2881 -4.28809 36.6631 -6.75781 54.958c-1.12988 -1.45703 -2.25977 -2.91406 -3.39648 -4.37402
c-13.6318 -17.5312 -28.4902 -34.6729 -41.6396 -52.3516c-6.79492 -9.1377 -24.5293 -6.7959 -28.9795 3.37793c-12.5713 28.7412 -4.62207 59.7012 9.80176 86.748c14.2793 26.7754 35.3711 58.7686 65.3389 68.877c41.0508 13.8418 71.4561 -13.8184 79.6562 -51.7354z
M163.725 503.227c0.84082 0.80957 0.916016 1.28125 0.237305 1.41211c-0.575195 -0.520508 -1.14648 -1.04395 -1.72168 -1.56738c0.496094 0.0517578 0.988281 0.103516 1.48438 0.155273z" />
    <glyph glyph-name="underscore" unicode="_" horiz-adv-x="372" 
d="M321.481 -41.0166c2.35254 -22.4004 -18.9492 -39.4277 -39.5518 -41.4805c-36.3633 -3.62012 -73.3223 -2.88672 -109.83 -2.75977c-18.915 0.0654297 -37.834 0.0791016 -56.749 0.199219c-16.6699 0.106445 -34.3828 -0.333984 -50.2607 5.16602
c-16.6973 5.78613 -21.585 30.4395 -4.10547 39.0674c30.8594 15.2334 70.5322 15.7842 104.299 20.417c36.0566 4.94629 72.4785 10.5293 108.887 11.7451c20.6543 0.685547 44.8184 -8.62793 47.3115 -32.3545z" />
    <glyph glyph-name="grave" unicode="`" horiz-adv-x="172" 
d="M118.06 448.771c7.44629 -6.77148 2.23047 -18.04 -4.46191 -22.6484c-26.0615 -17.958 -48.8721 7.68359 -56.4385 31.1182c-8.85449 27.4189 -8.90234 57.6797 -3.37402 85.6943c5.43164 27.5186 54.29 28.5312 57.6172 -0.568359
c1.94629 -17.0557 1.60156 -34.1113 2.10449 -51.2568c0.230469 -7.94531 0.271484 -38.4434 4.55273 -42.3389z" />
    <glyph glyph-name="a" unicode="a" horiz-adv-x="407" 
d="M408.358 173.643c4.69434 14.3691 32.127 13.0732 28.2383 -3.5625c-7.36035 -31.4766 -15.8916 -62.5391 -24.8877 -93.585c-7.93164 -27.3711 -16.2422 -55.2725 -30.4668 -80.1533c-13.5391 -23.6816 -29.6992 -39.5459 -57.1221 -43.6992
c-27.3604 -4.14355 -54.4658 7.29492 -71.9824 28.8486c-31.917 39.2705 -40.5723 95.1074 -44.1162 146.742c-3.6748 -15.2607 -7.81836 -30.4219 -12.6123 -45.4414c-9.91211 -31.0664 -20.248 -61.8154 -44.5117 -84.6055
c-28.0732 -26.3682 -63.1826 -30.1494 -96.9873 -10.5146c-32.1963 18.6982 -53.457 55.6094 -63.8896 90.5537c-11.2314 37.6133 -14.9854 75.3789 -12.0752 114.48c5.45898 73.3125 30.7939 155.445 90.7949 201.876c31.0527 24.0264 72.8135 37.0215 110.311 20.4443
c18.9053 -8.35938 32.251 -23.0283 41.2402 -40.4004c7.27441 24.543 37.3418 35.5986 60.5898 33.5352c27.2119 -2.41406 45.1426 -25.0215 42.7002 -51.3555c-9.49512 -102.371 -24.1914 -205.799 -14.4268 -308.876c1.69434 -17.8887 2.38672 -43.6025 13.0156 -59.0566
c13.5283 -19.666 35.2852 28.5967 40.0342 39.3975c20.3477 46.2725 30.4766 97.3945 46.1543 145.372zM186.113 168.121c8.5 41.6123 14.335 83.6885 20.583 125.693c-19.2285 -3.93652 -41.4434 3.62012 -42.2461 24.8877
c-0.561523 14.8789 -2.125 26.8711 -11.1592 38.6396c-0.599609 0.77832 -1.50195 1.33594 -1.91211 1.72168c-2.83789 -1.26367 -5.54492 -3.87793 -7.35645 -5.61035c-18.6436 -17.7998 -32.2822 -45.6943 -42.8252 -68.874
c-20.2002 -44.416 -28.9521 -97.1699 -25.8418 -145.788c1.62207 -25.335 6.65039 -50.9014 16.1875 -74.4766c4.89453 -12.0996 18.0791 -45.6455 36.0469 -44.082c17.6826 1.53613 31.4287 50.1475 36.123 63.4795c9.66797 27.4531 16.5801 55.9189 22.4004 84.4092z" />
    <glyph glyph-name="a" unicode="&#xe5;" horiz-adv-x="407" 
d="M408.358 173.643c4.69434 14.3691 32.127 13.0732 28.2383 -3.5625c-7.36035 -31.4766 -15.8916 -62.5391 -24.8877 -93.585c-7.93164 -27.3711 -16.2422 -55.2725 -30.4668 -80.1533c-13.5391 -23.6816 -29.6992 -39.5459 -57.1221 -43.6992
c-27.3604 -4.14355 -54.4658 7.29492 -71.9824 28.8486c-31.917 39.2705 -40.5723 95.1074 -44.1162 146.742c-3.6748 -15.2607 -7.81836 -30.4219 -12.6123 -45.4414c-9.91211 -31.0664 -20.248 -61.8154 -44.5117 -84.6055
c-28.0732 -26.3682 -63.1826 -30.1494 -96.9873 -10.5146c-32.1963 18.6982 -53.457 55.6094 -63.8896 90.5537c-11.2314 37.6133 -14.9854 75.3789 -12.0752 114.48c5.45898 73.3125 30.7939 155.445 90.7949 201.876c31.0527 24.0264 72.8135 37.0215 110.311 20.4443
c18.9053 -8.35938 32.251 -23.0283 41.2402 -40.4004c7.27441 24.543 37.3418 35.5986 60.5898 33.5352c27.2119 -2.41406 45.1426 -25.0215 42.7002 -51.3555c-9.49512 -102.371 -24.1914 -205.799 -14.4268 -308.876c1.69434 -17.8887 2.38672 -43.6025 13.0156 -59.0566
c13.5283 -19.666 35.2852 28.5967 40.0342 39.3975c20.3477 46.2725 30.4766 97.3945 46.1543 145.372zM186.113 168.121c8.5 41.6123 14.335 83.6885 20.583 125.693c-19.2285 -3.93652 -41.4434 3.62012 -42.2461 24.8877
c-0.561523 14.8789 -2.125 26.8711 -11.1592 38.6396c-0.599609 0.77832 -1.50195 1.33594 -1.91211 1.72168c-2.83789 -1.26367 -5.54492 -3.87793 -7.35645 -5.61035c-18.6436 -17.7998 -32.2822 -45.6943 -42.8252 -68.874
c-20.2002 -44.416 -28.9521 -97.1699 -25.8418 -145.788c1.62207 -25.335 6.65039 -50.9014 16.1875 -74.4766c4.89453 -12.0996 18.0791 -45.6455 36.0469 -44.082c17.6826 1.53613 31.4287 50.1475 36.123 63.4795c9.66797 27.4531 16.5801 55.9189 22.4004 84.4092z" />
    <glyph glyph-name="a" unicode="&#xe4;" horiz-adv-x="407" 
d="M408.358 173.643c4.69434 14.3691 32.127 13.0732 28.2383 -3.5625c-7.36035 -31.4766 -15.8916 -62.5391 -24.8877 -93.585c-7.93164 -27.3711 -16.2422 -55.2725 -30.4668 -80.1533c-13.5391 -23.6816 -29.6992 -39.5459 -57.1221 -43.6992
c-27.3604 -4.14355 -54.4658 7.29492 -71.9824 28.8486c-31.917 39.2705 -40.5723 95.1074 -44.1162 146.742c-3.6748 -15.2607 -7.81836 -30.4219 -12.6123 -45.4414c-9.91211 -31.0664 -20.248 -61.8154 -44.5117 -84.6055
c-28.0732 -26.3682 -63.1826 -30.1494 -96.9873 -10.5146c-32.1963 18.6982 -53.457 55.6094 -63.8896 90.5537c-11.2314 37.6133 -14.9854 75.3789 -12.0752 114.48c5.45898 73.3125 30.7939 155.445 90.7949 201.876c31.0527 24.0264 72.8135 37.0215 110.311 20.4443
c18.9053 -8.35938 32.251 -23.0283 41.2402 -40.4004c7.27441 24.543 37.3418 35.5986 60.5898 33.5352c27.2119 -2.41406 45.1426 -25.0215 42.7002 -51.3555c-9.49512 -102.371 -24.1914 -205.799 -14.4268 -308.876c1.69434 -17.8887 2.38672 -43.6025 13.0156 -59.0566
c13.5283 -19.666 35.2852 28.5967 40.0342 39.3975c20.3477 46.2725 30.4766 97.3945 46.1543 145.372zM186.113 168.121c8.5 41.6123 14.335 83.6885 20.583 125.693c-19.2285 -3.93652 -41.4434 3.62012 -42.2461 24.8877
c-0.561523 14.8789 -2.125 26.8711 -11.1592 38.6396c-0.599609 0.77832 -1.50195 1.33594 -1.91211 1.72168c-2.83789 -1.26367 -5.54492 -3.87793 -7.35645 -5.61035c-18.6436 -17.7998 -32.2822 -45.6943 -42.8252 -68.874
c-20.2002 -44.416 -28.9521 -97.1699 -25.8418 -145.788c1.62207 -25.335 6.65039 -50.9014 16.1875 -74.4766c4.89453 -12.0996 18.0791 -45.6455 36.0469 -44.082c17.6826 1.53613 31.4287 50.1475 36.123 63.4795c9.66797 27.4531 16.5801 55.9189 22.4004 84.4092z" />
    <glyph glyph-name="a" unicode="&#xe3;" horiz-adv-x="407" 
d="M408.358 173.643c4.69434 14.3691 32.127 13.0732 28.2383 -3.5625c-7.36035 -31.4766 -15.8916 -62.5391 -24.8877 -93.585c-7.93164 -27.3711 -16.2422 -55.2725 -30.4668 -80.1533c-13.5391 -23.6816 -29.6992 -39.5459 -57.1221 -43.6992
c-27.3604 -4.14355 -54.4658 7.29492 -71.9824 28.8486c-31.917 39.2705 -40.5723 95.1074 -44.1162 146.742c-3.6748 -15.2607 -7.81836 -30.4219 -12.6123 -45.4414c-9.91211 -31.0664 -20.248 -61.8154 -44.5117 -84.6055
c-28.0732 -26.3682 -63.1826 -30.1494 -96.9873 -10.5146c-32.1963 18.6982 -53.457 55.6094 -63.8896 90.5537c-11.2314 37.6133 -14.9854 75.3789 -12.0752 114.48c5.45898 73.3125 30.7939 155.445 90.7949 201.876c31.0527 24.0264 72.8135 37.0215 110.311 20.4443
c18.9053 -8.35938 32.251 -23.0283 41.2402 -40.4004c7.27441 24.543 37.3418 35.5986 60.5898 33.5352c27.2119 -2.41406 45.1426 -25.0215 42.7002 -51.3555c-9.49512 -102.371 -24.1914 -205.799 -14.4268 -308.876c1.69434 -17.8887 2.38672 -43.6025 13.0156 -59.0566
c13.5283 -19.666 35.2852 28.5967 40.0342 39.3975c20.3477 46.2725 30.4766 97.3945 46.1543 145.372zM186.113 168.121c8.5 41.6123 14.335 83.6885 20.583 125.693c-19.2285 -3.93652 -41.4434 3.62012 -42.2461 24.8877
c-0.561523 14.8789 -2.125 26.8711 -11.1592 38.6396c-0.599609 0.77832 -1.50195 1.33594 -1.91211 1.72168c-2.83789 -1.26367 -5.54492 -3.87793 -7.35645 -5.61035c-18.6436 -17.7998 -32.2822 -45.6943 -42.8252 -68.874
c-20.2002 -44.416 -28.9521 -97.1699 -25.8418 -145.788c1.62207 -25.335 6.65039 -50.9014 16.1875 -74.4766c4.89453 -12.0996 18.0791 -45.6455 36.0469 -44.082c17.6826 1.53613 31.4287 50.1475 36.123 63.4795c9.66797 27.4531 16.5801 55.9189 22.4004 84.4092z" />
    <glyph glyph-name="a" unicode="&#xe2;" horiz-adv-x="407" 
d="M408.358 173.643c4.69434 14.3691 32.127 13.0732 28.2383 -3.5625c-7.36035 -31.4766 -15.8916 -62.5391 -24.8877 -93.585c-7.93164 -27.3711 -16.2422 -55.2725 -30.4668 -80.1533c-13.5391 -23.6816 -29.6992 -39.5459 -57.1221 -43.6992
c-27.3604 -4.14355 -54.4658 7.29492 -71.9824 28.8486c-31.917 39.2705 -40.5723 95.1074 -44.1162 146.742c-3.6748 -15.2607 -7.81836 -30.4219 -12.6123 -45.4414c-9.91211 -31.0664 -20.248 -61.8154 -44.5117 -84.6055
c-28.0732 -26.3682 -63.1826 -30.1494 -96.9873 -10.5146c-32.1963 18.6982 -53.457 55.6094 -63.8896 90.5537c-11.2314 37.6133 -14.9854 75.3789 -12.0752 114.48c5.45898 73.3125 30.7939 155.445 90.7949 201.876c31.0527 24.0264 72.8135 37.0215 110.311 20.4443
c18.9053 -8.35938 32.251 -23.0283 41.2402 -40.4004c7.27441 24.543 37.3418 35.5986 60.5898 33.5352c27.2119 -2.41406 45.1426 -25.0215 42.7002 -51.3555c-9.49512 -102.371 -24.1914 -205.799 -14.4268 -308.876c1.69434 -17.8887 2.38672 -43.6025 13.0156 -59.0566
c13.5283 -19.666 35.2852 28.5967 40.0342 39.3975c20.3477 46.2725 30.4766 97.3945 46.1543 145.372zM186.113 168.121c8.5 41.6123 14.335 83.6885 20.583 125.693c-19.2285 -3.93652 -41.4434 3.62012 -42.2461 24.8877
c-0.561523 14.8789 -2.125 26.8711 -11.1592 38.6396c-0.599609 0.77832 -1.50195 1.33594 -1.91211 1.72168c-2.83789 -1.26367 -5.54492 -3.87793 -7.35645 -5.61035c-18.6436 -17.7998 -32.2822 -45.6943 -42.8252 -68.874
c-20.2002 -44.416 -28.9521 -97.1699 -25.8418 -145.788c1.62207 -25.335 6.65039 -50.9014 16.1875 -74.4766c4.89453 -12.0996 18.0791 -45.6455 36.0469 -44.082c17.6826 1.53613 31.4287 50.1475 36.123 63.4795c9.66797 27.4531 16.5801 55.9189 22.4004 84.4092z" />
    <glyph glyph-name="a" unicode="&#xe1;" horiz-adv-x="407" 
d="M408.358 173.643c4.69434 14.3691 32.127 13.0732 28.2383 -3.5625c-7.36035 -31.4766 -15.8916 -62.5391 -24.8877 -93.585c-7.93164 -27.3711 -16.2422 -55.2725 -30.4668 -80.1533c-13.5391 -23.6816 -29.6992 -39.5459 -57.1221 -43.6992
c-27.3604 -4.14355 -54.4658 7.29492 -71.9824 28.8486c-31.917 39.2705 -40.5723 95.1074 -44.1162 146.742c-3.6748 -15.2607 -7.81836 -30.4219 -12.6123 -45.4414c-9.91211 -31.0664 -20.248 -61.8154 -44.5117 -84.6055
c-28.0732 -26.3682 -63.1826 -30.1494 -96.9873 -10.5146c-32.1963 18.6982 -53.457 55.6094 -63.8896 90.5537c-11.2314 37.6133 -14.9854 75.3789 -12.0752 114.48c5.45898 73.3125 30.7939 155.445 90.7949 201.876c31.0527 24.0264 72.8135 37.0215 110.311 20.4443
c18.9053 -8.35938 32.251 -23.0283 41.2402 -40.4004c7.27441 24.543 37.3418 35.5986 60.5898 33.5352c27.2119 -2.41406 45.1426 -25.0215 42.7002 -51.3555c-9.49512 -102.371 -24.1914 -205.799 -14.4268 -308.876c1.69434 -17.8887 2.38672 -43.6025 13.0156 -59.0566
c13.5283 -19.666 35.2852 28.5967 40.0342 39.3975c20.3477 46.2725 30.4766 97.3945 46.1543 145.372zM186.113 168.121c8.5 41.6123 14.335 83.6885 20.583 125.693c-19.2285 -3.93652 -41.4434 3.62012 -42.2461 24.8877
c-0.561523 14.8789 -2.125 26.8711 -11.1592 38.6396c-0.599609 0.77832 -1.50195 1.33594 -1.91211 1.72168c-2.83789 -1.26367 -5.54492 -3.87793 -7.35645 -5.61035c-18.6436 -17.7998 -32.2822 -45.6943 -42.8252 -68.874
c-20.2002 -44.416 -28.9521 -97.1699 -25.8418 -145.788c1.62207 -25.335 6.65039 -50.9014 16.1875 -74.4766c4.89453 -12.0996 18.0791 -45.6455 36.0469 -44.082c17.6826 1.53613 31.4287 50.1475 36.123 63.4795c9.66797 27.4531 16.5801 55.9189 22.4004 84.4092z" />
    <glyph glyph-name="b" unicode="b" horiz-adv-x="448" 
d="M456.39 152.665c15.8779 9.6123 36.959 -10.915 18.877 -22.0742c-37.5205 -23.1826 -79.3916 -34.6621 -122.147 -43.1455c-6.79883 -56.9082 -22.332 -123.535 -69.1895 -160.756c-38.9844 -30.9668 -114.185 -40.5244 -144.548 8.26172
c-23.8926 38.3887 -15.4893 90.6025 17.9434 120.512c27.4326 24.5361 62.8799 36.0469 98.7334 43.7207c3.2373 20.958 5.31445 42.1152 7.1123 63.0488c4.06055 47.3018 6.99512 95.4922 4.16016 142.939c-1.43262 23.9951 -2.19727 48.7656 -8.38281 72.127
c-2.2832 8.61426 -5.30371 18.9639 -10.4395 26.2754c-9.28223 13.2119 -19.7529 6.10645 -27.916 -3.63672c-29.4375 -35.1338 -40.6797 -89.2451 -53.0859 -132.235c-23.3408 -80.8721 -41.4297 -163.095 -58.251 -245.541
c0.182617 -6.02734 0.354492 -12.0576 0.460938 -18.0986c0.458008 -25.6211 4.0293 -53.9111 -7.49805 -77.4033c-5.57617 -11.3662 -22.9102 -16.4941 -34.2178 -11.4932c-30.2568 13.377 -41.8984 42.8867 -49.8027 73.2295
c-7.22266 27.7393 -12.4678 55.6299 -16.5664 83.9785c-8.6582 59.9004 -12.8467 120.238 -15.4121 180.69c-5.18652 122.227 -1.64941 247.267 14.4932 368.587c3.91602 29.4062 39.835 42.5186 65.0596 40.2803c29.0312 -2.57617 47.1543 -26.3818 45.0361 -54.166
c-8.73047 -114.47 -14.3066 -228.03 -12.2607 -342.896c0.737305 -41.3643 2.75879 -82.6768 4.96289 -123.982c3.10645 13.79 6.27539 27.5664 9.57812 41.3154c15.5127 64.5674 30.7393 132.146 58.1543 192.897c9.55078 21.168 21.5059 44.7637 42.1885 57.1074
c20.3311 12.1338 42.3291 6.67871 60.0732 -7.05664c46.9473 -36.3389 65.1016 -96.8877 74.9932 -152.928c8.94434 -50.6777 11.2383 -103.401 7.47363 -154.984c35.0654 7.00586 69.4033 16.6426 100.418 35.4268zM236.001 20.4854
c6.0752 15.623 10.6865 31.7129 14.3203 48.0488c-19.5801 -5.18652 -38.21 -12.3818 -54.0742 -23.6025c-16.2461 -11.4932 -28.6621 -28.4863 -29.8018 -48.9443c-0.833008 -14.9512 5.22852 -28.0352 21.502 -28.335c-2.79004 0.0517578 6.61621 1.85645 7.96289 1.83887
c1.87695 0.823242 4.49805 2.01172 1.20215 -0.00683594c10.5947 6.48535 9.375 5.19727 16.415 13.2949c9.43359 10.8486 17.5967 25.166 22.4736 37.7061z" />
    <glyph glyph-name="c" unicode="c" horiz-adv-x="273" 
d="M276.064 178.289c4.74609 14.665 33.1328 12.3506 28.2422 -3.56445c-12.7471 -41.4678 -28.5459 -82.1328 -48.2812 -120.801c-17.0215 -33.3535 -39.3564 -65.2637 -74.1152 -81.7334c-28.1143 -13.3223 -65.1807 -16.7734 -95.1348 -8.35938
c-36.9385 10.377 -66.5098 44.5293 -81.4199 78.6953c-31.8408 72.9678 -32.6191 165.571 -14.1064 242.001c9.1748 37.8789 22.1416 77.3184 47.1602 107.899c23.8682 29.1719 66.2002 52.8057 104.781 41.4775c72.9951 -21.4365 67.2471 -132.748 56.46 -190.641
c-3.48926 -18.7256 -37.5068 -15.8086 -34.4238 4.34277c5.52051 36.1055 5.43066 74.4082 -4.10254 109.914c-2.17676 8.11133 -9.89844 30.5742 -20.9443 29.9297c-2.36621 -0.137695 -11.8203 -15.9707 -14.0801 -19.4941
c-28.7207 -44.8018 -41.3955 -101.985 -46.8994 -154.554c-5.46289 -52.1553 -0.888672 -111.581 16.2734 -161.353c6.96387 -20.2031 18.7227 -42.3525 36.1602 -55.5371c22.7969 -17.2383 53.9463 8.29688 68.9873 25.3486
c18.4883 20.958 30.8594 47.3027 42.5762 72.4414c12.7227 27.2988 23.5957 55.3379 32.8672 83.9863z" />
    <glyph glyph-name="d" unicode="d" horiz-adv-x="463" 
d="M463.982 174.786c5.12793 15.3613 35.001 12.8604 29.6729 -3.74023c-15.9531 -49.6406 -32.0928 -100.156 -58.875 -145.233c-19.1465 -32.2266 -43.8242 -61.3438 -81.4238 -72.1348c-58.3545 -16.7422 -97.4219 42.6562 -111.622 89.666
c-14.7236 48.7422 -18.543 100.222 -20.4375 151.112c-6.33398 -37.707 -14.2178 -75.0938 -25.8867 -111.667c-9.91211 -31.0664 -20.248 -61.8154 -44.5117 -84.6055c-28.0732 -26.3682 -63.1826 -30.1494 -96.9873 -10.5146
c-32.1963 18.6982 -53.457 55.6094 -63.8896 90.5537c-11.2314 37.6133 -14.9854 75.3789 -12.0752 114.48c5.45898 73.3125 30.791 155.445 90.7949 201.869c31.0527 24.0264 72.8135 37.0215 110.311 20.4443c19.7627 -8.73438 33.501 -24.3398 42.4795 -42.752
c0.706055 22.0977 1.50195 44.1777 2.21484 66.2236c2.09375 64.7334 3.96387 129.449 7.34961 194.127c1.26758 24.1914 32.7227 36.8145 52.5889 36.8594c21.0781 0.0478516 47.3809 -13.9629 48.5967 -37.8516c3.23047 -63.5762 -0.74707 -127.376 -2.87598 -190.941
c-3.98535 -118.992 -9.50293 -239.858 0.44043 -358.692c1.62207 -19.3906 3.38867 -38.7852 6.80176 -57.9482c0.475586 -2.65527 0.964844 -5.29004 1.49219 -7.91797c0.0966797 0.209961 1.65332 -5.3252 2.23242 -6.95801
c0.571289 -1.61523 2.16895 -4.09473 2.80957 -5.10742c2.94141 -3.46094 5.94141 -6.17871 10.25 -8.58594c26.0107 -14.5273 53.8672 42.5566 62.6289 58.9678c20.4033 38.2236 34.2451 79.3711 47.9219 120.347zM186.109 168.121
c8.5 41.6123 14.332 83.6885 20.583 125.693c-19.2285 -3.93652 -41.4434 3.62012 -42.2461 24.8877c-0.561523 14.8789 -2.125 26.8711 -11.1592 38.6396c-0.599609 0.77832 -1.50195 1.33594 -1.91211 1.72168c-2.83789 -1.26367 -5.54492 -3.87793 -7.35645 -5.61035
c-18.6436 -17.7998 -32.2822 -45.6943 -42.8252 -68.874c-20.2002 -44.416 -28.9521 -97.1699 -25.8418 -145.788c1.62207 -25.335 6.65039 -50.9014 16.1875 -74.4766c4.89453 -12.0996 18.0791 -45.6455 36.0469 -44.082c17.6826 1.53613 31.4287 50.1475 36.123 63.4795
c9.66797 27.4531 16.5801 55.9189 22.4004 84.4092z" />
    <glyph glyph-name="e" unicode="e" horiz-adv-x="253" 
d="M253.439 178.393c4.63281 15.1885 33.6748 13.1035 29.1904 -3.67676c-19.0811 -71.4316 -45.7041 -163.098 -121.724 -193.571c-16.4111 -6.57812 -35.9082 -11.1689 -53.5771 -11.7402c-20.6992 -0.671875 -38.8398 6.63281 -55.9746 17.9258
c-37.8896 24.9697 -53.2402 68.5488 -63.4111 110.526c-10.4941 43.3066 -10.374 89.665 -6.62305 133.822c3.50586 41.2959 11.2725 82.1953 28.8174 120.002c17.5996 37.9238 47.832 73.8359 87.7432 89.0625c31.2588 11.9268 94.6973 9.40527 103.37 -32.7754
c13.708 -66.6826 -38.0889 -128.574 -103.989 -128.926c-13.8076 -58.7988 -14.9375 -120.415 -6.70215 -180.058c3.41992 -24.7773 8.41016 -52.9717 23.668 -73.5195c4.9043 -6.60547 14.1689 -19.2422 23 -20.4062c13.8623 -1.8291 32.7539 15.0127 41.8047 23.5781
c41.2852 39.0635 58.3232 97.0117 74.4072 149.756zM128.518 362.574c-9.5332 -16.9277 -16.4365 -33.2148 -22.0742 -50.4492c32.2344 6.375 61.7021 37 47.4365 69.7061c-2.06348 1.12598 -4.19922 2.19727 -6.01465 2.59668
c-9.64355 2.12207 -4.31152 -0.399414 -2.84082 0.134766c-8.01758 -2.91406 -11.9229 -13.8496 -16.5068 -21.9883z" />
    <glyph glyph-name="e" unicode="&#xeb;" horiz-adv-x="253" 
d="M253.439 178.393c4.63281 15.1885 33.6748 13.1035 29.1904 -3.67676c-19.0811 -71.4316 -45.7041 -163.098 -121.724 -193.571c-16.4111 -6.57812 -35.9082 -11.1689 -53.5771 -11.7402c-20.6992 -0.671875 -38.8398 6.63281 -55.9746 17.9258
c-37.8896 24.9697 -53.2402 68.5488 -63.4111 110.526c-10.4941 43.3066 -10.374 89.665 -6.62305 133.822c3.50586 41.2959 11.2725 82.1953 28.8174 120.002c17.5996 37.9238 47.832 73.8359 87.7432 89.0625c31.2588 11.9268 94.6973 9.40527 103.37 -32.7754
c13.708 -66.6826 -38.0889 -128.574 -103.989 -128.926c-13.8076 -58.7988 -14.9375 -120.415 -6.70215 -180.058c3.41992 -24.7773 8.41016 -52.9717 23.668 -73.5195c4.9043 -6.60547 14.1689 -19.2422 23 -20.4062c13.8623 -1.8291 32.7539 15.0127 41.8047 23.5781
c41.2852 39.0635 58.3232 97.0117 74.4072 149.756zM128.518 362.574c-9.5332 -16.9277 -16.4365 -33.2148 -22.0742 -50.4492c32.2344 6.375 61.7021 37 47.4365 69.7061c-2.06348 1.12598 -4.19922 2.19727 -6.01465 2.59668
c-9.64355 2.12207 -4.31152 -0.399414 -2.84082 0.134766c-8.01758 -2.91406 -11.9229 -13.8496 -16.5068 -21.9883z" />
    <glyph glyph-name="e" unicode="&#xea;" horiz-adv-x="253" 
d="M253.439 178.393c4.63281 15.1885 33.6748 13.1035 29.1904 -3.67676c-19.0811 -71.4316 -45.7041 -163.098 -121.724 -193.571c-16.4111 -6.57812 -35.9082 -11.1689 -53.5771 -11.7402c-20.6992 -0.671875 -38.8398 6.63281 -55.9746 17.9258
c-37.8896 24.9697 -53.2402 68.5488 -63.4111 110.526c-10.4941 43.3066 -10.374 89.665 -6.62305 133.822c3.50586 41.2959 11.2725 82.1953 28.8174 120.002c17.5996 37.9238 47.832 73.8359 87.7432 89.0625c31.2588 11.9268 94.6973 9.40527 103.37 -32.7754
c13.708 -66.6826 -38.0889 -128.574 -103.989 -128.926c-13.8076 -58.7988 -14.9375 -120.415 -6.70215 -180.058c3.41992 -24.7773 8.41016 -52.9717 23.668 -73.5195c4.9043 -6.60547 14.1689 -19.2422 23 -20.4062c13.8623 -1.8291 32.7539 15.0127 41.8047 23.5781
c41.2852 39.0635 58.3232 97.0117 74.4072 149.756zM128.518 362.574c-9.5332 -16.9277 -16.4365 -33.2148 -22.0742 -50.4492c32.2344 6.375 61.7021 37 47.4365 69.7061c-2.06348 1.12598 -4.19922 2.19727 -6.01465 2.59668
c-9.64355 2.12207 -4.31152 -0.399414 -2.84082 0.134766c-8.01758 -2.91406 -11.9229 -13.8496 -16.5068 -21.9883z" />
    <glyph glyph-name="e" unicode="&#xe9;" horiz-adv-x="253" 
d="M253.439 178.393c4.63281 15.1885 33.6748 13.1035 29.1904 -3.67676c-19.0811 -71.4316 -45.7041 -163.098 -121.724 -193.571c-16.4111 -6.57812 -35.9082 -11.1689 -53.5771 -11.7402c-20.6992 -0.671875 -38.8398 6.63281 -55.9746 17.9258
c-37.8896 24.9697 -53.2402 68.5488 -63.4111 110.526c-10.4941 43.3066 -10.374 89.665 -6.62305 133.822c3.50586 41.2959 11.2725 82.1953 28.8174 120.002c17.5996 37.9238 47.832 73.8359 87.7432 89.0625c31.2588 11.9268 94.6973 9.40527 103.37 -32.7754
c13.708 -66.6826 -38.0889 -128.574 -103.989 -128.926c-13.8076 -58.7988 -14.9375 -120.415 -6.70215 -180.058c3.41992 -24.7773 8.41016 -52.9717 23.668 -73.5195c4.9043 -6.60547 14.1689 -19.2422 23 -20.4062c13.8623 -1.8291 32.7539 15.0127 41.8047 23.5781
c41.2852 39.0635 58.3232 97.0117 74.4072 149.756zM128.518 362.574c-9.5332 -16.9277 -16.4365 -33.2148 -22.0742 -50.4492c32.2344 6.375 61.7021 37 47.4365 69.7061c-2.06348 1.12598 -4.19922 2.19727 -6.01465 2.59668
c-9.64355 2.12207 -4.31152 -0.399414 -2.84082 0.134766c-8.01758 -2.91406 -11.9229 -13.8496 -16.5068 -21.9883z" />
    <glyph glyph-name="f" unicode="f" horiz-adv-x="298" 
d="M310.206 193.588c18.2715 4.54297 31.584 -19.2178 11.2461 -25.2998c-65.3672 -19.5283 -130.18 -40.335 -194.083 -63.8652c38.1025 -6.56836 73.9248 -23.7236 101.402 -53.0645c43.1553 -46.083 61.7783 -124.162 24.7051 -179.424
c-35.8848 -53.4951 -115.042 -49.3105 -160.043 -9.89941c-59.625 52.2236 -79.7979 131.956 -94.2568 207.039c-14.4521 75.0625 -16.749 152.862 -14.3623 229.089c2.3457 74.8936 7.62207 152.855 38.3203 222.248c13.7969 31.1865 32.5508 64.8086 57.4902 88.5527
c23.0312 21.9258 56.3604 43.5273 89.0215 44.5332c76.3604 2.34863 77.6621 -91.8633 72.8613 -145.826c-6.69531 -75.252 -31.459 -149.415 -56.374 -220.32c-17.8613 -50.8223 -37.7344 -100.883 -58.6025 -150.53c59.9111 21.9912 120.808 41.3857 182.675 56.7676z
M196.588 36.8799c-24.498 24.3018 -57.5889 37.4922 -91.6758 40.626c3.08301 -21.4053 6.6748 -42.7139 11.5137 -63.8262c6.81641 -29.7227 18.1406 -57.9717 25.4219 -87.3848c5.05566 -20.4346 14.7988 -45.3184 32.3672 -58.5127
c22.7314 -17.0762 47.5605 12.3643 55.7988 31.459c20.1035 46.5859 1.15332 103.335 -33.4258 137.639zM96.6357 147.949c19.1084 45.377 37.3896 91.1025 53.8633 137.506c23.0723 64.9844 45.5244 132.107 54.8135 200.663
c4.06445 29.9922 5.58984 61.2139 0.816406 91.2363c-2.16602 13.6221 -6.30566 28.8076 -18.6768 36.6533c-11.252 7.13672 -21.5703 -2.23438 -29.0342 -10.8555c-13.8037 -15.9395 -23.4512 -39.415 -30.1641 -59.2158
c-9.33008 -27.5254 -14.6758 -56.4111 -19.835 -84.9492c-10.0537 -55.5889 -13.4707 -112.71 -15.2793 -169.098c-1.51855 -47.3672 -0.550781 -94.7627 3.49609 -141.94z" />
    <glyph glyph-name="g" unicode="g" horiz-adv-x="381" 
d="M384.683 176.78c4.42871 14.7412 32.5752 12.6514 28.2324 -3.55664c-7.93848 -29.6572 -26.3135 -54.0039 -44.7051 -78.0342c-12.957 -16.9316 -26.6064 -33.3154 -40.5693 -49.4238c2.24609 -81.8398 0.389648 -165.037 -18.2744 -244.648
c-8.96191 -38.2441 -22.2324 -74.7148 -44.7988 -107.114c-23.7402 -34.083 -68.0498 -62.7139 -110.564 -59.7207c-55.5752 3.91602 -81.9746 60.0801 -77.752 110.055c4.85645 57.4766 41.5088 108.915 75.668 153.151c24.6221 31.8896 51.6523 61.6777 79.2812 90.9258
c-3.09277 50.2852 -8.01074 100.515 -12.9941 150.451c-0.823242 8.24902 -1.66016 16.5146 -2.50098 24.7842c-5.3418 -27.2539 -11.8096 -54.2695 -20.293 -80.8555c-9.91211 -31.0664 -20.248 -61.8154 -44.5117 -84.6055
c-28.0732 -26.3682 -63.1865 -30.1494 -96.9873 -10.5146c-32.1963 18.6982 -53.457 55.6094 -63.8896 90.5537c-11.2314 37.6133 -14.9854 75.3789 -12.0752 114.48c5.45898 73.3125 30.791 155.445 90.7949 201.869c31.0527 24.0264 72.8135 37.0215 110.311 20.4443
c9.29199 -4.1084 17.2168 -9.76758 23.9775 -16.4902c3.70605 24.1055 21.9844 39.3291 47.3887 42.9795c23.665 3.39941 56.5049 -12.5234 57.5449 -39.3496c4.03613 -104.124 13.8418 -207.907 18.1328 -312.018c1.64258 1.89746 3.31641 3.76758 4.94531 5.67871
c20.5928 24.1709 44.3301 49.9883 53.6396 80.958zM186.121 168.123c7.73535 37.8721 13.2637 76.1289 18.9082 114.366c-0.244141 3.62988 -0.47168 7.26367 -0.688477 10.8936c-18.6396 -2.86914 -39.1113 4.92188 -39.8828 25.3213
c-0.561523 14.8789 -2.125 26.8711 -11.1592 38.6396c-0.599609 0.77832 -1.49902 1.33594 -1.91211 1.72168c-2.83789 -1.26367 -5.54492 -3.87793 -7.35645 -5.61035c-18.6436 -17.7998 -32.2822 -45.6943 -42.8252 -68.874
c-20.2002 -44.416 -28.9521 -97.1699 -25.8418 -145.788c1.62207 -25.335 6.65039 -50.9014 16.1875 -74.4766c4.89453 -12.0996 18.0791 -45.6455 36.0469 -44.082c17.6826 1.53613 31.4287 50.1475 36.123 63.4795c9.66797 27.4531 16.5801 55.9189 22.4004 84.4092z
M234.302 -126.756c0.333984 22.8174 0.00390625 45.6641 -0.805664 68.5195c-15.8604 -17.7197 -31.3896 -35.7158 -46.1406 -54.3662c-32.668 -41.2988 -69.3135 -90.7158 -74.1523 -144.924c-2.1875 -24.5156 4.41113 -54.7998 26.0508 -69.4756
c15.8809 -10.7695 43.2275 -8.7207 56.8008 5.51758c9.00977 9.45117 13.4014 28.4971 17.2832 39.4355c5.4209 15.2812 8.13477 31.2549 11.3271 47.0879c7.65625 37.958 9.08887 70.915 9.63672 108.205z" />
    <glyph glyph-name="h" unicode="h" horiz-adv-x="446" 
d="M447.969 158.289c4.08105 15.2891 33.001 12.7686 28.7129 -3.62207c-11.5693 -44.2061 -23.3418 -88.4639 -40.6836 -130.827c-12.9365 -31.6006 -29.7783 -71.708 -65.9072 -81.7822c-16.4355 -4.58105 -41.2715 -2.59766 -56.8906 3.4541
c-20.0654 7.77734 -32.916 20.5557 -43.9688 38.5654c-20.1621 32.8506 -22.3633 75.0449 -25.2666 112.71c-6.22363 80.6895 -1.18457 161.889 -7.31836 242.503c-0.651367 8.53418 2.66895 52.2061 -11.2451 52.4062
c-11.7168 0.168945 -24.9805 -34.9922 -28.6689 -43.3818c-17.7129 -40.2793 -28.9619 -83.999 -40.0801 -126.462c-17.3828 -66.3965 -32.2549 -133.431 -47.3779 -200.385c0.175781 -5.7998 0.34082 -11.5967 0.444336 -17.4072
c0.458008 -25.6211 4.0293 -53.9111 -7.49805 -77.4033c-5.57617 -11.3662 -22.9111 -16.4941 -34.2188 -11.4932c-30.2568 13.377 -41.9014 42.8867 -49.8057 73.2295c-7.22266 27.7393 -12.4678 55.6299 -16.5664 83.9785
c-8.6582 59.9004 -12.8467 120.238 -15.4121 180.69c-5.18652 122.227 -1.64941 247.267 14.4932 368.587c3.91211 29.4062 39.835 42.5186 65.0596 40.2803c29.0312 -2.57617 47.1543 -26.3818 45.0361 -54.166c-8.73145 -114.47 -14.3076 -228.03 -12.2617 -342.896
c0.688477 -38.8125 2.51367 -77.5762 4.55566 -116.333c8.87891 37.9756 18.5225 75.751 28.9512 113.196c10.7734 38.6846 21.7119 79.0879 40.4033 114.842c13.7666 26.3311 42.7393 60.5596 75.8828 40.7002c13.1846 -7.90137 20.5176 -23.7275 28.5322 -36.2988
c10.5049 -16.4736 18.2783 -33.5322 24.9844 -51.8721c14.1904 -38.8086 19.291 -79.3945 22.8145 -120.298c6.49219 -75.3789 6 -153.169 30.9326 -225.334c0.964844 -2.78613 2.68652 -9.54688 4.47754 -11.8164c1.9668 -2.49023 1.4502 -3.09668 6.97461 -0.141602
c8.66895 4.63281 14.6582 10.0127 20.2656 18.2754c9.68848 14.2725 16.3672 31.0869 22.8633 46.9785c16.0605 39.3047 26.8545 80.5723 37.7861 121.523z" />
    <glyph glyph-name="i" unicode="i" horiz-adv-x="185" 
d="M185.429 173.643c4.69434 14.3691 32.1289 13.0723 28.2402 -3.55273c-7.36035 -31.4766 -15.8916 -62.5391 -24.8877 -93.585c-7.93164 -27.3711 -16.2422 -55.2725 -30.4668 -80.1533c-13.5391 -23.6816 -29.6992 -39.5459 -57.1221 -43.6992
c-27.3604 -4.14355 -54.4658 7.29492 -71.9824 28.8486c-39.8867 49.0762 -43.4512 124.042 -46.1035 184.325c-2.95898 67.2646 2.09668 137.739 13.1592 204.146c4.63281 27.8047 37.0117 40.3789 61.6855 38.1885c27.2119 -2.41406 45.1426 -25.0215 42.7002 -51.3555
c-9.49512 -102.371 -24.1914 -205.799 -14.4268 -308.876c1.69434 -17.8887 2.38672 -43.6025 13.0156 -59.0566c13.5283 -19.666 35.2852 28.5967 40.0342 39.3975c20.3477 46.2725 30.4766 97.3945 46.1543 145.372zM32.9922 466.284
c-23.8164 17.5 -46.0312 36.4561 -60.3145 62.835c-9.23047 17.0557 -22.3799 52.5439 -5.61719 69.0039c20.3721 20.0039 43.1445 0.0488281 54.5449 -17.6299c7.66699 -11.8896 13.8115 -24.4365 18.6094 -37.4766c5.23828 9.05469 10.873 17.8584 17.6514 25.9385
c12.041 14.3516 38.3096 37.5098 58.1826 23.3301c19.8965 -14.1973 -1.75684 -45.2051 -10.5742 -59.54c-13.9209 -22.6348 -31.0898 -43.1279 -48.1523 -63.4209c-3.78906 -4.50488 -9.0625 -6.16797 -14.1973 -5.84082
c-3.39941 -0.30957 -6.95703 0.46875 -10.1328 2.80078z" />
    <glyph glyph-name="i" unicode="&#xef;" horiz-adv-x="185" 
d="M185.429 173.643c4.69434 14.3691 32.1289 13.0723 28.2402 -3.55273c-7.36035 -31.4766 -15.8916 -62.5391 -24.8877 -93.585c-7.93164 -27.3711 -16.2422 -55.2725 -30.4668 -80.1533c-13.5391 -23.6816 -29.6992 -39.5459 -57.1221 -43.6992
c-27.3604 -4.14355 -54.4658 7.29492 -71.9824 28.8486c-39.8867 49.0762 -43.4512 124.042 -46.1035 184.325c-2.95898 67.2646 2.09668 137.739 13.1592 204.146c4.63281 27.8047 37.0117 40.3789 61.6855 38.1885c27.2119 -2.41406 45.1426 -25.0215 42.7002 -51.3555
c-9.49512 -102.371 -24.1914 -205.799 -14.4268 -308.876c1.69434 -17.8887 2.38672 -43.6025 13.0156 -59.0566c13.5283 -19.666 35.2852 28.5967 40.0342 39.3975c20.3477 46.2725 30.4766 97.3945 46.1543 145.372zM32.9922 466.284
c-23.8164 17.5 -46.0312 36.4561 -60.3145 62.835c-9.23047 17.0557 -22.3799 52.5439 -5.61719 69.0039c20.3721 20.0039 43.1445 0.0488281 54.5449 -17.6299c7.66699 -11.8896 13.8115 -24.4365 18.6094 -37.4766c5.23828 9.05469 10.873 17.8584 17.6514 25.9385
c12.041 14.3516 38.3096 37.5098 58.1826 23.3301c19.8965 -14.1973 -1.75684 -45.2051 -10.5742 -59.54c-13.9209 -22.6348 -31.0898 -43.1279 -48.1523 -63.4209c-3.78906 -4.50488 -9.0625 -6.16797 -14.1973 -5.84082
c-3.39941 -0.30957 -6.95703 0.46875 -10.1328 2.80078z" />
    <glyph glyph-name="i" unicode="&#xee;" horiz-adv-x="185" 
d="M185.429 173.643c4.69434 14.3691 32.1289 13.0723 28.2402 -3.55273c-7.36035 -31.4766 -15.8916 -62.5391 -24.8877 -93.585c-7.93164 -27.3711 -16.2422 -55.2725 -30.4668 -80.1533c-13.5391 -23.6816 -29.6992 -39.5459 -57.1221 -43.6992
c-27.3604 -4.14355 -54.4658 7.29492 -71.9824 28.8486c-39.8867 49.0762 -43.4512 124.042 -46.1035 184.325c-2.95898 67.2646 2.09668 137.739 13.1592 204.146c4.63281 27.8047 37.0117 40.3789 61.6855 38.1885c27.2119 -2.41406 45.1426 -25.0215 42.7002 -51.3555
c-9.49512 -102.371 -24.1914 -205.799 -14.4268 -308.876c1.69434 -17.8887 2.38672 -43.6025 13.0156 -59.0566c13.5283 -19.666 35.2852 28.5967 40.0342 39.3975c20.3477 46.2725 30.4766 97.3945 46.1543 145.372zM32.9922 466.284
c-23.8164 17.5 -46.0312 36.4561 -60.3145 62.835c-9.23047 17.0557 -22.3799 52.5439 -5.61719 69.0039c20.3721 20.0039 43.1445 0.0488281 54.5449 -17.6299c7.66699 -11.8896 13.8115 -24.4365 18.6094 -37.4766c5.23828 9.05469 10.873 17.8584 17.6514 25.9385
c12.041 14.3516 38.3096 37.5098 58.1826 23.3301c19.8965 -14.1973 -1.75684 -45.2051 -10.5742 -59.54c-13.9209 -22.6348 -31.0898 -43.1279 -48.1523 -63.4209c-3.78906 -4.50488 -9.0625 -6.16797 -14.1973 -5.84082
c-3.39941 -0.30957 -6.95703 0.46875 -10.1328 2.80078z" />
    <glyph glyph-name="i" unicode="&#xed;" horiz-adv-x="185" 
d="M185.429 173.643c4.69434 14.3691 32.1289 13.0723 28.2402 -3.55273c-7.36035 -31.4766 -15.8916 -62.5391 -24.8877 -93.585c-7.93164 -27.3711 -16.2422 -55.2725 -30.4668 -80.1533c-13.5391 -23.6816 -29.6992 -39.5459 -57.1221 -43.6992
c-27.3604 -4.14355 -54.4658 7.29492 -71.9824 28.8486c-39.8867 49.0762 -43.4512 124.042 -46.1035 184.325c-2.95898 67.2646 2.09668 137.739 13.1592 204.146c4.63281 27.8047 37.0117 40.3789 61.6855 38.1885c27.2119 -2.41406 45.1426 -25.0215 42.7002 -51.3555
c-9.49512 -102.371 -24.1914 -205.799 -14.4268 -308.876c1.69434 -17.8887 2.38672 -43.6025 13.0156 -59.0566c13.5283 -19.666 35.2852 28.5967 40.0342 39.3975c20.3477 46.2725 30.4766 97.3945 46.1543 145.372zM32.9922 466.284
c-23.8164 17.5 -46.0312 36.4561 -60.3145 62.835c-9.23047 17.0557 -22.3799 52.5439 -5.61719 69.0039c20.3721 20.0039 43.1445 0.0488281 54.5449 -17.6299c7.66699 -11.8896 13.8115 -24.4365 18.6094 -37.4766c5.23828 9.05469 10.873 17.8584 17.6514 25.9385
c12.041 14.3516 38.3096 37.5098 58.1826 23.3301c19.8965 -14.1973 -1.75684 -45.2051 -10.5742 -59.54c-13.9209 -22.6348 -31.0898 -43.1279 -48.1523 -63.4209c-3.78906 -4.50488 -9.0625 -6.16797 -14.1973 -5.84082
c-3.39941 -0.30957 -6.95703 0.46875 -10.1328 2.80078z" />
    <glyph glyph-name="j" unicode="j" horiz-adv-x="160" 
d="M163.865 176.78c4.43262 14.7412 32.5752 12.6514 28.2393 -3.56055c-7.93848 -29.6572 -26.3135 -54.0039 -44.7051 -78.0342c-12.957 -16.9316 -26.6064 -33.3154 -40.5693 -49.4238c2.24609 -81.8398 0.389648 -165.037 -18.2744 -244.648
c-8.96484 -38.2441 -22.2314 -74.7148 -44.8008 -107.114c-23.7402 -34.083 -68.0498 -62.7139 -110.564 -59.7207c-55.5752 3.91602 -81.9746 60.0801 -77.752 110.055c4.85645 57.4766 41.5088 108.915 75.668 153.151c24.6221 31.8896 51.6514 61.6777 79.2803 90.9258
c-3.09277 50.2852 -8.01074 100.515 -12.9941 150.451c-8.32812 83.4863 -18.1748 168.202 -15.8945 252.195c0.771484 28.4561 20.1553 46.4346 48.1045 50.4541c23.665 3.39941 56.5049 -12.5234 57.5449 -39.3496c4.03613 -104.124 13.8418 -207.907 18.1328 -312.018
c1.64258 1.89746 3.31641 3.76758 4.94531 5.67871c20.5928 24.1709 44.3301 49.9883 53.6396 80.958zM13.4824 -126.76c0.333984 22.8174 0.00195312 45.6641 -0.810547 68.5195c-15.8604 -17.7197 -31.3896 -35.7158 -46.1406 -54.3662
c-32.6641 -41.2988 -69.3096 -90.7158 -74.1484 -144.924c-2.1875 -24.5156 4.41113 -54.7998 26.0508 -69.4756c15.8809 -10.7695 43.2275 -8.7207 56.8008 5.51758c9.00977 9.45117 13.4014 28.4971 17.2832 39.4355c5.4248 15.2812 8.13867 31.2549 11.3311 47.0879
c7.65332 37.958 9.08594 70.915 9.63379 108.205zM18.916 478.912c-21.96 14.5 -42.0449 30.4922 -55.9727 53.4541c-9.88086 16.2842 -22.5381 46.1729 -5.02832 61.7822c26.3545 23.4922 50.0469 -10.1328 67.2852 -40.4795
c11.3828 31.9893 29.8818 64.5469 61.5264 63.3652c5.53809 -0.207031 11.1758 -4.25391 13.4521 -9.2002c8.53125 -18.5498 -5.60742 -40.8232 -13.4121 -57.2109c-11.2002 -23.5137 -23.293 -46.5693 -36.0811 -69.2559
c-6.58203 -11.6787 -24.709 -10.5352 -31.7695 -2.45508z" />
    <glyph glyph-name="k" unicode="k" horiz-adv-x="412" 
d="M417.388 148.039c7.90137 13.2393 34.791 5.46484 25.9668 -9.67188c-22.6182 -38.7988 -46.6172 -77.0088 -77.8076 -109.584c-29.8545 -31.1836 -67.8467 -61.0654 -111.395 -68.3633c-52.6992 -8.83398 -97.5557 31.2871 -116.182 77.0596
c-9.24414 22.7109 -15.8604 46.334 -22.1768 69.9854c-2.58008 9.66406 -6.39258 18.4912 -9.58203 27.8838c-1.15723 3.40625 -1.10254 11.3486 -3.1416 13.877c1.03711 -19.707 2.12891 -39.4072 3.16602 -59.1113c1.50879 -28.707 2.97266 -57.3105 3.48633 -86.0625
c0.458008 -25.6211 4.0293 -53.9111 -7.49805 -77.4033c-5.57617 -11.3662 -22.9111 -16.4941 -34.2188 -11.4932c-30.2568 13.377 -41.9014 42.8867 -49.8057 73.2295c-7.22266 27.7393 -12.4678 55.6299 -16.5664 83.9785
c-8.6582 59.9004 -12.8467 120.238 -15.4121 180.69c-5.18652 122.227 -1.64941 247.267 14.4932 368.587c3.91211 29.4062 39.835 42.5186 65.0596 40.2803c29.0312 -2.57617 47.1543 -26.3818 45.0361 -54.166c-8.73145 -114.47 -14.3076 -228.03 -12.2617 -342.896
c0.0273438 -1.61523 0.0751953 -3.23438 0.109375 -4.84961c10.5117 24.0957 22.418 47.6025 35.8535 70.1924c22.4658 37.7686 56.374 87.3477 103.028 95.8896c49.9336 9.14062 62.9834 -41.8574 51.0215 -79.9365c-24.4639 -77.8896 -96.1123 -138.335 -170.781 -171.637
c15.6982 -5.20801 31.3584 -10.5322 44.4082 -21.0234c17.2549 -13.8701 28.9785 -30.1299 39.4043 -49.5205c16.0703 -29.8887 24.8223 -70.5742 52.1553 -92.7686c8.27637 -6.71973 12.1406 -9.14062 22.9971 -7.04688c9.86426 1.90137 19.625 6.34473 28.1562 11.5107
c16.6943 10.1123 31.7656 22.4219 45.0391 36.7217c26.6582 28.7207 47.4434 62.1328 67.4473 95.6484zM112.112 205.411c28.7344 13.9795 55.3359 32.084 78.6875 54.1992c30.0332 28.4453 71.9385 75.2275 67.4648 120.16
c-3.31641 33.3262 -36.9766 6.18945 -49.9678 -6.20605c-17.5752 -16.7695 -31.3311 -36.7559 -43.7402 -57.5205c-12.7021 -21.25 -24.1504 -43.2549 -34.2861 -65.8418c-5.64844 -12.585 -10.9043 -25.3525 -15.6816 -38.2959
c-0.785156 -2.13184 -1.62891 -4.30469 -2.47656 -6.49512z" />
    <glyph glyph-name="l" unicode="l" horiz-adv-x="228" 
d="M229.368 174.786c5.12793 15.3613 35.0029 12.8584 29.668 -3.74609c-15.9502 -49.6406 -32.0928 -100.156 -58.875 -145.233c-19.1465 -32.2266 -43.8242 -61.3438 -81.4238 -72.1348c-58.3506 -16.7422 -97.4209 42.6562 -111.621 89.666
c-17.7754 58.8438 -19.6631 121.683 -21.4502 182.651c-2.07324 70.7324 1.17773 141.803 3.46094 212.498c2.09375 64.7334 3.96387 129.449 7.34961 194.127c1.26758 24.1914 32.7227 36.8145 52.5889 36.8594c21.0781 0.0478516 47.3809 -13.9629 48.5967 -37.8516
c3.23047 -63.5762 -0.74707 -127.376 -2.87598 -190.941c-3.98145 -118.992 -9.49902 -239.858 0.444336 -358.692c1.62207 -19.3906 3.38867 -38.7852 6.80176 -57.9482c0.475586 -2.65527 0.967773 -5.29004 1.49121 -7.91797
c0.0996094 0.203125 1.65625 -5.32812 2.23438 -6.95703c0.571289 -1.61523 2.16895 -4.09473 2.80957 -5.10742c2.94141 -3.46094 5.94141 -6.17871 10.25 -8.58594c26.0107 -14.5273 53.8672 42.5566 62.6289 58.9678c20.4033 38.2236 34.2451 79.3711 47.9219 120.347z
" />
    <glyph glyph-name="m" unicode="m" horiz-adv-x="592" 
d="M593.836 161.327c4.61523 14.9893 33.3896 12.7109 28.7129 -3.62109c-10.4775 -36.6084 -23.9854 -72.834 -41.9707 -106.459c-14.8096 -27.6914 -36.7451 -57.2939 -69.4307 -63.8896c-29.6025 -5.97559 -53.0986 13.3252 -72.6094 32.8398
c-12.6777 12.6846 -22.8037 22.7246 -30.6875 39.2529c-7.00586 14.6787 -11.4766 29.8848 -14.8447 45.7725c-6.66406 31.4277 -6.92285 63.0215 -9.01367 94.9453c-2.33887 35.6885 -5.20801 71.3906 -6.27246 107.134
c-0.527344 17.7822 -1.08203 35.5986 -1.06836 53.3877c0.00683594 10.9219 2.90039 35.6719 -10.1562 15.9609c-18.3643 -27.7256 -27.04 -61.627 -35.458 -93.3818c-16.0361 -60.4902 -27.1299 -121.927 -37.79 -183.502
c0.84082 -10.1914 1.27148 -20.3418 0.750977 -30.3398c-1.21191 -23.3379 -14.3789 -38.8018 -37.2275 -44.2295c-18.8945 -4.4873 -48.4355 2.31836 -55.4648 23.5762c-10.8867 32.916 -10.4561 68.7354 -10.5908 103.06
c-0.120117 31.2422 0.902344 62.2539 2.27344 93.4512c1.38477 31.459 2.4873 62.9385 4.21582 94.3701c0.74707 13.6006 2.5 29.4092 0.981445 42.9443c-1.12988 10.0703 -1.19922 15.4775 -9.91602 6.12988c-5.14941 -5.52148 -9.16895 -12.3447 -12.9541 -18.8506
c-29.5195 -50.7148 -44.2773 -113.017 -58.3779 -169.511c-13.1328 -52.6162 -23.0791 -105.942 -30.9629 -159.575c0.268555 -16.6006 0.0273438 -33.1738 -2.05273 -49.5303c-3.24805 -25.5039 -45.5869 -32.2402 -59.749 -13.0703
c-43.2764 58.5713 -38.1338 144.059 -39.832 213.311c-0.929688 37.875 0.103516 75.7744 2.5459 113.581c2.3418 36.2227 5.81055 72.252 18.4922 106.483c8.74805 23.6133 29.7129 37.8516 55.7783 34.5352c24.6123 -3.13086 40.7344 -21.9531 38.6123 -46.4375
c-3.01758 -34.7959 -8.8623 -69.2275 -11.3525 -104.082c-2.29688 -32.165 -2.17969 -64.4814 -2.6582 -96.708c-0.0175781 -1.34277 -0.0214844 -2.68555 -0.0390625 -4.02832c0.978516 4.1123 1.92188 8.23145 2.9375 12.3369
c13.0771 52.8438 27.6152 107.62 50.9463 157.006c9.19629 19.4697 21.874 44.0264 42.2568 53.749c21.4775 10.2461 35.8262 -1.72949 49.0693 -17.9795c35.3203 -43.3447 42.8184 -105.043 49.3652 -158.813c0.791992 -6.48145 1.45703 -12.9707 2.05664 -19.4629
c6.15137 29.1338 13.2051 58.0576 21.1436 86.6377c8.37988 30.167 18.3506 62.7656 37.3516 88.1426c15.1475 20.2275 45.0771 28.4629 63.125 6.70996c21.3193 -25.6973 34.9688 -51.332 44.2334 -83.4385c10.1123 -35.0342 16.749 -71.1221 20.2002 -107.427
c3.02734 -31.8311 4.19531 -63.7754 6.91992 -95.6025c1.32227 -15.4404 2.57617 -31.2832 5.44824 -46.5205c2.53125 -13.4355 1.66992 -27.25 8.38965 -39.4873c20.5889 -37.4824 53.0947 13.1123 64.2568 33.5293c16.8623 30.8359 30.084 63.5449 40.416 97.1016z" />
    <glyph glyph-name="n" unicode="n" horiz-adv-x="399" 
d="M397.907 145.098c8.05957 16.5664 39.7256 7.29492 30.7842 -11.4658c-15.6191 -32.7363 -21.1436 -70.1367 -41.9424 -100.418c-18.6914 -27.209 -47.2676 -46.3584 -81.4062 -44.4951c-29.3652 1.60449 -62.2744 19.0703 -79.9873 42.4531
c-22.9209 30.2568 -23.9365 66.3965 -23.0029 102.719c1.85645 72.2617 3.75098 144.476 6.05859 216.686c0.209961 6.57812 1.97363 14.7129 0.261719 21.2051c-2.05664 7.81836 -3.12402 7.18457 -10.0264 1.28125c-12.4854 -10.6738 -21.1094 -25.6973 -29.0176 -39.8564
c-17.3174 -31.0078 -30.0059 -64.2168 -40.29 -98.1455c-16.9561 -55.9502 -28.8965 -113.437 -36.8389 -171.378c0.674805 -11.9922 1.38477 -24.0156 1.41895 -35.9355c0.0244141 -8.04883 -0.0859375 -19.1699 -1.34961 -27.3047
c-1.3877 -8.92383 -5.77246 -13.5459 -9.93262 -20.7617c-9.40625 -16.3115 -30.8428 -19.0703 -46.1143 -10.0117c-8.9375 5.30078 -15.8604 8.98633 -21.9121 18.2959c-5.30371 8.16309 -9.57129 16.8076 -12.6191 26.0176
c-5.99609 18.1338 -10.1807 37.2695 -12.5986 56.1953c-4.69824 36.7871 -6.30664 73.5781 -6.39258 110.641c-0.182617 77.2246 7.88379 154.897 23.5586 230.493c10.8047 52.1133 100.907 43.7959 95.3418 -12.0234
c-5.74121 -57.5762 -9.23047 -115.121 -10.7119 -172.873c3.75391 13.2051 7.78711 26.3174 12.168 39.2949c10.5186 31.1592 23.1445 61.8604 40.0693 90.1367c13.8047 23.0693 36.0303 55.334 66.749 53.7734c15.4336 -0.782227 23.8135 -10.1436 33.9668 -20.459
c10.584 -10.7559 18.8604 -22.0078 24.7119 -36.0156c14.2559 -34.1416 21.626 -71.0908 26.0244 -107.709c8.03223 -66.8994 0.248047 -135.098 11.7275 -201.67c2.44531 -14.1826 8.09375 -25.7412 24.8604 -18.6602c12.998 5.49023 22.3525 16.7529 29.3369 28.6426
c16.7217 28.459 22.7109 61.7637 37.1045 91.3486z" />
    <glyph glyph-name="o" unicode="o" horiz-adv-x="320" 
d="M325.374 189.466c11.5518 13.5186 37.1777 -0.844727 24.6133 -16.833c-19.8936 -25.3008 -48.6211 -40.2861 -78.3545 -51.1211c-6.48926 -2.36621 -13.0537 -4.64648 -19.6523 -6.85742c-2.18359 -9.14746 -4.73242 -18.2021 -7.79395 -27.1016
c-17.7549 -51.6211 -47.5225 -111.144 -103.941 -127.714c-30.9697 -9.0957 -67.3018 -8.38281 -93.5674 12.5332c-24.877 19.8145 -36.5049 50.0645 -39.5703 80.9932c-3.02734 30.5322 -1.38477 63.1592 4.14648 95.2969
c-5.42773 6.1377 -10.4971 12.7988 -15.1504 20.0146c-33.1875 51.4727 -45.1904 116.439 -38.1777 176.833c6.26855 54.0117 33.7188 108.646 89.0596 125.437c53.6396 16.2773 109.628 -3.06543 147.848 -42.4531c42.8145 -44.123 58.7881 -106.252 64.2197 -165.815
c3.45801 -37.9307 4.18848 -77.2178 -1.01953 -115.424c25.9453 9.45117 50.4785 22.4805 67.3408 42.2119zM165.418 27.7852c23.9131 19.9902 38.2021 46.4814 46.9912 75.2158c-14.8994 -3.71582 -29.9609 -6.65332 -45.1289 -8.31348
c-25.6484 -2.80664 -50.9287 -1.31836 -74.5039 4.77441c-1.51172 -12.2402 -2.23828 -24.6357 -1.74902 -37.2686c0.688477 -17.793 2.4248 -41.8818 20.2832 -51.4326c18.3604 -9.81543 40.4102 5.57617 54.1074 17.0244zM222.813 153.352
c6.0957 47.6396 3.93164 97.8291 -4.58887 145.052c-8.60742 47.6709 -28.9248 96.8262 -69.2178 126.277c-35.1309 25.6758 -87.7676 32.1611 -121.327 -0.0146484c-35.2129 -33.7598 -39.7109 -92.207 -35.0127 -137.791
c3.28613 -31.8691 12.2373 -65.6045 28.6836 -94.3184c6.57812 22.707 15.0332 44.5361 25.1934 64.4365c17.9648 35.1855 92.6484 25.3594 81.458 -19.8799c-8.96484 -36.2432 -22.0869 -71.6074 -30.0908 -107.964c31.8242 -9.13379 67.3613 -6.62305 99.5645 0.988281
c7.29785 1.72559 14.9199 3.56836 22.6758 5.58301c1.0332 5.8623 1.9082 11.748 2.66211 17.6309z" />
    <glyph glyph-name="o" unicode="&#xf6;" horiz-adv-x="320" 
d="M325.374 189.466c11.5518 13.5186 37.1777 -0.844727 24.6133 -16.833c-19.8936 -25.3008 -48.6211 -40.2861 -78.3545 -51.1211c-6.48926 -2.36621 -13.0537 -4.64648 -19.6523 -6.85742c-2.18359 -9.14746 -4.73242 -18.2021 -7.79395 -27.1016
c-17.7549 -51.6211 -47.5225 -111.144 -103.941 -127.714c-30.9697 -9.0957 -67.3018 -8.38281 -93.5674 12.5332c-24.877 19.8145 -36.5049 50.0645 -39.5703 80.9932c-3.02734 30.5322 -1.38477 63.1592 4.14648 95.2969
c-5.42773 6.1377 -10.4971 12.7988 -15.1504 20.0146c-33.1875 51.4727 -45.1904 116.439 -38.1777 176.833c6.26855 54.0117 33.7188 108.646 89.0596 125.437c53.6396 16.2773 109.628 -3.06543 147.848 -42.4531c42.8145 -44.123 58.7881 -106.252 64.2197 -165.815
c3.45801 -37.9307 4.18848 -77.2178 -1.01953 -115.424c25.9453 9.45117 50.4785 22.4805 67.3408 42.2119zM165.418 27.7852c23.9131 19.9902 38.2021 46.4814 46.9912 75.2158c-14.8994 -3.71582 -29.9609 -6.65332 -45.1289 -8.31348
c-25.6484 -2.80664 -50.9287 -1.31836 -74.5039 4.77441c-1.51172 -12.2402 -2.23828 -24.6357 -1.74902 -37.2686c0.688477 -17.793 2.4248 -41.8818 20.2832 -51.4326c18.3604 -9.81543 40.4102 5.57617 54.1074 17.0244zM222.813 153.352
c6.0957 47.6396 3.93164 97.8291 -4.58887 145.052c-8.60742 47.6709 -28.9248 96.8262 -69.2178 126.277c-35.1309 25.6758 -87.7676 32.1611 -121.327 -0.0146484c-35.2129 -33.7598 -39.7109 -92.207 -35.0127 -137.791
c3.28613 -31.8691 12.2373 -65.6045 28.6836 -94.3184c6.57812 22.707 15.0332 44.5361 25.1934 64.4365c17.9648 35.1855 92.6484 25.3594 81.458 -19.8799c-8.96484 -36.2432 -22.0869 -71.6074 -30.0908 -107.964c31.8242 -9.13379 67.3613 -6.62305 99.5645 0.988281
c7.29785 1.72559 14.9199 3.56836 22.6758 5.58301c1.0332 5.8623 1.9082 11.748 2.66211 17.6309z" />
    <glyph glyph-name="o" unicode="&#xf5;" horiz-adv-x="320" 
d="M325.374 189.466c11.5518 13.5186 37.1777 -0.844727 24.6133 -16.833c-19.8936 -25.3008 -48.6211 -40.2861 -78.3545 -51.1211c-6.48926 -2.36621 -13.0537 -4.64648 -19.6523 -6.85742c-2.18359 -9.14746 -4.73242 -18.2021 -7.79395 -27.1016
c-17.7549 -51.6211 -47.5225 -111.144 -103.941 -127.714c-30.9697 -9.0957 -67.3018 -8.38281 -93.5674 12.5332c-24.877 19.8145 -36.5049 50.0645 -39.5703 80.9932c-3.02734 30.5322 -1.38477 63.1592 4.14648 95.2969
c-5.42773 6.1377 -10.4971 12.7988 -15.1504 20.0146c-33.1875 51.4727 -45.1904 116.439 -38.1777 176.833c6.26855 54.0117 33.7188 108.646 89.0596 125.437c53.6396 16.2773 109.628 -3.06543 147.848 -42.4531c42.8145 -44.123 58.7881 -106.252 64.2197 -165.815
c3.45801 -37.9307 4.18848 -77.2178 -1.01953 -115.424c25.9453 9.45117 50.4785 22.4805 67.3408 42.2119zM165.418 27.7852c23.9131 19.9902 38.2021 46.4814 46.9912 75.2158c-14.8994 -3.71582 -29.9609 -6.65332 -45.1289 -8.31348
c-25.6484 -2.80664 -50.9287 -1.31836 -74.5039 4.77441c-1.51172 -12.2402 -2.23828 -24.6357 -1.74902 -37.2686c0.688477 -17.793 2.4248 -41.8818 20.2832 -51.4326c18.3604 -9.81543 40.4102 5.57617 54.1074 17.0244zM222.813 153.352
c6.0957 47.6396 3.93164 97.8291 -4.58887 145.052c-8.60742 47.6709 -28.9248 96.8262 -69.2178 126.277c-35.1309 25.6758 -87.7676 32.1611 -121.327 -0.0146484c-35.2129 -33.7598 -39.7109 -92.207 -35.0127 -137.791
c3.28613 -31.8691 12.2373 -65.6045 28.6836 -94.3184c6.57812 22.707 15.0332 44.5361 25.1934 64.4365c17.9648 35.1855 92.6484 25.3594 81.458 -19.8799c-8.96484 -36.2432 -22.0869 -71.6074 -30.0908 -107.964c31.8242 -9.13379 67.3613 -6.62305 99.5645 0.988281
c7.29785 1.72559 14.9199 3.56836 22.6758 5.58301c1.0332 5.8623 1.9082 11.748 2.66211 17.6309z" />
    <glyph glyph-name="o" unicode="&#xf4;" horiz-adv-x="320" 
d="M325.374 189.466c11.5518 13.5186 37.1777 -0.844727 24.6133 -16.833c-19.8936 -25.3008 -48.6211 -40.2861 -78.3545 -51.1211c-6.48926 -2.36621 -13.0537 -4.64648 -19.6523 -6.85742c-2.18359 -9.14746 -4.73242 -18.2021 -7.79395 -27.1016
c-17.7549 -51.6211 -47.5225 -111.144 -103.941 -127.714c-30.9697 -9.0957 -67.3018 -8.38281 -93.5674 12.5332c-24.877 19.8145 -36.5049 50.0645 -39.5703 80.9932c-3.02734 30.5322 -1.38477 63.1592 4.14648 95.2969
c-5.42773 6.1377 -10.4971 12.7988 -15.1504 20.0146c-33.1875 51.4727 -45.1904 116.439 -38.1777 176.833c6.26855 54.0117 33.7188 108.646 89.0596 125.437c53.6396 16.2773 109.628 -3.06543 147.848 -42.4531c42.8145 -44.123 58.7881 -106.252 64.2197 -165.815
c3.45801 -37.9307 4.18848 -77.2178 -1.01953 -115.424c25.9453 9.45117 50.4785 22.4805 67.3408 42.2119zM165.418 27.7852c23.9131 19.9902 38.2021 46.4814 46.9912 75.2158c-14.8994 -3.71582 -29.9609 -6.65332 -45.1289 -8.31348
c-25.6484 -2.80664 -50.9287 -1.31836 -74.5039 4.77441c-1.51172 -12.2402 -2.23828 -24.6357 -1.74902 -37.2686c0.688477 -17.793 2.4248 -41.8818 20.2832 -51.4326c18.3604 -9.81543 40.4102 5.57617 54.1074 17.0244zM222.813 153.352
c6.0957 47.6396 3.93164 97.8291 -4.58887 145.052c-8.60742 47.6709 -28.9248 96.8262 -69.2178 126.277c-35.1309 25.6758 -87.7676 32.1611 -121.327 -0.0146484c-35.2129 -33.7598 -39.7109 -92.207 -35.0127 -137.791
c3.28613 -31.8691 12.2373 -65.6045 28.6836 -94.3184c6.57812 22.707 15.0332 44.5361 25.1934 64.4365c17.9648 35.1855 92.6484 25.3594 81.458 -19.8799c-8.96484 -36.2432 -22.0869 -71.6074 -30.0908 -107.964c31.8242 -9.13379 67.3613 -6.62305 99.5645 0.988281
c7.29785 1.72559 14.9199 3.56836 22.6758 5.58301c1.0332 5.8623 1.9082 11.748 2.66211 17.6309z" />
    <glyph glyph-name="o" unicode="&#xf3;" horiz-adv-x="320" 
d="M325.374 189.466c11.5518 13.5186 37.1777 -0.844727 24.6133 -16.833c-19.8936 -25.3008 -48.6211 -40.2861 -78.3545 -51.1211c-6.48926 -2.36621 -13.0537 -4.64648 -19.6523 -6.85742c-2.18359 -9.14746 -4.73242 -18.2021 -7.79395 -27.1016
c-17.7549 -51.6211 -47.5225 -111.144 -103.941 -127.714c-30.9697 -9.0957 -67.3018 -8.38281 -93.5674 12.5332c-24.877 19.8145 -36.5049 50.0645 -39.5703 80.9932c-3.02734 30.5322 -1.38477 63.1592 4.14648 95.2969
c-5.42773 6.1377 -10.4971 12.7988 -15.1504 20.0146c-33.1875 51.4727 -45.1904 116.439 -38.1777 176.833c6.26855 54.0117 33.7188 108.646 89.0596 125.437c53.6396 16.2773 109.628 -3.06543 147.848 -42.4531c42.8145 -44.123 58.7881 -106.252 64.2197 -165.815
c3.45801 -37.9307 4.18848 -77.2178 -1.01953 -115.424c25.9453 9.45117 50.4785 22.4805 67.3408 42.2119zM165.418 27.7852c23.9131 19.9902 38.2021 46.4814 46.9912 75.2158c-14.8994 -3.71582 -29.9609 -6.65332 -45.1289 -8.31348
c-25.6484 -2.80664 -50.9287 -1.31836 -74.5039 4.77441c-1.51172 -12.2402 -2.23828 -24.6357 -1.74902 -37.2686c0.688477 -17.793 2.4248 -41.8818 20.2832 -51.4326c18.3604 -9.81543 40.4102 5.57617 54.1074 17.0244zM222.813 153.352
c6.0957 47.6396 3.93164 97.8291 -4.58887 145.052c-8.60742 47.6709 -28.9248 96.8262 -69.2178 126.277c-35.1309 25.6758 -87.7676 32.1611 -121.327 -0.0146484c-35.2129 -33.7598 -39.7109 -92.207 -35.0127 -137.791
c3.28613 -31.8691 12.2373 -65.6045 28.6836 -94.3184c6.57812 22.707 15.0332 44.5361 25.1934 64.4365c17.9648 35.1855 92.6484 25.3594 81.458 -19.8799c-8.96484 -36.2432 -22.0869 -71.6074 -30.0908 -107.964c31.8242 -9.13379 67.3613 -6.62305 99.5645 0.988281
c7.29785 1.72559 14.9199 3.56836 22.6758 5.58301c1.0332 5.8623 1.9082 11.748 2.66211 17.6309z" />
    <glyph glyph-name="p" unicode="p" horiz-adv-x="437" 
d="M450.186 187.63c18.3398 7.32617 30.9824 -17.792 11.4199 -25.665c-38.4785 -15.502 -78.042 -27.8838 -118.359 -37.252c-0.375 -2.82422 -0.743164 -5.64844 -1.15332 -8.46191c-7.88379 -54.0146 -25.4287 -138.421 -86.3594 -156.892
c-53.0127 -16.0742 -106.669 33.3975 -105.363 86.5273c1.40527 57.3145 58.5645 82.8115 107.278 91.6455c5.39355 0.978516 10.7627 1.9668 16.1221 2.96582c4.80762 29.5957 7.4043 59.6807 8.52051 88.8525c1.05371 27.5811 2.12793 55.083 1.58691 82.6914
c-0.530273 27.123 0.151367 56.8047 -11.6377 81.8301c-4.72168 10.0293 -11.3926 21.1436 -21.2568 26.8779c-11.0557 6.42676 -19.6074 -0.978516 -26.8438 -9.58887c-16.0811 -19.1357 -26.293 -43.793 -35.0312 -66.9551
c-66.248 -175.632 -63.8027 -366.294 -71.1289 -552.382c0.888672 -13.0771 1.77734 -26.1582 2.74902 -39.2324c2.15918 -29.0312 1.16016 -58.3652 3.99121 -87.2891c2.9375 -30.04 -38.6504 -44.4502 -60.3145 -28.6348
c-29.0752 21.2295 -36.5732 51.4248 -43.6445 84.9326c-6.98145 33.0918 -11.5586 67.1963 -15.4434 100.798c-7.66016 66.2275 -13.5254 132.944 -16.1914 199.564c-2.66895 66.6484 -4.12207 133.586 -2.34473 200.278c0.960938 36.0498 2.97559 72.1201 5.15234 108.115
c2.05273 34.0039 4.00586 67.6943 11.7139 100.958c10.7354 46.334 95.7129 50.9561 100.229 -0.985352c5.61719 -64.5957 -0.90918 -131.075 -1.41504 -195.936c-0.30957 -39.877 -0.447266 -79.7188 0.0351562 -119.561c1.1748 10.3223 2.42188 20.6338 3.7998 30.9287
c8.7168 65.0977 22.0459 129.803 43.7236 191.895c14.8135 42.4248 42.1533 124.489 100.814 116.485c25.2871 -3.45117 43.5967 -24.543 54.3799 -46.1758c14.2451 -28.5762 25.6279 -59.0498 32.3887 -90.2881c11.4346 -52.8438 13.6357 -107.975 9.03125 -162.062
c34.9375 8.2832 69.3477 18.3506 103.552 32.0137zM257.566 71.0557c4.0918 12.9092 7.57031 26.168 10.5322 39.6348c-21.1299 -3.44043 -42.4561 -8.18262 -59.7217 -21.043c-19.2461 -14.335 -28.6279 -40.3379 -17.4443 -62.7871
c24.7734 -49.7373 58.915 19.8418 66.6338 44.1953z" />
    <glyph glyph-name="q" unicode="q" horiz-adv-x="432" 
d="M366.845 44.0146c-18.5156 -19.3008 -37.4248 -38.2295 -55.6719 -57.7783c-2.06348 -2.20801 -4.59473 -4.45703 -6.90527 -6.8125c0.03125 -6.33008 0.0761719 -12.6641 0.134766 -18.998c8.53125 -5.59375 18.75 -9.26855 26.9746 -15.6611
c36.543 -28.4072 58.3027 -70.2568 70.8428 -114.046c12.3818 -43.2344 22.8008 -91.0703 17.0527 -136.154c-5.00391 -39.2734 -29.082 -83.6309 -74.9619 -78.9473c-49.7822 5.08398 -81.2617 62.4229 -98.5928 103.36c-20.4443 48.2842 -30.4053 102.685 -36.123 154.612
c-6.12695 55.6719 -9.03418 111.357 -9.52637 167.35c-0.168945 19.0566 -0.158203 38.1445 0.0244141 57.2422c-1.49121 -5.14551 -3.04785 -10.2734 -4.68066 -15.3877c-9.91602 -31.0664 -20.252 -61.8154 -44.5156 -84.6055
c-28.0732 -26.3682 -63.1865 -30.1494 -96.9873 -10.5146c-32.1963 18.6982 -53.457 55.6094 -63.8896 90.5537c-11.2314 37.6133 -14.9854 75.3789 -12.0752 114.48c5.45898 73.3125 30.7939 155.445 90.7949 201.869c31.0527 24.0264 72.8135 37.0215 110.311 20.4443
c18.0234 -7.96973 31.0078 -21.667 39.9697 -37.9824c4.08105 27.4531 37.5381 39.7246 61.3164 37.6133c27.3057 -2.4248 44.6299 -24.9014 42.5049 -51.1221c-9.15137 -112.861 -18.9229 -225.348 -18.709 -338.691c0 -0.485352 0.00390625 -0.974609 0.00390625 -1.45996
c16.7939 16.7109 34.4072 32.7988 50.4297 49.5752c30.7051 32.1475 59.416 65.8936 81.207 104.833c7.93555 14.1826 36.1299 5.99609 27.2783 -10.1572c-25.2979 -46.1689 -59.9395 -85.7979 -96.2061 -123.615zM186.104 168.119
c8.5 41.6123 14.335 83.6885 20.583 125.693c-19.2285 -3.93652 -41.4434 3.62012 -42.2461 24.8877c-0.561523 14.8789 -2.125 26.8711 -11.1592 38.6396c-0.599609 0.77832 -1.50195 1.33594 -1.91211 1.72168c-2.83789 -1.26367 -5.54492 -3.87793 -7.35645 -5.61035
c-18.6436 -17.7998 -32.2822 -45.6943 -42.8252 -68.874c-20.2002 -44.416 -28.9521 -97.1699 -25.8418 -145.788c1.62207 -25.335 6.65039 -50.9014 16.1875 -74.4766c4.89453 -12.0996 18.0791 -45.6455 36.0469 -44.082c17.6826 1.53613 31.4287 50.1475 36.123 63.4795
c9.66797 27.4531 16.5801 55.9189 22.4004 84.4092zM320.73 -87.2256c-4.9043 4.95996 -10.2676 8.87305 -15.8164 12.3691c1.31934 -63.4727 5.07031 -126.914 16.2949 -189.347c3.96777 -22.0703 10.6562 -43.3857 21.2471 -63.2344
c3.2793 -6.14746 9.16895 -18.1328 16.0439 -21.0537c7.35645 -3.12695 0.151367 -4.12207 8.06934 0.538086c3.8916 2.29004 6.65039 8.89258 8.56543 12.7432c19.46 39.1328 9.71289 87.7852 1.26074 128.561c-9 43.4072 -23.8477 87.2412 -55.665 119.424z" />
    <glyph glyph-name="r" unicode="r" horiz-adv-x="351" 
d="M353.899 187.062c7.88672 13.5391 35.124 5.75 26.4102 -9.83789c-25.5283 -45.6045 -36.7666 -96.5127 -54.1045 -145.382c-14.541 -40.9824 -29.7568 -82.7812 -72.458 -100.108c-56.8877 -23.0859 -93.0723 56.3535 -103.828 98.2314
c-11.8271 46.0488 -12.7744 93.8809 -8.86523 141.114c-13.0908 -7.1123 -27.0156 -12.7812 -42.3975 -16.7559c-35.9502 -9.29199 -68.752 -13.7588 -99.2021 12.5273c-51.9824 44.877 -52.9775 126.631 -34.6338 188.033c17.4033 58.2617 67.1953 125.806 135.728 120.488
c73.2949 -5.68945 49.8779 -100.362 38.2607 -145.522c-12.8916 -50.1123 -33.3398 -97.9824 -60.4072 -141.95c0.847656 -0.482422 1.69531 -0.97168 2.56348 -1.42285c20.1729 -10.4424 45.415 3.30664 64.9883 17.7373c7.88379 17.7578 31.3008 26.9639 49.0557 27.0049
c18.8564 0.0449219 48.7725 -13.7969 47.6768 -37.1348c-2.08398 -44.4121 -6.12402 -88.7041 -3.23438 -133.203c1.36719 -21.0469 4.31836 -42.2832 8.50684 -62.9443c1.72168 -8.51074 3.24707 -16.0332 6.67773 -23.9717
c0.950195 -2.2041 2.72363 -4.74609 3.26074 -7.10156c1.44336 2.66895 6.75391 6.25781 8.69336 8.97168c2.91406 4.07422 5.33496 8.70312 7.69043 13.1045c4.53906 8.47266 8.60352 17.207 12.3682 26.0479c8.61035 20.2314 15.3682 41.1719 22.2432 62.0361
c12.4336 37.7344 24.915 75.5518 45.0078 110.038zM52.4189 211.244c22.2764 39.501 39.1572 81.8008 49.6484 126.176c3.1582 13.3564 5.54492 26.7402 7.16406 40.3652c0.857422 7.21875 1.76367 14.4756 1.68457 21.7598
c-0.0722656 6.5957 -3.14062 12.9023 -3.47852 18.875c-0.926758 0.902344 -1.58789 1.61523 -2.00098 2.15625c-2.11816 0.0546875 -4.23633 0.0751953 -6.35449 0.0234375c-2.95117 -0.258789 -5.09668 -0.427734 -8.02734 -1.47168
c-10.708 -3.81934 -20.1377 -13.4248 -27.377 -21.8838c-17.3105 -20.2246 -24.9941 -46.5762 -28.5898 -72.459c-3.77441 -27.168 -5.67188 -58.8369 2.79395 -85.3125c3.19238 -9.98145 8.14844 -19.6426 14.5371 -28.2285z" />
    <glyph glyph-name="s" unicode="s" horiz-adv-x="295" 
d="M307.105 179.688c14.1865 9.31641 31.4785 -7.89551 16.9131 -19.7812c-40.9893 -33.4639 -84.2168 -63.8418 -126.632 -95.4521c-3.99512 -2.97949 -8.00098 -5.98633 -12 -9.03125c5.41113 -11.4453 10.2363 -23.1035 14.1279 -35.0342
c7.08789 -21.7461 13.9766 -43.8916 13.5078 -66.9746c-0.478516 -23.8193 -11.0381 -41.9805 -23.6055 -61.2471c-19.6904 -30.1816 -49.5 -52.4141 -87.6924 -47.5264c-38.375 4.91113 -63.3799 35.2539 -57.9453 73.9492
c5.26562 37.4688 28.9404 72.4961 53.8867 99.8428c0.527344 0.575195 1.08496 1.11914 1.61523 1.69043c-29.3027 46.6406 -61.082 91.8486 -87.1885 140.366c-41.6328 77.377 -51.876 168.761 -11.7959 249.468c16.9209 34.0801 49.7129 64.6572 90.5264 52.7402
c33.5596 -9.79883 57.1826 -43.4072 59.8516 -77.4492c1.29492 -16.5352 -27.6055 -19.5693 -29.5449 -3.10645c-2.25586 19.167 -19.249 53.9805 -44.5771 49.3135c-19.3945 -3.57129 -22.2148 -33.9424 -22.2012 -49.3857
c0.0380859 -49.0449 14.7373 -97.4971 32.9189 -142.602c15.333 -38.0342 35.6367 -73.9844 56.4189 -109.246c9.20996 -15.626 18.792 -31.4482 27.709 -47.6328c4.9873 3.73047 9.98438 7.43652 14.9814 11.1113c39.832 29.2793 79.3955 58.8506 120.726 85.9873z
M152.072 -104.354c10.5596 16.5049 -4.67773 38.9111 -12.2441 53.8936c-7.33301 14.5176 -15.248 28.7002 -23.5068 42.6797c-4.55664 -5.51758 -8.89258 -11.207 -12.9121 -17.1445c-17.5996 -26.0029 -48.7725 -88.5107 -0.268555 -100.59
c18.2441 -4.54297 38.9883 5.61719 48.9316 21.1611z" />
    <glyph glyph-name="t" unicode="t" horiz-adv-x="237" 
d="M237.895 162.725c0.716797 13.7461 29.0596 13.8613 28.4082 -0.277344c-1.77051 -38.6191 -7.26367 -76.708 -17.8887 -113.926c-8.54883 -29.9473 -18.8535 -61.6885 -37.3105 -87.1514c-14.2109 -19.6006 -34.5625 -35.3408 -59.2705 -37.9961
c-28.1357 -3.02441 -58.4482 2.71387 -81.2559 19.876c-53.8428 40.5068 -66.8828 120.397 -76.0371 182.812c-10.2949 70.168 -11.0186 140.801 -10.8604 211.571c0.0898438 39.4463 0.186523 79.2266 1.64648 118.907
c-15.0439 -0.509766 -30.0879 -1.04004 -45.1357 -1.53223c-18.251 -0.599609 -21.1748 23.7646 -2.59668 24.7012c16.2939 0.819336 32.5879 1.60449 48.8818 2.40723c1.39844 26.1348 3.50977 52.1865 6.76758 78.0352c3.06836 24.3369 31.5449 36.9873 52.8369 37.0352
c19.7871 0.0449219 49.3555 -14.083 48.8281 -38.0303c-0.527344 -24.04 -1.55371 -48.0703 -2.74219 -72.1006c11.2383 0.496094 22.4727 1.04395 33.7109 1.5127c19.8389 0.823242 22.8555 -25.917 2.81055 -26.75c-12.626 -0.527344 -25.2559 -0.964844 -37.8857 -1.4541
c-1.9834 -37.335 -4.1123 -74.6729 -5.25195 -112.024c-3.48926 -114.253 -12.4473 -236.362 22.1943 -346.972c5.53809 -17.6855 19.2256 -48.8105 41.1094 -49.6543c24.0469 -0.926758 39.6973 24.0605 48.9619 42.6729c25.6279 51.4834 37.0967 111.291 40.0791 168.337z
" />
    <glyph glyph-name="u" unicode="u" horiz-adv-x="426" 
d="M427.037 164.93c3.11035 15.292 30.9336 12.96 28.2295 -3.56543c-9.34082 -57.2383 -18.2607 -122.987 -53.7705 -170.979c-14.6064 -19.7422 -36.377 -33.9805 -61.8086 -31.0869c-11.5137 1.3125 -21.9287 6.62988 -32.5371 10.6494
c-14.2383 5.39746 -24.4814 12.0547 -34.2383 23.9648c-42.4492 51.8145 -47.5947 124.479 -50.8008 188.428c-0.203125 4.0332 -0.392578 8.08008 -0.568359 12.1406c-1.23633 -4.58789 -2.43457 -9.17871 -3.71191 -13.7598
c-8.23535 -29.4854 -17.2285 -58.7607 -26.958 -87.7881c-8.60352 -25.666 -15.8125 -54.7314 -31.5898 -77.0908c-13.2393 -18.7607 -37.0283 -36.4707 -60.3008 -38.9092c-28.0117 -2.93457 -54.7354 14.0938 -70.957 35.7744
c-38.9189 52.0137 -44.5605 117.191 -44.9912 180.075c-0.44043 65.1631 3.14453 130.599 9.03027 195.477c2.71094 29.8535 41.3818 42.9795 65.9043 40.8027c29.5059 -2.61719 47.6328 -26.7227 45.6211 -54.8682c-4.86328 -68.0566 -9.87109 -135.403 -9.875 -203.677
c-0.00390625 -31.6035 0.708984 -63.0693 4.65625 -94.4805c1.4707 -11.7207 2.71387 -24.1201 6.71582 -34.2734c1.60156 -4.06055 6.83984 -20.4307 12.8018 -21.0234c8.82715 -0.87793 19.4355 26.9922 21.957 33.1953c5.79297 14.2559 10.7354 28.9072 15.7676 43.4414
c10.7529 31.0488 20.6582 62.3945 29.7061 93.9844c14.9336 52.1416 28.001 104.951 39.0049 158.112c1.28809 13.002 2.90723 25.8965 4.9082 38.6299c3.51953 22.3701 28.5039 34.0254 48.6074 34.0703c17.751 0.0410156 45.9727 -12.999 44.9189 -34.9863
c-2.68945 -56.1738 -7.41113 -111.783 -7.78613 -168.099c-0.347656 -52.375 0.789062 -104.63 5.71777 -156.774c1.92871 -20.417 3.61328 -47.1436 13.4082 -65.6973c13.4014 -25.3838 40.4316 8.15527 48.1084 21.915c24.9463 44.7188 34.7383 96.7568 44.8301 146.397z
" />
    <glyph glyph-name="u" unicode="&#xfc;" horiz-adv-x="426" 
d="M427.037 164.93c3.11035 15.292 30.9336 12.96 28.2295 -3.56543c-9.34082 -57.2383 -18.2607 -122.987 -53.7705 -170.979c-14.6064 -19.7422 -36.377 -33.9805 -61.8086 -31.0869c-11.5137 1.3125 -21.9287 6.62988 -32.5371 10.6494
c-14.2383 5.39746 -24.4814 12.0547 -34.2383 23.9648c-42.4492 51.8145 -47.5947 124.479 -50.8008 188.428c-0.203125 4.0332 -0.392578 8.08008 -0.568359 12.1406c-1.23633 -4.58789 -2.43457 -9.17871 -3.71191 -13.7598
c-8.23535 -29.4854 -17.2285 -58.7607 -26.958 -87.7881c-8.60352 -25.666 -15.8125 -54.7314 -31.5898 -77.0908c-13.2393 -18.7607 -37.0283 -36.4707 -60.3008 -38.9092c-28.0117 -2.93457 -54.7354 14.0938 -70.957 35.7744
c-38.9189 52.0137 -44.5605 117.191 -44.9912 180.075c-0.44043 65.1631 3.14453 130.599 9.03027 195.477c2.71094 29.8535 41.3818 42.9795 65.9043 40.8027c29.5059 -2.61719 47.6328 -26.7227 45.6211 -54.8682c-4.86328 -68.0566 -9.87109 -135.403 -9.875 -203.677
c-0.00390625 -31.6035 0.708984 -63.0693 4.65625 -94.4805c1.4707 -11.7207 2.71387 -24.1201 6.71582 -34.2734c1.60156 -4.06055 6.83984 -20.4307 12.8018 -21.0234c8.82715 -0.87793 19.4355 26.9922 21.957 33.1953c5.79297 14.2559 10.7354 28.9072 15.7676 43.4414
c10.7529 31.0488 20.6582 62.3945 29.7061 93.9844c14.9336 52.1416 28.001 104.951 39.0049 158.112c1.28809 13.002 2.90723 25.8965 4.9082 38.6299c3.51953 22.3701 28.5039 34.0254 48.6074 34.0703c17.751 0.0410156 45.9727 -12.999 44.9189 -34.9863
c-2.68945 -56.1738 -7.41113 -111.783 -7.78613 -168.099c-0.347656 -52.375 0.789062 -104.63 5.71777 -156.774c1.92871 -20.417 3.61328 -47.1436 13.4082 -65.6973c13.4014 -25.3838 40.4316 8.15527 48.1084 21.915c24.9463 44.7188 34.7383 96.7568 44.8301 146.397z
" />
    <glyph glyph-name="u" unicode="&#xfb;" horiz-adv-x="426" 
d="M427.037 164.93c3.11035 15.292 30.9336 12.96 28.2295 -3.56543c-9.34082 -57.2383 -18.2607 -122.987 -53.7705 -170.979c-14.6064 -19.7422 -36.377 -33.9805 -61.8086 -31.0869c-11.5137 1.3125 -21.9287 6.62988 -32.5371 10.6494
c-14.2383 5.39746 -24.4814 12.0547 -34.2383 23.9648c-42.4492 51.8145 -47.5947 124.479 -50.8008 188.428c-0.203125 4.0332 -0.392578 8.08008 -0.568359 12.1406c-1.23633 -4.58789 -2.43457 -9.17871 -3.71191 -13.7598
c-8.23535 -29.4854 -17.2285 -58.7607 -26.958 -87.7881c-8.60352 -25.666 -15.8125 -54.7314 -31.5898 -77.0908c-13.2393 -18.7607 -37.0283 -36.4707 -60.3008 -38.9092c-28.0117 -2.93457 -54.7354 14.0938 -70.957 35.7744
c-38.9189 52.0137 -44.5605 117.191 -44.9912 180.075c-0.44043 65.1631 3.14453 130.599 9.03027 195.477c2.71094 29.8535 41.3818 42.9795 65.9043 40.8027c29.5059 -2.61719 47.6328 -26.7227 45.6211 -54.8682c-4.86328 -68.0566 -9.87109 -135.403 -9.875 -203.677
c-0.00390625 -31.6035 0.708984 -63.0693 4.65625 -94.4805c1.4707 -11.7207 2.71387 -24.1201 6.71582 -34.2734c1.60156 -4.06055 6.83984 -20.4307 12.8018 -21.0234c8.82715 -0.87793 19.4355 26.9922 21.957 33.1953c5.79297 14.2559 10.7354 28.9072 15.7676 43.4414
c10.7529 31.0488 20.6582 62.3945 29.7061 93.9844c14.9336 52.1416 28.001 104.951 39.0049 158.112c1.28809 13.002 2.90723 25.8965 4.9082 38.6299c3.51953 22.3701 28.5039 34.0254 48.6074 34.0703c17.751 0.0410156 45.9727 -12.999 44.9189 -34.9863
c-2.68945 -56.1738 -7.41113 -111.783 -7.78613 -168.099c-0.347656 -52.375 0.789062 -104.63 5.71777 -156.774c1.92871 -20.417 3.61328 -47.1436 13.4082 -65.6973c13.4014 -25.3838 40.4316 8.15527 48.1084 21.915c24.9463 44.7188 34.7383 96.7568 44.8301 146.397z
" />
    <glyph glyph-name="u" unicode="&#xfa;" horiz-adv-x="426" 
d="M427.037 164.93c3.11035 15.292 30.9336 12.96 28.2295 -3.56543c-9.34082 -57.2383 -18.2607 -122.987 -53.7705 -170.979c-14.6064 -19.7422 -36.377 -33.9805 -61.8086 -31.0869c-11.5137 1.3125 -21.9287 6.62988 -32.5371 10.6494
c-14.2383 5.39746 -24.4814 12.0547 -34.2383 23.9648c-42.4492 51.8145 -47.5947 124.479 -50.8008 188.428c-0.203125 4.0332 -0.392578 8.08008 -0.568359 12.1406c-1.23633 -4.58789 -2.43457 -9.17871 -3.71191 -13.7598
c-8.23535 -29.4854 -17.2285 -58.7607 -26.958 -87.7881c-8.60352 -25.666 -15.8125 -54.7314 -31.5898 -77.0908c-13.2393 -18.7607 -37.0283 -36.4707 -60.3008 -38.9092c-28.0117 -2.93457 -54.7354 14.0938 -70.957 35.7744
c-38.9189 52.0137 -44.5605 117.191 -44.9912 180.075c-0.44043 65.1631 3.14453 130.599 9.03027 195.477c2.71094 29.8535 41.3818 42.9795 65.9043 40.8027c29.5059 -2.61719 47.6328 -26.7227 45.6211 -54.8682c-4.86328 -68.0566 -9.87109 -135.403 -9.875 -203.677
c-0.00390625 -31.6035 0.708984 -63.0693 4.65625 -94.4805c1.4707 -11.7207 2.71387 -24.1201 6.71582 -34.2734c1.60156 -4.06055 6.83984 -20.4307 12.8018 -21.0234c8.82715 -0.87793 19.4355 26.9922 21.957 33.1953c5.79297 14.2559 10.7354 28.9072 15.7676 43.4414
c10.7529 31.0488 20.6582 62.3945 29.7061 93.9844c14.9336 52.1416 28.001 104.951 39.0049 158.112c1.28809 13.002 2.90723 25.8965 4.9082 38.6299c3.51953 22.3701 28.5039 34.0254 48.6074 34.0703c17.751 0.0410156 45.9727 -12.999 44.9189 -34.9863
c-2.68945 -56.1738 -7.41113 -111.783 -7.78613 -168.099c-0.347656 -52.375 0.789062 -104.63 5.71777 -156.774c1.92871 -20.417 3.61328 -47.1436 13.4082 -65.6973c13.4014 -25.3838 40.4316 8.15527 48.1084 21.915c24.9463 44.7188 34.7383 96.7568 44.8301 146.397z
" />
    <glyph glyph-name="v" unicode="v" horiz-adv-x="415" 
d="M429.564 182.915c17.248 4.64258 29.5449 -18.0635 10.5713 -23.7734c-43.0557 -12.9434 -89.8965 -13.2051 -133.255 -1.93262c-5.7998 -20.8203 -12.1475 -41.4307 -19.0566 -61.6445c-17.1416 -50.1436 -40.1006 -115.969 -88.5156 -144.562
c-49.4785 -29.2207 -105.918 -2.35254 -141.62 35.333c-45.3975 47.9219 -56.8838 122.649 -65.4834 185.44c-9.36133 68.3525 -10.9424 137.28 -12.1963 206.167c-0.455078 24.8906 18.9941 42.8418 43.2793 45.3936c21.1641 2.22461 51.0762 -10.6807 51.7715 -35.4033
c3.39551 -120.68 9.6123 -240.809 43.623 -357.218c5.41797 -18.543 10.626 -38.3887 25.4014 -52.0068c16.8828 -15.5605 36.2773 -3.88477 49.9609 10.2188c33.9629 35.0029 51.4766 89.2998 65.5186 134.835c4.60449 14.9238 8.95801 29.9883 13.0703 45.1318
c-55.4541 23.6406 -100.89 67.9287 -118.097 130.299c-13.7383 49.792 -5.13867 110.12 26.4102 151.685c30.7871 40.5586 97.5938 57.4561 132.259 11.5762c36.0088 -47.6533 28.2939 -123.858 20.4414 -179.165c-4.61523 -32.4922 -11.1387 -65.1289 -19.167 -97.3838
c36.4258 -11.9717 76.9189 -13.2598 115.084 -2.98926zM295.577 271.876c8.4209 49.9336 16.584 111.505 -5.38965 159.199c-10.5908 23 -32.2822 33.9424 -55.9541 21.6328c-19.6143 -10.1982 -31.5586 -32.7334 -37.0938 -53.2607
c-10.6387 -39.4492 -3.87402 -81.8398 11.917 -119.03c14.9854 -35.2959 40.6924 -62.0566 71.7832 -79.6631c5.72461 23.5752 10.7217 47.3193 14.7373 71.1221z" />
    <glyph glyph-name="w" unicode="w" horiz-adv-x="544" 
d="M562.082 184.168c19.7041 4.06055 22.0918 -22.7734 2.80762 -26.7412c-39.7285 -8.19043 -81.248 -7.40137 -119.43 5.03223c-0.165039 -0.988281 -0.299805 -1.9834 -0.464844 -2.97168c-12.4785 -74.208 -47.6299 -237.255 -158.098 -193.455
c-54.418 21.5781 -74.5283 86.7793 -86.4688 138.807c-0.230469 1.0127 -0.44043 2.02832 -0.667969 3.04102c-4.31934 -16.1602 -9.375 -32.1172 -15.333 -47.792c-19.1396 -50.3467 -71.6113 -99.9492 -127.703 -68.0459
c-57.4482 32.6777 -69.293 115.934 -72.7852 175.728c-4.02246 68.8799 -2.21777 139.24 9.41699 207.311c8.5791 50.1846 97.6592 42.0322 91.5352 -11.5449c-6.21289 -54.3594 -11.1729 -108.615 -10.4258 -163.385c0.667969 -49.0996 0.740234 -102.739 18.1436 -149.301
c7.06445 -18.9014 16.8867 -40.3721 37.459 -21.4707c19.2842 17.7197 28.8867 46.7852 36.3467 71.0771c9.29199 30.25 15.7158 61.2373 20.4795 92.4961c-2.4043 29.7812 -2.67969 59.7383 -0.820312 89.3789c1.55371 24.8184 33.6191 38.2646 54.3291 38.0791
c21.5918 -0.193359 49.1797 -14.249 50.21 -39.1055c2.07715 -50.1299 0.678711 -100.06 5.75879 -150.124c2.54199 -25.0391 5.99316 -50.3779 10.4805 -75.1416c3.21387 -17.7207 7.43652 -38.2725 17.332 -53.582c13.4629 -20.8301 31.6377 4.42578 40.5928 17.4727
c10.9941 16.0117 19.5322 33.8594 25.9004 52.1787c11.5693 33.2881 18.874 68.291 24.4092 103.184c-4.24707 2.24512 -8.44922 4.60059 -12.5508 7.19727c-42.4014 26.8408 -73.4053 70.3857 -85.9453 118.824c-11.4521 44.2295 -8.18066 93.8672 12.6768 134.904
c16.9385 33.3262 61.3994 74.6426 97.6455 39.502c15.7705 -15.2891 19.3623 -39.8906 22.7793 -60.5801c4.70117 -28.459 6.79492 -57.2314 7.48047 -86.0488c1.08789 -45.8828 -1.45703 -91.9141 -7.42578 -137.449c34.4277 -13.1152 73.5088 -15.4775 112.335 -7.47363z
M419.601 206.72c5.15918 40.583 7.45703 81.4971 6.71289 122.41c-0.40625 22.4248 -1.61133 44.8633 -4.3877 67.126c-2.19043 17.5684 -3.46094 44.0195 -15.1982 58.4062c-28.5283 34.9648 -59.1816 -52.4785 -62.416 -70.874
c-6.82617 -38.8359 -0.44043 -79.4189 17.9131 -114.295c14.293 -27.1641 34.1172 -48.0049 57.376 -62.7734z" />
    <glyph glyph-name="x" unicode="x" horiz-adv-x="339" 
d="M342.01 173.856c4.51855 14.8232 32.9717 12.3701 28.2393 -3.56641c-15.96 -53.7393 -40.1963 -107.975 -76.1602 -151.457c-13.8008 -16.6865 -31.2383 -31.1729 -51.5312 -39.1562c-21.7744 -8.56934 -45.708 -15.8643 -68.8701 -9.64062
c-50.3535 13.5322 -82.7256 64.1719 -101.755 109.58c-2.18359 5.21094 -4.24316 10.4941 -6.27539 15.7949c-16.3877 -34.4209 -31.6621 -69.3828 -45.7832 -104.827c-5.9375 -14.9131 -33.5117 -6.80566 -26.8408 9.99121
c17.9678 45.2285 37.8232 89.6035 59.4697 133.048c-27.0264 87.8711 -35.5645 184.325 -30.7012 274.394c1.39453 25.835 35.1719 39.8428 56.5703 39.6504c23.3242 -0.209961 50.1475 -14.8369 52.2764 -40.7168c3.35156 -40.7236 4.12988 -81.499 6.74023 -122.229
c26.7168 42.5215 55.2412 83.9512 85.5322 124.158c10.0293 13.3115 34.6348 -0.572266 23.1279 -15.8164c-37.707 -49.9502 -72.5449 -101.968 -104.517 -155.68c0.130859 -1.14648 0.223633 -2.29688 0.365234 -3.44336
c6.42676 -52.9229 16.2324 -107.702 34.9893 -157.756c7.58398 -20.2383 16.1113 -44.5059 30.0908 -61.2617c6.32715 -7.58789 11.917 -12.9365 21.6709 -10.791c13.8457 3.04492 25.5762 12.1758 35.1582 22.1641c37.8721 39.4766 62.4668 95.9297 78.2031 147.562z" />
    <glyph glyph-name="y" unicode="y" horiz-adv-x="408" 
d="M412.197 176.78c4.43262 14.7412 32.5811 12.6494 28.2344 -3.55859c-7.93848 -29.6572 -26.3135 -54.0039 -44.7051 -78.0342c-12.957 -16.9316 -26.6064 -33.3154 -40.5693 -49.4238c2.24219 -81.8398 0.385742 -165.037 -18.2783 -244.648
c-8.96191 -38.2441 -22.2285 -74.7148 -44.7979 -107.114c-23.7402 -34.083 -68.0498 -62.7139 -110.564 -59.7207c-55.5752 3.91602 -81.9746 60.0801 -77.752 110.055c4.85645 57.4766 41.5088 108.915 75.668 153.152c24.6221 31.8896 51.6514 61.6777 79.2803 90.9258
c-3.08984 50.2852 -8.00781 100.515 -12.9912 150.451c-2.37305 23.7578 -4.85938 47.6152 -7.16016 71.5244c-1.45703 -8.16992 -2.98242 -16.3262 -4.62207 -24.458c-11.0898 -55.0137 -27.2881 -114.167 -59.7285 -160.842
c-15.0547 -21.6602 -35.2061 -28.9443 -60.8613 -27.6875c-29.3818 1.43652 -50.7393 10.5742 -72.3408 30.6816c-42.6074 39.6562 -56.1641 101.187 -59.0947 157.299c-3.48926 66.8301 3.53711 134.715 12.6191 200.86c3.24414 23.627 32.7852 35.7812 53.5293 33.1396
c23.4238 -2.97949 39.3633 -21.082 37.0557 -44.5645c-6.81641 -69.3135 -14.4902 -137.267 -10.2607 -207.035c1.65625 -27.3574 5.53125 -55.5068 14.5098 -81.4863c3.9502 -11.4238 7.95215 -23.3857 14.3965 -33.7109
c4.16699 -6.6709 11.0625 -21.3193 18.5781 -24.6641c24.2783 -10.8115 45.959 50.3047 52.5439 66.0996c12.8291 30.7773 21.5117 63.208 28.4521 95.7695c14.459 67.8467 22.6904 137.243 26.1826 206.488c0.103516 2.04199 0.678711 3.86035 1.58105 5.46582
c4.78027 22.2529 22.5693 36.2773 46.833 39.7666c23.665 3.39941 56.5049 -12.5234 57.5449 -39.3496c4.03613 -104.124 13.8418 -207.907 18.1328 -312.018c1.64258 1.89746 3.31641 3.76758 4.94531 5.67871c20.5928 24.1709 44.3262 49.9883 53.6396 80.958z
M261.821 -126.762c0.333984 22.8174 0.00292969 45.6641 -0.806641 68.5195c-15.8604 -17.7197 -31.3896 -35.7158 -46.1406 -54.3662c-32.668 -41.2988 -69.3135 -90.7158 -74.1523 -144.924c-2.1875 -24.5156 4.41113 -54.7998 26.0508 -69.4756
c15.8809 -10.7695 43.2275 -8.7207 56.8008 5.51758c9.00977 9.45117 13.4014 28.4971 17.2832 39.4355c5.4248 15.2812 8.13867 31.2549 11.3311 47.0879c7.65332 37.958 9.08594 70.915 9.63379 108.205z" />
    </font>
</defs>
</svg>
